# Bellows Diecut flat pattern: accordion_corners_roller
# width=50.000 height=50.000 (mm)
v 0.00000 0.00000 0.0
v 10.00000 0.00000 0.0
v 0.00000 10.00000 0.0
v 10.00000 10.00000 0.0
v 0.00000 5.00000 0.0
v 10.00000 5.00000 0.0
v 1.42857 5.00000 0.0
v 5.71429 0.00000 0.0
v 4.28571 5.00000 0.0
v 5.71429 10.00000 0.0
v 2.85714 0.00000 0.0
v 2.85714 10.00000 0.0
v 20.00000 0.00000 0.0
v 20.00000 10.00000 0.0
v 20.00000 5.00000 0.0
v 11.42857 5.00000 0.0
v 15.71429 0.00000 0.0
v 14.28571 5.00000 0.0
v 15.71429 10.00000 0.0
v 12.85714 0.00000 0.0
v 12.85714 10.00000 0.0
v 30.00000 0.00000 0.0
v 30.00000 10.00000 0.0
v 30.00000 5.00000 0.0
v 21.42857 5.00000 0.0
v 25.71429 0.00000 0.0
v 24.28571 5.00000 0.0
v 25.71429 10.00000 0.0
v 22.85714 0.00000 0.0
v 22.85714 10.00000 0.0
v 40.00000 0.00000 0.0
v 40.00000 10.00000 0.0
v 40.00000 5.00000 0.0
v 31.42857 5.00000 0.0
v 35.71429 0.00000 0.0
v 34.28571 5.00000 0.0
v 35.71429 10.00000 0.0
v 32.85714 0.00000 0.0
v 32.85714 10.00000 0.0
v 50.00000 0.00000 0.0
v 50.00000 10.00000 0.0
v 50.00000 5.00000 0.0
v 41.42857 5.00000 0.0
v 45.71429 0.00000 0.0
v 44.28571 5.00000 0.0
v 45.71429 10.00000 0.0
v 42.85714 0.00000 0.0
v 42.85714 10.00000 0.0
v 0.00000 20.00000 0.0
v 10.00000 20.00000 0.0
v 0.00000 15.00000 0.0
v 10.00000 15.00000 0.0
v 1.42857 15.00000 0.0
v 4.28571 15.00000 0.0
v 5.71429 20.00000 0.0
v 2.85714 20.00000 0.0
v 20.00000 20.00000 0.0
v 20.00000 15.00000 0.0
v 11.42857 15.00000 0.0
v 14.28571 15.00000 0.0
v 15.71429 20.00000 0.0
v 12.85714 20.00000 0.0
v 30.00000 20.00000 0.0
v 30.00000 15.00000 0.0
v 21.42857 15.00000 0.0
v 24.28571 15.00000 0.0
v 25.71429 20.00000 0.0
v 22.85714 20.00000 0.0
v 40.00000 20.00000 0.0
v 40.00000 15.00000 0.0
v 31.42857 15.00000 0.0
v 34.28571 15.00000 0.0
v 35.71429 20.00000 0.0
v 32.85714 20.00000 0.0
v 50.00000 20.00000 0.0
v 50.00000 15.00000 0.0
v 41.42857 15.00000 0.0
v 44.28571 15.00000 0.0
v 45.71429 20.00000 0.0
v 42.85714 20.00000 0.0
v 0.00000 30.00000 0.0
v 10.00000 30.00000 0.0
v 0.00000 25.00000 0.0
v 10.00000 25.00000 0.0
v 1.42857 25.00000 0.0
v 4.28571 25.00000 0.0
v 5.71429 30.00000 0.0
v 2.85714 30.00000 0.0
v 20.00000 30.00000 0.0
v 20.00000 25.00000 0.0
v 11.42857 25.00000 0.0
v 14.28571 25.00000 0.0
v 15.71429 30.00000 0.0
v 12.85714 30.00000 0.0
v 30.00000 30.00000 0.0
v 30.00000 25.00000 0.0
v 21.42857 25.00000 0.0
v 24.28571 25.00000 0.0
v 25.71429 30.00000 0.0
v 22.85714 30.00000 0.0
v 40.00000 30.00000 0.0
v 40.00000 25.00000 0.0
v 31.42857 25.00000 0.0
v 34.28571 25.00000 0.0
v 35.71429 30.00000 0.0
v 32.85714 30.00000 0.0
v 50.00000 30.00000 0.0
v 50.00000 25.00000 0.0
v 41.42857 25.00000 0.0
v 44.28571 25.00000 0.0
v 45.71429 30.00000 0.0
v 42.85714 30.00000 0.0
v 0.00000 40.00000 0.0
v 10.00000 40.00000 0.0
v 0.00000 35.00000 0.0
v 10.00000 35.00000 0.0
v 1.42857 35.00000 0.0
v 4.28571 35.00000 0.0
v 5.71429 40.00000 0.0
v 2.85714 40.00000 0.0
v 20.00000 40.00000 0.0
v 20.00000 35.00000 0.0
v 11.42857 35.00000 0.0
v 14.28571 35.00000 0.0
v 15.71429 40.00000 0.0
v 12.85714 40.00000 0.0
v 30.00000 40.00000 0.0
v 30.00000 35.00000 0.0
v 21.42857 35.00000 0.0
v 24.28571 35.00000 0.0
v 25.71429 40.00000 0.0
v 22.85714 40.00000 0.0
v 40.00000 40.00000 0.0
v 40.00000 35.00000 0.0
v 31.42857 35.00000 0.0
v 34.28571 35.00000 0.0
v 35.71429 40.00000 0.0
v 32.85714 40.00000 0.0
v 50.00000 40.00000 0.0
v 50.00000 35.00000 0.0
v 41.42857 35.00000 0.0
v 44.28571 35.00000 0.0
v 45.71429 40.00000 0.0
v 42.85714 40.00000 0.0
v 0.00000 50.00000 0.0
v 10.00000 50.00000 0.0
v 0.00000 45.00000 0.0
v 10.00000 45.00000 0.0
v 1.42857 45.00000 0.0
v 4.28571 45.00000 0.0
v 5.71429 50.00000 0.0
v 2.85714 50.00000 0.0
v 20.00000 50.00000 0.0
v 20.00000 45.00000 0.0
v 11.42857 45.00000 0.0
v 14.28571 45.00000 0.0
v 15.71429 50.00000 0.0
v 12.85714 50.00000 0.0
v 30.00000 50.00000 0.0
v 30.00000 45.00000 0.0
v 21.42857 45.00000 0.0
v 24.28571 45.00000 0.0
v 25.71429 50.00000 0.0
v 22.85714 50.00000 0.0
v 40.00000 50.00000 0.0
v 40.00000 45.00000 0.0
v 31.42857 45.00000 0.0
v 34.28571 45.00000 0.0
v 35.71429 50.00000 0.0
v 32.85714 50.00000 0.0
v 50.00000 50.00000 0.0
v 50.00000 45.00000 0.0
v 41.42857 45.00000 0.0
v 44.28571 45.00000 0.0
v 45.71429 50.00000 0.0
v 42.85714 50.00000 0.0
g mountain
l 1 2
l 3 4
l 2 13
l 4 14
l 13 22
l 14 23
l 22 31
l 23 32
l 31 40
l 32 41
l 3 4
l 49 50
l 4 14
l 50 57
l 14 23
l 57 63
l 23 32
l 63 69
l 32 41
l 69 75
l 49 50
l 81 82
l 50 57
l 82 89
l 57 63
l 89 95
l 63 69
l 95 101
l 69 75
l 101 107
l 81 82
l 113 114
l 82 89
l 114 121
l 89 95
l 121 127
l 95 101
l 127 133
l 101 107
l 133 139
l 113 114
l 145 146
l 114 121
l 146 153
l 121 127
l 153 159
l 127 133
l 159 165
l 133 139
l 165 171
g valley
l 5 6
l 1 7
l 8 9
l 3 7
l 10 9
l 11 12
l 6 15
l 2 16
l 17 18
l 4 16
l 19 18
l 20 21
l 15 24
l 13 25
l 26 27
l 14 25
l 28 27
l 29 30
l 24 33
l 22 34
l 35 36
l 23 34
l 37 36
l 38 39
l 33 42
l 31 43
l 44 45
l 32 43
l 46 45
l 47 48
l 51 52
l 3 53
l 10 54
l 49 53
l 55 54
l 12 56
l 52 58
l 4 59
l 19 60
l 50 59
l 61 60
l 21 62
l 58 64
l 14 65
l 28 66
l 57 65
l 67 66
l 30 68
l 64 70
l 23 71
l 37 72
l 63 71
l 73 72
l 39 74
l 70 76
l 32 77
l 46 78
l 69 77
l 79 78
l 48 80
l 83 84
l 49 85
l 55 86
l 81 85
l 87 86
l 56 88
l 84 90
l 50 91
l 61 92
l 82 91
l 93 92
l 62 94
l 90 96
l 57 97
l 67 98
l 89 97
l 99 98
l 68 100
l 96 102
l 63 103
l 73 104
l 95 103
l 105 104
l 74 106
l 102 108
l 69 109
l 79 110
l 101 109
l 111 110
l 80 112
l 115 116
l 81 117
l 87 118
l 113 117
l 119 118
l 88 120
l 116 122
l 82 123
l 93 124
l 114 123
l 125 124
l 94 126
l 122 128
l 89 129
l 99 130
l 121 129
l 131 130
l 100 132
l 128 134
l 95 135
l 105 136
l 127 135
l 137 136
l 106 138
l 134 140
l 101 141
l 111 142
l 133 141
l 143 142
l 112 144
l 147 148
l 113 149
l 119 150
l 145 149
l 151 150
l 120 152
l 148 154
l 114 155
l 125 156
l 146 155
l 157 156
l 126 158
l 154 160
l 121 161
l 131 162
l 153 161
l 163 162
l 132 164
l 160 166
l 127 167
l 137 168
l 159 167
l 169 168
l 138 170
l 166 172
l 133 173
l 143 174
l 165 173
l 175 174
l 144 176
g boundary
l 1 40
l 40 171
l 171 145
l 145 1
