# Bellows Diecut flat pattern: accordion_roller
# width=75.833 height=50.000 (mm)
v 0.00000 0.00000 0.0
v 23.33333 0.00000 0.0
v 17.50000 5.00000 0.0
v 40.83333 5.00000 0.0
v 0.00000 10.00000 0.0
v 23.33333 10.00000 0.0
v 5.83333 5.00000 0.0
v 35.00000 0.00000 0.0
v 35.00000 10.00000 0.0
v 58.33333 0.00000 0.0
v 52.50000 5.00000 0.0
v 75.83333 5.00000 0.0
v 58.33333 10.00000 0.0
v 70.00000 0.00000 0.0
v 70.00000 10.00000 0.0
v 17.50000 15.00000 0.0
v 40.83333 15.00000 0.0
v 0.00000 20.00000 0.0
v 23.33333 20.00000 0.0
v 5.83333 15.00000 0.0
v 35.00000 20.00000 0.0
v 52.50000 15.00000 0.0
v 75.83333 15.00000 0.0
v 58.33333 20.00000 0.0
v 70.00000 20.00000 0.0
v 17.50000 25.00000 0.0
v 40.83333 25.00000 0.0
v 0.00000 30.00000 0.0
v 23.33333 30.00000 0.0
v 5.83333 25.00000 0.0
v 35.00000 30.00000 0.0
v 52.50000 25.00000 0.0
v 75.83333 25.00000 0.0
v 58.33333 30.00000 0.0
v 70.00000 30.00000 0.0
v 17.50000 35.00000 0.0
v 40.83333 35.00000 0.0
v 0.00000 40.00000 0.0
v 23.33333 40.00000 0.0
v 5.83333 35.00000 0.0
v 35.00000 40.00000 0.0
v 52.50000 35.00000 0.0
v 75.83333 35.00000 0.0
v 58.33333 40.00000 0.0
v 70.00000 40.00000 0.0
v 17.50000 45.00000 0.0
v 40.83333 45.00000 0.0
v 0.00000 50.00000 0.0
v 23.33333 50.00000 0.0
v 5.83333 45.00000 0.0
v 35.00000 50.00000 0.0
v 52.50000 45.00000 0.0
v 75.83333 45.00000 0.0
v 58.33333 50.00000 0.0
v 70.00000 50.00000 0.0
v 75.83333 0.00000 0.0
v 75.83333 50.00000 0.0
g mountain
l 1 2
l 3 4
l 5 6
l 3 4
l 8 10
l 11 12
l 9 13
l 11 12
l 5 6
l 16 17
l 18 19
l 16 17
l 9 13
l 22 23
l 21 24
l 22 23
l 18 19
l 26 27
l 28 29
l 26 27
l 21 24
l 32 33
l 31 34
l 32 33
l 28 29
l 36 37
l 38 39
l 36 37
l 31 34
l 42 43
l 41 44
l 42 43
l 38 39
l 46 47
l 48 49
l 46 47
l 41 44
l 52 53
l 51 54
l 52 53
g valley
l 7 3
l 2 8
l 1 7
l 2 3
l 8 4
l 7 3
l 6 9
l 5 7
l 6 3
l 9 4
l 4 11
l 10 14
l 8 4
l 10 11
l 14 12
l 4 11
l 13 15
l 9 4
l 13 11
l 15 12
l 20 16
l 6 9
l 5 20
l 6 16
l 9 17
l 20 16
l 19 21
l 18 20
l 19 16
l 21 17
l 17 22
l 13 15
l 9 17
l 13 22
l 15 23
l 17 22
l 24 25
l 21 17
l 24 22
l 25 23
l 30 26
l 19 21
l 18 30
l 19 26
l 21 27
l 30 26
l 29 31
l 28 30
l 29 26
l 31 27
l 27 32
l 24 25
l 21 27
l 24 32
l 25 33
l 27 32
l 34 35
l 31 27
l 34 32
l 35 33
l 40 36
l 29 31
l 28 40
l 29 36
l 31 37
l 40 36
l 39 41
l 38 40
l 39 36
l 41 37
l 37 42
l 34 35
l 31 37
l 34 42
l 35 43
l 37 42
l 44 45
l 41 37
l 44 42
l 45 43
l 50 46
l 39 41
l 38 50
l 39 46
l 41 47
l 50 46
l 49 51
l 48 50
l 49 46
l 51 47
l 47 52
l 44 45
l 41 47
l 44 52
l 45 53
l 47 52
l 54 55
l 51 47
l 54 52
l 55 53
g boundary
l 1 56
l 56 57
l 57 48
l 48 1
