# Bellows Diecut flat pattern: miura_tile
# width=136.000 height=170.000 (mm)
v 0.00000 17.00000 0.0
v 0.00000 11.33333 0.0
v 16.00000 17.00000 0.0
v 16.00000 11.33333 0.0
v 8.00000 5.66667 0.0
v 8.00000 0.00000 0.0
v 8.00000 11.33333 0.0
v 0.00000 5.66667 0.0
v 16.00000 5.66667 0.0
v 32.00000 17.00000 0.0
v 32.00000 11.33333 0.0
v 24.00000 5.66667 0.0
v 24.00000 0.00000 0.0
v 24.00000 11.33333 0.0
v 32.00000 5.66667 0.0
v 48.00000 17.00000 0.0
v 48.00000 11.33333 0.0
v 40.00000 5.66667 0.0
v 40.00000 0.00000 0.0
v 40.00000 11.33333 0.0
v 48.00000 5.66667 0.0
v 64.00000 17.00000 0.0
v 64.00000 11.33333 0.0
v 56.00000 5.66667 0.0
v 56.00000 0.00000 0.0
v 56.00000 11.33333 0.0
v 64.00000 5.66667 0.0
v 80.00000 17.00000 0.0
v 80.00000 11.33333 0.0
v 72.00000 5.66667 0.0
v 72.00000 0.00000 0.0
v 72.00000 11.33333 0.0
v 80.00000 5.66667 0.0
v 96.00000 17.00000 0.0
v 96.00000 11.33333 0.0
v 88.00000 5.66667 0.0
v 88.00000 0.00000 0.0
v 88.00000 11.33333 0.0
v 96.00000 5.66667 0.0
v 112.00000 17.00000 0.0
v 112.00000 11.33333 0.0
v 104.00000 5.66667 0.0
v 104.00000 0.00000 0.0
v 104.00000 11.33333 0.0
v 112.00000 5.66667 0.0
v 128.00000 17.00000 0.0
v 128.00000 11.33333 0.0
v 120.00000 5.66667 0.0
v 120.00000 0.00000 0.0
v 120.00000 11.33333 0.0
v 128.00000 5.66667 0.0
v 8.00000 34.00000 0.0
v 8.00000 28.33333 0.0
v 24.00000 34.00000 0.0
v 24.00000 28.33333 0.0
v 16.00000 22.66667 0.0
v 16.00000 28.33333 0.0
v 8.00000 22.66667 0.0
v 24.00000 22.66667 0.0
v 40.00000 34.00000 0.0
v 40.00000 28.33333 0.0
v 32.00000 22.66667 0.0
v 32.00000 28.33333 0.0
v 40.00000 22.66667 0.0
v 56.00000 34.00000 0.0
v 56.00000 28.33333 0.0
v 48.00000 22.66667 0.0
v 48.00000 28.33333 0.0
v 56.00000 22.66667 0.0
v 72.00000 34.00000 0.0
v 72.00000 28.33333 0.0
v 64.00000 22.66667 0.0
v 64.00000 28.33333 0.0
v 72.00000 22.66667 0.0
v 88.00000 34.00000 0.0
v 88.00000 28.33333 0.0
v 80.00000 22.66667 0.0
v 80.00000 28.33333 0.0
v 88.00000 22.66667 0.0
v 104.00000 34.00000 0.0
v 104.00000 28.33333 0.0
v 96.00000 22.66667 0.0
v 96.00000 28.33333 0.0
v 104.00000 22.66667 0.0
v 120.00000 34.00000 0.0
v 120.00000 28.33333 0.0
v 112.00000 22.66667 0.0
v 112.00000 28.33333 0.0
v 120.00000 22.66667 0.0
v 136.00000 34.00000 0.0
v 136.00000 28.33333 0.0
v 128.00000 22.66667 0.0
v 128.00000 28.33333 0.0
v 136.00000 22.66667 0.0
v 0.00000 51.00000 0.0
v 0.00000 45.33333 0.0
v 16.00000 51.00000 0.0
v 16.00000 45.33333 0.0
v 8.00000 39.66667 0.0
v 8.00000 45.33333 0.0
v 0.00000 39.66667 0.0
v 16.00000 39.66667 0.0
v 32.00000 51.00000 0.0
v 32.00000 45.33333 0.0
v 24.00000 39.66667 0.0
v 24.00000 45.33333 0.0
v 32.00000 39.66667 0.0
v 48.00000 51.00000 0.0
v 48.00000 45.33333 0.0
v 40.00000 39.66667 0.0
v 40.00000 45.33333 0.0
v 48.00000 39.66667 0.0
v 64.00000 51.00000 0.0
v 64.00000 45.33333 0.0
v 56.00000 39.66667 0.0
v 56.00000 45.33333 0.0
v 64.00000 39.66667 0.0
v 80.00000 51.00000 0.0
v 80.00000 45.33333 0.0
v 72.00000 39.66667 0.0
v 72.00000 45.33333 0.0
v 80.00000 39.66667 0.0
v 96.00000 51.00000 0.0
v 96.00000 45.33333 0.0
v 88.00000 39.66667 0.0
v 88.00000 45.33333 0.0
v 96.00000 39.66667 0.0
v 112.00000 51.00000 0.0
v 112.00000 45.33333 0.0
v 104.00000 39.66667 0.0
v 104.00000 45.33333 0.0
v 112.00000 39.66667 0.0
v 128.00000 51.00000 0.0
v 128.00000 45.33333 0.0
v 120.00000 39.66667 0.0
v 120.00000 45.33333 0.0
v 128.00000 39.66667 0.0
v 8.00000 68.00000 0.0
v 8.00000 62.33333 0.0
v 24.00000 68.00000 0.0
v 24.00000 62.33333 0.0
v 16.00000 56.66667 0.0
v 16.00000 62.33333 0.0
v 8.00000 56.66667 0.0
v 24.00000 56.66667 0.0
v 40.00000 68.00000 0.0
v 40.00000 62.33333 0.0
v 32.00000 56.66667 0.0
v 32.00000 62.33333 0.0
v 40.00000 56.66667 0.0
v 56.00000 68.00000 0.0
v 56.00000 62.33333 0.0
v 48.00000 56.66667 0.0
v 48.00000 62.33333 0.0
v 56.00000 56.66667 0.0
v 72.00000 68.00000 0.0
v 72.00000 62.33333 0.0
v 64.00000 56.66667 0.0
v 64.00000 62.33333 0.0
v 72.00000 56.66667 0.0
v 88.00000 68.00000 0.0
v 88.00000 62.33333 0.0
v 80.00000 56.66667 0.0
v 80.00000 62.33333 0.0
v 88.00000 56.66667 0.0
v 104.00000 68.00000 0.0
v 104.00000 62.33333 0.0
v 96.00000 56.66667 0.0
v 96.00000 62.33333 0.0
v 104.00000 56.66667 0.0
v 120.00000 68.00000 0.0
v 120.00000 62.33333 0.0
v 112.00000 56.66667 0.0
v 112.00000 62.33333 0.0
v 120.00000 56.66667 0.0
v 136.00000 68.00000 0.0
v 136.00000 62.33333 0.0
v 128.00000 56.66667 0.0
v 128.00000 62.33333 0.0
v 136.00000 56.66667 0.0
v 0.00000 85.00000 0.0
v 0.00000 79.33333 0.0
v 16.00000 85.00000 0.0
v 16.00000 79.33333 0.0
v 8.00000 73.66667 0.0
v 8.00000 79.33333 0.0
v 0.00000 73.66667 0.0
v 16.00000 73.66667 0.0
v 32.00000 85.00000 0.0
v 32.00000 79.33333 0.0
v 24.00000 73.66667 0.0
v 24.00000 79.33333 0.0
v 32.00000 73.66667 0.0
v 48.00000 85.00000 0.0
v 48.00000 79.33333 0.0
v 40.00000 73.66667 0.0
v 40.00000 79.33333 0.0
v 48.00000 73.66667 0.0
v 64.00000 85.00000 0.0
v 64.00000 79.33333 0.0
v 56.00000 73.66667 0.0
v 56.00000 79.33333 0.0
v 64.00000 73.66667 0.0
v 80.00000 85.00000 0.0
v 80.00000 79.33333 0.0
v 72.00000 73.66667 0.0
v 72.00000 79.33333 0.0
v 80.00000 73.66667 0.0
v 96.00000 85.00000 0.0
v 96.00000 79.33333 0.0
v 88.00000 73.66667 0.0
v 88.00000 79.33333 0.0
v 96.00000 73.66667 0.0
v 112.00000 85.00000 0.0
v 112.00000 79.33333 0.0
v 104.00000 73.66667 0.0
v 104.00000 79.33333 0.0
v 112.00000 73.66667 0.0
v 128.00000 85.00000 0.0
v 128.00000 79.33333 0.0
v 120.00000 73.66667 0.0
v 120.00000 79.33333 0.0
v 128.00000 73.66667 0.0
v 8.00000 102.00000 0.0
v 8.00000 96.33333 0.0
v 24.00000 102.00000 0.0
v 24.00000 96.33333 0.0
v 16.00000 90.66667 0.0
v 16.00000 96.33333 0.0
v 8.00000 90.66667 0.0
v 24.00000 90.66667 0.0
v 40.00000 102.00000 0.0
v 40.00000 96.33333 0.0
v 32.00000 90.66667 0.0
v 32.00000 96.33333 0.0
v 40.00000 90.66667 0.0
v 56.00000 102.00000 0.0
v 56.00000 96.33333 0.0
v 48.00000 90.66667 0.0
v 48.00000 96.33333 0.0
v 56.00000 90.66667 0.0
v 72.00000 102.00000 0.0
v 72.00000 96.33333 0.0
v 64.00000 90.66667 0.0
v 64.00000 96.33333 0.0
v 72.00000 90.66667 0.0
v 88.00000 102.00000 0.0
v 88.00000 96.33333 0.0
v 80.00000 90.66667 0.0
v 80.00000 96.33333 0.0
v 88.00000 90.66667 0.0
v 104.00000 102.00000 0.0
v 104.00000 96.33333 0.0
v 96.00000 90.66667 0.0
v 96.00000 96.33333 0.0
v 104.00000 90.66667 0.0
v 120.00000 102.00000 0.0
v 120.00000 96.33333 0.0
v 112.00000 90.66667 0.0
v 112.00000 96.33333 0.0
v 120.00000 90.66667 0.0
v 136.00000 102.00000 0.0
v 136.00000 96.33333 0.0
v 128.00000 90.66667 0.0
v 128.00000 96.33333 0.0
v 136.00000 90.66667 0.0
v 0.00000 119.00000 0.0
v 0.00000 113.33333 0.0
v 16.00000 119.00000 0.0
v 16.00000 113.33333 0.0
v 8.00000 107.66667 0.0
v 8.00000 113.33333 0.0
v 0.00000 107.66667 0.0
v 16.00000 107.66667 0.0
v 32.00000 119.00000 0.0
v 32.00000 113.33333 0.0
v 24.00000 107.66667 0.0
v 24.00000 113.33333 0.0
v 32.00000 107.66667 0.0
v 48.00000 119.00000 0.0
v 48.00000 113.33333 0.0
v 40.00000 107.66667 0.0
v 40.00000 113.33333 0.0
v 48.00000 107.66667 0.0
v 64.00000 119.00000 0.0
v 64.00000 113.33333 0.0
v 56.00000 107.66667 0.0
v 56.00000 113.33333 0.0
v 64.00000 107.66667 0.0
v 80.00000 119.00000 0.0
v 80.00000 113.33333 0.0
v 72.00000 107.66667 0.0
v 72.00000 113.33333 0.0
v 80.00000 107.66667 0.0
v 96.00000 119.00000 0.0
v 96.00000 113.33333 0.0
v 88.00000 107.66667 0.0
v 88.00000 113.33333 0.0
v 96.00000 107.66667 0.0
v 112.00000 119.00000 0.0
v 112.00000 113.33333 0.0
v 104.00000 107.66667 0.0
v 104.00000 113.33333 0.0
v 112.00000 107.66667 0.0
v 128.00000 119.00000 0.0
v 128.00000 113.33333 0.0
v 120.00000 107.66667 0.0
v 120.00000 113.33333 0.0
v 128.00000 107.66667 0.0
v 8.00000 136.00000 0.0
v 8.00000 130.33333 0.0
v 24.00000 136.00000 0.0
v 24.00000 130.33333 0.0
v 16.00000 124.66667 0.0
v 16.00000 130.33333 0.0
v 8.00000 124.66667 0.0
v 24.00000 124.66667 0.0
v 40.00000 136.00000 0.0
v 40.00000 130.33333 0.0
v 32.00000 124.66667 0.0
v 32.00000 130.33333 0.0
v 40.00000 124.66667 0.0
v 56.00000 136.00000 0.0
v 56.00000 130.33333 0.0
v 48.00000 124.66667 0.0
v 48.00000 130.33333 0.0
v 56.00000 124.66667 0.0
v 72.00000 136.00000 0.0
v 72.00000 130.33333 0.0
v 64.00000 124.66667 0.0
v 64.00000 130.33333 0.0
v 72.00000 124.66667 0.0
v 88.00000 136.00000 0.0
v 88.00000 130.33333 0.0
v 80.00000 124.66667 0.0
v 80.00000 130.33333 0.0
v 88.00000 124.66667 0.0
v 104.00000 136.00000 0.0
v 104.00000 130.33333 0.0
v 96.00000 124.66667 0.0
v 96.00000 130.33333 0.0
v 104.00000 124.66667 0.0
v 120.00000 136.00000 0.0
v 120.00000 130.33333 0.0
v 112.00000 124.66667 0.0
v 112.00000 130.33333 0.0
v 120.00000 124.66667 0.0
v 136.00000 136.00000 0.0
v 136.00000 130.33333 0.0
v 128.00000 124.66667 0.0
v 128.00000 130.33333 0.0
v 136.00000 124.66667 0.0
v 0.00000 153.00000 0.0
v 0.00000 147.33333 0.0
v 16.00000 153.00000 0.0
v 16.00000 147.33333 0.0
v 8.00000 141.66667 0.0
v 8.00000 147.33333 0.0
v 0.00000 141.66667 0.0
v 16.00000 141.66667 0.0
v 32.00000 153.00000 0.0
v 32.00000 147.33333 0.0
v 24.00000 141.66667 0.0
v 24.00000 147.33333 0.0
v 32.00000 141.66667 0.0
v 48.00000 153.00000 0.0
v 48.00000 147.33333 0.0
v 40.00000 141.66667 0.0
v 40.00000 147.33333 0.0
v 48.00000 141.66667 0.0
v 64.00000 153.00000 0.0
v 64.00000 147.33333 0.0
v 56.00000 141.66667 0.0
v 56.00000 147.33333 0.0
v 64.00000 141.66667 0.0
v 80.00000 153.00000 0.0
v 80.00000 147.33333 0.0
v 72.00000 141.66667 0.0
v 72.00000 147.33333 0.0
v 80.00000 141.66667 0.0
v 96.00000 153.00000 0.0
v 96.00000 147.33333 0.0
v 88.00000 141.66667 0.0
v 88.00000 147.33333 0.0
v 96.00000 141.66667 0.0
v 112.00000 153.00000 0.0
v 112.00000 147.33333 0.0
v 104.00000 141.66667 0.0
v 104.00000 147.33333 0.0
v 112.00000 141.66667 0.0
v 128.00000 153.00000 0.0
v 128.00000 147.33333 0.0
v 120.00000 141.66667 0.0
v 120.00000 147.33333 0.0
v 128.00000 141.66667 0.0
v 8.00000 170.00000 0.0
v 8.00000 164.33333 0.0
v 24.00000 170.00000 0.0
v 24.00000 164.33333 0.0
v 16.00000 158.66667 0.0
v 16.00000 164.33333 0.0
v 8.00000 158.66667 0.0
v 24.00000 158.66667 0.0
v 40.00000 170.00000 0.0
v 40.00000 164.33333 0.0
v 32.00000 158.66667 0.0
v 32.00000 164.33333 0.0
v 40.00000 158.66667 0.0
v 56.00000 170.00000 0.0
v 56.00000 164.33333 0.0
v 48.00000 158.66667 0.0
v 48.00000 164.33333 0.0
v 56.00000 158.66667 0.0
v 72.00000 170.00000 0.0
v 72.00000 164.33333 0.0
v 64.00000 158.66667 0.0
v 64.00000 164.33333 0.0
v 72.00000 158.66667 0.0
v 88.00000 170.00000 0.0
v 88.00000 164.33333 0.0
v 80.00000 158.66667 0.0
v 80.00000 164.33333 0.0
v 88.00000 158.66667 0.0
v 104.00000 170.00000 0.0
v 104.00000 164.33333 0.0
v 96.00000 158.66667 0.0
v 96.00000 164.33333 0.0
v 104.00000 158.66667 0.0
v 120.00000 170.00000 0.0
v 120.00000 164.33333 0.0
v 112.00000 158.66667 0.0
v 112.00000 164.33333 0.0
v 120.00000 158.66667 0.0
v 136.00000 170.00000 0.0
v 136.00000 164.33333 0.0
v 128.00000 158.66667 0.0
v 128.00000 164.33333 0.0
v 136.00000 158.66667 0.0
v 0.00000 0.00000 0.0
v 136.00000 0.00000 0.0
v 0.00000 170.00000 0.0
g mountain
l 1 2
l 3 4
l 2 5
l 4 5
l 5 6
l 3 4
l 10 11
l 4 12
l 11 12
l 12 13
l 10 11
l 16 17
l 11 18
l 17 18
l 18 19
l 16 17
l 22 23
l 17 24
l 23 24
l 24 25
l 22 23
l 28 29
l 23 30
l 29 30
l 30 31
l 28 29
l 34 35
l 29 36
l 35 36
l 36 37
l 34 35
l 40 41
l 35 42
l 41 42
l 42 43
l 40 41
l 46 47
l 41 48
l 47 48
l 48 49
l 52 53
l 54 55
l 53 56
l 55 56
l 56 3
l 54 55
l 60 61
l 55 62
l 61 62
l 62 10
l 60 61
l 65 66
l 61 67
l 66 67
l 67 16
l 65 66
l 70 71
l 66 72
l 71 72
l 72 22
l 70 71
l 75 76
l 71 77
l 76 77
l 77 28
l 75 76
l 80 81
l 76 82
l 81 82
l 82 34
l 80 81
l 85 86
l 81 87
l 86 87
l 87 40
l 85 86
l 90 91
l 86 92
l 91 92
l 92 46
l 95 96
l 97 98
l 96 99
l 98 99
l 99 52
l 97 98
l 103 104
l 98 105
l 104 105
l 105 54
l 103 104
l 108 109
l 104 110
l 109 110
l 110 60
l 108 109
l 113 114
l 109 115
l 114 115
l 115 65
l 113 114
l 118 119
l 114 120
l 119 120
l 120 70
l 118 119
l 123 124
l 119 125
l 124 125
l 125 75
l 123 124
l 128 129
l 124 130
l 129 130
l 130 80
l 128 129
l 133 134
l 129 135
l 134 135
l 135 85
l 138 139
l 140 141
l 139 142
l 141 142
l 142 97
l 140 141
l 146 147
l 141 148
l 147 148
l 148 103
l 146 147
l 151 152
l 147 153
l 152 153
l 153 108
l 151 152
l 156 157
l 152 158
l 157 158
l 158 113
l 156 157
l 161 162
l 157 163
l 162 163
l 163 118
l 161 162
l 166 167
l 162 168
l 167 168
l 168 123
l 166 167
l 171 172
l 167 173
l 172 173
l 173 128
l 171 172
l 176 177
l 172 178
l 177 178
l 178 133
l 181 182
l 183 184
l 182 185
l 184 185
l 185 138
l 183 184
l 189 190
l 184 191
l 190 191
l 191 140
l 189 190
l 194 195
l 190 196
l 195 196
l 196 146
l 194 195
l 199 200
l 195 201
l 200 201
l 201 151
l 199 200
l 204 205
l 200 206
l 205 206
l 206 156
l 204 205
l 209 210
l 205 211
l 210 211
l 211 161
l 209 210
l 214 215
l 210 216
l 215 216
l 216 166
l 214 215
l 219 220
l 215 221
l 220 221
l 221 171
l 224 225
l 226 227
l 225 228
l 227 228
l 228 183
l 226 227
l 232 233
l 227 234
l 233 234
l 234 189
l 232 233
l 237 238
l 233 239
l 238 239
l 239 194
l 237 238
l 242 243
l 238 244
l 243 244
l 244 199
l 242 243
l 247 248
l 243 249
l 248 249
l 249 204
l 247 248
l 252 253
l 248 254
l 253 254
l 254 209
l 252 253
l 257 258
l 253 259
l 258 259
l 259 214
l 257 258
l 262 263
l 258 264
l 263 264
l 264 219
l 267 268
l 269 270
l 268 271
l 270 271
l 271 224
l 269 270
l 275 276
l 270 277
l 276 277
l 277 226
l 275 276
l 280 281
l 276 282
l 281 282
l 282 232
l 280 281
l 285 286
l 281 287
l 286 287
l 287 237
l 285 286
l 290 291
l 286 292
l 291 292
l 292 242
l 290 291
l 295 296
l 291 297
l 296 297
l 297 247
l 295 296
l 300 301
l 296 302
l 301 302
l 302 252
l 300 301
l 305 306
l 301 307
l 306 307
l 307 257
l 310 311
l 312 313
l 311 314
l 313 314
l 314 269
l 312 313
l 318 319
l 313 320
l 319 320
l 320 275
l 318 319
l 323 324
l 319 325
l 324 325
l 325 280
l 323 324
l 328 329
l 324 330
l 329 330
l 330 285
l 328 329
l 333 334
l 329 335
l 334 335
l 335 290
l 333 334
l 338 339
l 334 340
l 339 340
l 340 295
l 338 339
l 343 344
l 339 345
l 344 345
l 345 300
l 343 344
l 348 349
l 344 350
l 349 350
l 350 305
l 353 354
l 355 356
l 354 357
l 356 357
l 357 310
l 355 356
l 361 362
l 356 363
l 362 363
l 363 312
l 361 362
l 366 367
l 362 368
l 367 368
l 368 318
l 366 367
l 371 372
l 367 373
l 372 373
l 373 323
l 371 372
l 376 377
l 372 378
l 377 378
l 378 328
l 376 377
l 381 382
l 377 383
l 382 383
l 383 333
l 381 382
l 386 387
l 382 388
l 387 388
l 388 338
l 386 387
l 391 392
l 387 393
l 392 393
l 393 343
l 396 397
l 398 399
l 397 400
l 399 400
l 400 355
l 398 399
l 404 405
l 399 406
l 405 406
l 406 361
l 404 405
l 409 410
l 405 411
l 410 411
l 411 366
l 409 410
l 414 415
l 410 416
l 415 416
l 416 371
l 414 415
l 419 420
l 415 421
l 420 421
l 421 376
l 419 420
l 424 425
l 420 426
l 425 426
l 426 381
l 424 425
l 429 430
l 425 431
l 430 431
l 431 386
l 429 430
l 434 435
l 430 436
l 435 436
l 436 391
g valley
l 1 7
l 3 7
l 2 8
l 4 9
l 7 5
l 8 6
l 9 6
l 3 14
l 10 14
l 4 9
l 11 15
l 14 12
l 9 13
l 15 13
l 10 20
l 16 20
l 11 15
l 17 21
l 20 18
l 15 19
l 21 19
l 16 26
l 22 26
l 17 21
l 23 27
l 26 24
l 21 25
l 27 25
l 22 32
l 28 32
l 23 27
l 29 33
l 32 30
l 27 31
l 33 31
l 28 38
l 34 38
l 29 33
l 35 39
l 38 36
l 33 37
l 39 37
l 34 44
l 40 44
l 35 39
l 41 45
l 44 42
l 39 43
l 45 43
l 40 50
l 46 50
l 41 45
l 47 51
l 50 48
l 45 49
l 51 49
l 52 57
l 54 57
l 53 58
l 55 59
l 57 56
l 58 3
l 59 3
l 54 63
l 60 63
l 55 59
l 61 64
l 63 62
l 59 10
l 64 10
l 60 68
l 65 68
l 61 64
l 66 69
l 68 67
l 64 16
l 69 16
l 65 73
l 70 73
l 66 69
l 71 74
l 73 72
l 69 22
l 74 22
l 70 78
l 75 78
l 71 74
l 76 79
l 78 77
l 74 28
l 79 28
l 75 83
l 80 83
l 76 79
l 81 84
l 83 82
l 79 34
l 84 34
l 80 88
l 85 88
l 81 84
l 86 89
l 88 87
l 84 40
l 89 40
l 85 93
l 90 93
l 86 89
l 91 94
l 93 92
l 89 46
l 94 46
l 95 100
l 97 100
l 96 101
l 98 102
l 100 99
l 101 52
l 102 52
l 97 106
l 103 106
l 98 102
l 104 107
l 106 105
l 102 54
l 107 54
l 103 111
l 108 111
l 104 107
l 109 112
l 111 110
l 107 60
l 112 60
l 108 116
l 113 116
l 109 112
l 114 117
l 116 115
l 112 65
l 117 65
l 113 121
l 118 121
l 114 117
l 119 122
l 121 120
l 117 70
l 122 70
l 118 126
l 123 126
l 119 122
l 124 127
l 126 125
l 122 75
l 127 75
l 123 131
l 128 131
l 124 127
l 129 132
l 131 130
l 127 80
l 132 80
l 128 136
l 133 136
l 129 132
l 134 137
l 136 135
l 132 85
l 137 85
l 138 143
l 140 143
l 139 144
l 141 145
l 143 142
l 144 97
l 145 97
l 140 149
l 146 149
l 141 145
l 147 150
l 149 148
l 145 103
l 150 103
l 146 154
l 151 154
l 147 150
l 152 155
l 154 153
l 150 108
l 155 108
l 151 159
l 156 159
l 152 155
l 157 160
l 159 158
l 155 113
l 160 113
l 156 164
l 161 164
l 157 160
l 162 165
l 164 163
l 160 118
l 165 118
l 161 169
l 166 169
l 162 165
l 167 170
l 169 168
l 165 123
l 170 123
l 166 174
l 171 174
l 167 170
l 172 175
l 174 173
l 170 128
l 175 128
l 171 179
l 176 179
l 172 175
l 177 180
l 179 178
l 175 133
l 180 133
l 181 186
l 183 186
l 182 187
l 184 188
l 186 185
l 187 138
l 188 138
l 183 192
l 189 192
l 184 188
l 190 193
l 192 191
l 188 140
l 193 140
l 189 197
l 194 197
l 190 193
l 195 198
l 197 196
l 193 146
l 198 146
l 194 202
l 199 202
l 195 198
l 200 203
l 202 201
l 198 151
l 203 151
l 199 207
l 204 207
l 200 203
l 205 208
l 207 206
l 203 156
l 208 156
l 204 212
l 209 212
l 205 208
l 210 213
l 212 211
l 208 161
l 213 161
l 209 217
l 214 217
l 210 213
l 215 218
l 217 216
l 213 166
l 218 166
l 214 222
l 219 222
l 215 218
l 220 223
l 222 221
l 218 171
l 223 171
l 224 229
l 226 229
l 225 230
l 227 231
l 229 228
l 230 183
l 231 183
l 226 235
l 232 235
l 227 231
l 233 236
l 235 234
l 231 189
l 236 189
l 232 240
l 237 240
l 233 236
l 238 241
l 240 239
l 236 194
l 241 194
l 237 245
l 242 245
l 238 241
l 243 246
l 245 244
l 241 199
l 246 199
l 242 250
l 247 250
l 243 246
l 248 251
l 250 249
l 246 204
l 251 204
l 247 255
l 252 255
l 248 251
l 253 256
l 255 254
l 251 209
l 256 209
l 252 260
l 257 260
l 253 256
l 258 261
l 260 259
l 256 214
l 261 214
l 257 265
l 262 265
l 258 261
l 263 266
l 265 264
l 261 219
l 266 219
l 267 272
l 269 272
l 268 273
l 270 274
l 272 271
l 273 224
l 274 224
l 269 278
l 275 278
l 270 274
l 276 279
l 278 277
l 274 226
l 279 226
l 275 283
l 280 283
l 276 279
l 281 284
l 283 282
l 279 232
l 284 232
l 280 288
l 285 288
l 281 284
l 286 289
l 288 287
l 284 237
l 289 237
l 285 293
l 290 293
l 286 289
l 291 294
l 293 292
l 289 242
l 294 242
l 290 298
l 295 298
l 291 294
l 296 299
l 298 297
l 294 247
l 299 247
l 295 303
l 300 303
l 296 299
l 301 304
l 303 302
l 299 252
l 304 252
l 300 308
l 305 308
l 301 304
l 306 309
l 308 307
l 304 257
l 309 257
l 310 315
l 312 315
l 311 316
l 313 317
l 315 314
l 316 269
l 317 269
l 312 321
l 318 321
l 313 317
l 319 322
l 321 320
l 317 275
l 322 275
l 318 326
l 323 326
l 319 322
l 324 327
l 326 325
l 322 280
l 327 280
l 323 331
l 328 331
l 324 327
l 329 332
l 331 330
l 327 285
l 332 285
l 328 336
l 333 336
l 329 332
l 334 337
l 336 335
l 332 290
l 337 290
l 333 341
l 338 341
l 334 337
l 339 342
l 341 340
l 337 295
l 342 295
l 338 346
l 343 346
l 339 342
l 344 347
l 346 345
l 342 300
l 347 300
l 343 351
l 348 351
l 344 347
l 349 352
l 351 350
l 347 305
l 352 305
l 353 358
l 355 358
l 354 359
l 356 360
l 358 357
l 359 310
l 360 310
l 355 364
l 361 364
l 356 360
l 362 365
l 364 363
l 360 312
l 365 312
l 361 369
l 366 369
l 362 365
l 367 370
l 369 368
l 365 318
l 370 318
l 366 374
l 371 374
l 367 370
l 372 375
l 374 373
l 370 323
l 375 323
l 371 379
l 376 379
l 372 375
l 377 380
l 379 378
l 375 328
l 380 328
l 376 384
l 381 384
l 377 380
l 382 385
l 384 383
l 380 333
l 385 333
l 381 389
l 386 389
l 382 385
l 387 390
l 389 388
l 385 338
l 390 338
l 386 394
l 391 394
l 387 390
l 392 395
l 394 393
l 390 343
l 395 343
l 396 401
l 398 401
l 397 402
l 399 403
l 401 400
l 402 355
l 403 355
l 398 407
l 404 407
l 399 403
l 405 408
l 407 406
l 403 361
l 408 361
l 404 412
l 409 412
l 405 408
l 410 413
l 412 411
l 408 366
l 413 366
l 409 417
l 414 417
l 410 413
l 415 418
l 417 416
l 413 371
l 418 371
l 414 422
l 419 422
l 415 418
l 420 423
l 422 421
l 418 376
l 423 376
l 419 427
l 424 427
l 420 423
l 425 428
l 427 426
l 423 381
l 428 381
l 424 432
l 429 432
l 425 428
l 430 433
l 432 431
l 428 386
l 433 386
l 429 437
l 434 437
l 430 433
l 435 438
l 437 436
l 433 391
l 438 391
g boundary
l 439 440
l 440 434
l 434 441
l 441 439
