# Bellows Diecut flat pattern: resch_tile
# width=120.000 height=170.000 (mm)
v 0.00000 10.00000 0.0
v 6.66667 10.00000 0.0
v 0.00000 5.00000 0.0
v 6.66667 5.00000 0.0
v 13.33333 10.00000 0.0
v 13.33333 5.00000 0.0
v 0.00000 0.00000 0.0
v 6.66667 0.00000 0.0
v 13.33333 0.00000 0.0
v 20.00000 5.00000 0.0
v 20.00000 0.00000 0.0
v 20.00000 10.00000 0.0
v 26.66667 10.00000 0.0
v 26.66667 5.00000 0.0
v 33.33333 10.00000 0.0
v 33.33333 5.00000 0.0
v 26.66667 0.00000 0.0
v 33.33333 0.00000 0.0
v 40.00000 5.00000 0.0
v 40.00000 0.00000 0.0
v 40.00000 10.00000 0.0
v 46.66667 10.00000 0.0
v 46.66667 5.00000 0.0
v 53.33333 10.00000 0.0
v 53.33333 5.00000 0.0
v 46.66667 0.00000 0.0
v 53.33333 0.00000 0.0
v 60.00000 5.00000 0.0
v 60.00000 0.00000 0.0
v 60.00000 10.00000 0.0
v 66.66667 10.00000 0.0
v 66.66667 5.00000 0.0
v 73.33333 10.00000 0.0
v 73.33333 5.00000 0.0
v 66.66667 0.00000 0.0
v 73.33333 0.00000 0.0
v 80.00000 5.00000 0.0
v 80.00000 0.00000 0.0
v 80.00000 10.00000 0.0
v 86.66667 10.00000 0.0
v 86.66667 5.00000 0.0
v 93.33333 10.00000 0.0
v 93.33333 5.00000 0.0
v 86.66667 0.00000 0.0
v 93.33333 0.00000 0.0
v 100.00000 5.00000 0.0
v 100.00000 0.00000 0.0
v 100.00000 10.00000 0.0
v 106.66667 10.00000 0.0
v 106.66667 5.00000 0.0
v 113.33333 10.00000 0.0
v 113.33333 5.00000 0.0
v 106.66667 0.00000 0.0
v 113.33333 0.00000 0.0
v 120.00000 5.00000 0.0
v 120.00000 0.00000 0.0
v 0.00000 20.00000 0.0
v 6.66667 20.00000 0.0
v 0.00000 15.00000 0.0
v 6.66667 15.00000 0.0
v 13.33333 20.00000 0.0
v 13.33333 15.00000 0.0
v 20.00000 15.00000 0.0
v 20.00000 20.00000 0.0
v 26.66667 20.00000 0.0
v 26.66667 15.00000 0.0
v 33.33333 20.00000 0.0
v 33.33333 15.00000 0.0
v 40.00000 15.00000 0.0
v 40.00000 20.00000 0.0
v 46.66667 20.00000 0.0
v 46.66667 15.00000 0.0
v 53.33333 20.00000 0.0
v 53.33333 15.00000 0.0
v 60.00000 15.00000 0.0
v 60.00000 20.00000 0.0
v 66.66667 20.00000 0.0
v 66.66667 15.00000 0.0
v 73.33333 20.00000 0.0
v 73.33333 15.00000 0.0
v 80.00000 15.00000 0.0
v 80.00000 20.00000 0.0
v 86.66667 20.00000 0.0
v 86.66667 15.00000 0.0
v 93.33333 20.00000 0.0
v 93.33333 15.00000 0.0
v 100.00000 15.00000 0.0
v 100.00000 20.00000 0.0
v 106.66667 20.00000 0.0
v 106.66667 15.00000 0.0
v 113.33333 20.00000 0.0
v 113.33333 15.00000 0.0
v 120.00000 15.00000 0.0
v 120.00000 10.00000 0.0
v 0.00000 30.00000 0.0
v 6.66667 30.00000 0.0
v 0.00000 25.00000 0.0
v 6.66667 25.00000 0.0
v 13.33333 30.00000 0.0
v 13.33333 25.00000 0.0
v 20.00000 25.00000 0.0
v 20.00000 30.00000 0.0
v 26.66667 30.00000 0.0
v 26.66667 25.00000 0.0
v 33.33333 30.00000 0.0
v 33.33333 25.00000 0.0
v 40.00000 25.00000 0.0
v 40.00000 30.00000 0.0
v 46.66667 30.00000 0.0
v 46.66667 25.00000 0.0
v 53.33333 30.00000 0.0
v 53.33333 25.00000 0.0
v 60.00000 25.00000 0.0
v 60.00000 30.00000 0.0
v 66.66667 30.00000 0.0
v 66.66667 25.00000 0.0
v 73.33333 30.00000 0.0
v 73.33333 25.00000 0.0
v 80.00000 25.00000 0.0
v 80.00000 30.00000 0.0
v 86.66667 30.00000 0.0
v 86.66667 25.00000 0.0
v 93.33333 30.00000 0.0
v 93.33333 25.00000 0.0
v 100.00000 25.00000 0.0
v 100.00000 30.00000 0.0
v 106.66667 30.00000 0.0
v 106.66667 25.00000 0.0
v 113.33333 30.00000 0.0
v 113.33333 25.00000 0.0
v 120.00000 25.00000 0.0
v 120.00000 20.00000 0.0
v 0.00000 40.00000 0.0
v 6.66667 40.00000 0.0
v 0.00000 35.00000 0.0
v 6.66667 35.00000 0.0
v 13.33333 40.00000 0.0
v 13.33333 35.00000 0.0
v 20.00000 35.00000 0.0
v 20.00000 40.00000 0.0
v 26.66667 40.00000 0.0
v 26.66667 35.00000 0.0
v 33.33333 40.00000 0.0
v 33.33333 35.00000 0.0
v 40.00000 35.00000 0.0
v 40.00000 40.00000 0.0
v 46.66667 40.00000 0.0
v 46.66667 35.00000 0.0
v 53.33333 40.00000 0.0
v 53.33333 35.00000 0.0
v 60.00000 35.00000 0.0
v 60.00000 40.00000 0.0
v 66.66667 40.00000 0.0
v 66.66667 35.00000 0.0
v 73.33333 40.00000 0.0
v 73.33333 35.00000 0.0
v 80.00000 35.00000 0.0
v 80.00000 40.00000 0.0
v 86.66667 40.00000 0.0
v 86.66667 35.00000 0.0
v 93.33333 40.00000 0.0
v 93.33333 35.00000 0.0
v 100.00000 35.00000 0.0
v 100.00000 40.00000 0.0
v 106.66667 40.00000 0.0
v 106.66667 35.00000 0.0
v 113.33333 40.00000 0.0
v 113.33333 35.00000 0.0
v 120.00000 35.00000 0.0
v 120.00000 30.00000 0.0
v 0.00000 50.00000 0.0
v 6.66667 50.00000 0.0
v 0.00000 45.00000 0.0
v 6.66667 45.00000 0.0
v 13.33333 50.00000 0.0
v 13.33333 45.00000 0.0
v 20.00000 45.00000 0.0
v 20.00000 50.00000 0.0
v 26.66667 50.00000 0.0
v 26.66667 45.00000 0.0
v 33.33333 50.00000 0.0
v 33.33333 45.00000 0.0
v 40.00000 45.00000 0.0
v 40.00000 50.00000 0.0
v 46.66667 50.00000 0.0
v 46.66667 45.00000 0.0
v 53.33333 50.00000 0.0
v 53.33333 45.00000 0.0
v 60.00000 45.00000 0.0
v 60.00000 50.00000 0.0
v 66.66667 50.00000 0.0
v 66.66667 45.00000 0.0
v 73.33333 50.00000 0.0
v 73.33333 45.00000 0.0
v 80.00000 45.00000 0.0
v 80.00000 50.00000 0.0
v 86.66667 50.00000 0.0
v 86.66667 45.00000 0.0
v 93.33333 50.00000 0.0
v 93.33333 45.00000 0.0
v 100.00000 45.00000 0.0
v 100.00000 50.00000 0.0
v 106.66667 50.00000 0.0
v 106.66667 45.00000 0.0
v 113.33333 50.00000 0.0
v 113.33333 45.00000 0.0
v 120.00000 45.00000 0.0
v 120.00000 40.00000 0.0
v 0.00000 60.00000 0.0
v 6.66667 60.00000 0.0
v 0.00000 55.00000 0.0
v 6.66667 55.00000 0.0
v 13.33333 60.00000 0.0
v 13.33333 55.00000 0.0
v 20.00000 55.00000 0.0
v 20.00000 60.00000 0.0
v 26.66667 60.00000 0.0
v 26.66667 55.00000 0.0
v 33.33333 60.00000 0.0
v 33.33333 55.00000 0.0
v 40.00000 55.00000 0.0
v 40.00000 60.00000 0.0
v 46.66667 60.00000 0.0
v 46.66667 55.00000 0.0
v 53.33333 60.00000 0.0
v 53.33333 55.00000 0.0
v 60.00000 55.00000 0.0
v 60.00000 60.00000 0.0
v 66.66667 60.00000 0.0
v 66.66667 55.00000 0.0
v 73.33333 60.00000 0.0
v 73.33333 55.00000 0.0
v 80.00000 55.00000 0.0
v 80.00000 60.00000 0.0
v 86.66667 60.00000 0.0
v 86.66667 55.00000 0.0
v 93.33333 60.00000 0.0
v 93.33333 55.00000 0.0
v 100.00000 55.00000 0.0
v 100.00000 60.00000 0.0
v 106.66667 60.00000 0.0
v 106.66667 55.00000 0.0
v 113.33333 60.00000 0.0
v 113.33333 55.00000 0.0
v 120.00000 55.00000 0.0
v 120.00000 50.00000 0.0
v 0.00000 70.00000 0.0
v 6.66667 70.00000 0.0
v 0.00000 65.00000 0.0
v 6.66667 65.00000 0.0
v 13.33333 70.00000 0.0
v 13.33333 65.00000 0.0
v 20.00000 65.00000 0.0
v 20.00000 70.00000 0.0
v 26.66667 70.00000 0.0
v 26.66667 65.00000 0.0
v 33.33333 70.00000 0.0
v 33.33333 65.00000 0.0
v 40.00000 65.00000 0.0
v 40.00000 70.00000 0.0
v 46.66667 70.00000 0.0
v 46.66667 65.00000 0.0
v 53.33333 70.00000 0.0
v 53.33333 65.00000 0.0
v 60.00000 65.00000 0.0
v 60.00000 70.00000 0.0
v 66.66667 70.00000 0.0
v 66.66667 65.00000 0.0
v 73.33333 70.00000 0.0
v 73.33333 65.00000 0.0
v 80.00000 65.00000 0.0
v 80.00000 70.00000 0.0
v 86.66667 70.00000 0.0
v 86.66667 65.00000 0.0
v 93.33333 70.00000 0.0
v 93.33333 65.00000 0.0
v 100.00000 65.00000 0.0
v 100.00000 70.00000 0.0
v 106.66667 70.00000 0.0
v 106.66667 65.00000 0.0
v 113.33333 70.00000 0.0
v 113.33333 65.00000 0.0
v 120.00000 65.00000 0.0
v 120.00000 60.00000 0.0
v 0.00000 80.00000 0.0
v 6.66667 80.00000 0.0
v 0.00000 75.00000 0.0
v 6.66667 75.00000 0.0
v 13.33333 80.00000 0.0
v 13.33333 75.00000 0.0
v 20.00000 75.00000 0.0
v 20.00000 80.00000 0.0
v 26.66667 80.00000 0.0
v 26.66667 75.00000 0.0
v 33.33333 80.00000 0.0
v 33.33333 75.00000 0.0
v 40.00000 75.00000 0.0
v 40.00000 80.00000 0.0
v 46.66667 80.00000 0.0
v 46.66667 75.00000 0.0
v 53.33333 80.00000 0.0
v 53.33333 75.00000 0.0
v 60.00000 75.00000 0.0
v 60.00000 80.00000 0.0
v 66.66667 80.00000 0.0
v 66.66667 75.00000 0.0
v 73.33333 80.00000 0.0
v 73.33333 75.00000 0.0
v 80.00000 75.00000 0.0
v 80.00000 80.00000 0.0
v 86.66667 80.00000 0.0
v 86.66667 75.00000 0.0
v 93.33333 80.00000 0.0
v 93.33333 75.00000 0.0
v 100.00000 75.00000 0.0
v 100.00000 80.00000 0.0
v 106.66667 80.00000 0.0
v 106.66667 75.00000 0.0
v 113.33333 80.00000 0.0
v 113.33333 75.00000 0.0
v 120.00000 75.00000 0.0
v 120.00000 70.00000 0.0
v 0.00000 90.00000 0.0
v 6.66667 90.00000 0.0
v 0.00000 85.00000 0.0
v 6.66667 85.00000 0.0
v 13.33333 90.00000 0.0
v 13.33333 85.00000 0.0
v 20.00000 85.00000 0.0
v 20.00000 90.00000 0.0
v 26.66667 90.00000 0.0
v 26.66667 85.00000 0.0
v 33.33333 90.00000 0.0
v 33.33333 85.00000 0.0
v 40.00000 85.00000 0.0
v 40.00000 90.00000 0.0
v 46.66667 90.00000 0.0
v 46.66667 85.00000 0.0
v 53.33333 90.00000 0.0
v 53.33333 85.00000 0.0
v 60.00000 85.00000 0.0
v 60.00000 90.00000 0.0
v 66.66667 90.00000 0.0
v 66.66667 85.00000 0.0
v 73.33333 90.00000 0.0
v 73.33333 85.00000 0.0
v 80.00000 85.00000 0.0
v 80.00000 90.00000 0.0
v 86.66667 90.00000 0.0
v 86.66667 85.00000 0.0
v 93.33333 90.00000 0.0
v 93.33333 85.00000 0.0
v 100.00000 85.00000 0.0
v 100.00000 90.00000 0.0
v 106.66667 90.00000 0.0
v 106.66667 85.00000 0.0
v 113.33333 90.00000 0.0
v 113.33333 85.00000 0.0
v 120.00000 85.00000 0.0
v 120.00000 80.00000 0.0
v 0.00000 100.00000 0.0
v 6.66667 100.00000 0.0
v 0.00000 95.00000 0.0
v 6.66667 95.00000 0.0
v 13.33333 100.00000 0.0
v 13.33333 95.00000 0.0
v 20.00000 95.00000 0.0
v 20.00000 100.00000 0.0
v 26.66667 100.00000 0.0
v 26.66667 95.00000 0.0
v 33.33333 100.00000 0.0
v 33.33333 95.00000 0.0
v 40.00000 95.00000 0.0
v 40.00000 100.00000 0.0
v 46.66667 100.00000 0.0
v 46.66667 95.00000 0.0
v 53.33333 100.00000 0.0
v 53.33333 95.00000 0.0
v 60.00000 95.00000 0.0
v 60.00000 100.00000 0.0
v 66.66667 100.00000 0.0
v 66.66667 95.00000 0.0
v 73.33333 100.00000 0.0
v 73.33333 95.00000 0.0
v 80.00000 95.00000 0.0
v 80.00000 100.00000 0.0
v 86.66667 100.00000 0.0
v 86.66667 95.00000 0.0
v 93.33333 100.00000 0.0
v 93.33333 95.00000 0.0
v 100.00000 95.00000 0.0
v 100.00000 100.00000 0.0
v 106.66667 100.00000 0.0
v 106.66667 95.00000 0.0
v 113.33333 100.00000 0.0
v 113.33333 95.00000 0.0
v 120.00000 95.00000 0.0
v 120.00000 90.00000 0.0
v 0.00000 110.00000 0.0
v 6.66667 110.00000 0.0
v 0.00000 105.00000 0.0
v 6.66667 105.00000 0.0
v 13.33333 110.00000 0.0
v 13.33333 105.00000 0.0
v 20.00000 105.00000 0.0
v 20.00000 110.00000 0.0
v 26.66667 110.00000 0.0
v 26.66667 105.00000 0.0
v 33.33333 110.00000 0.0
v 33.33333 105.00000 0.0
v 40.00000 105.00000 0.0
v 40.00000 110.00000 0.0
v 46.66667 110.00000 0.0
v 46.66667 105.00000 0.0
v 53.33333 110.00000 0.0
v 53.33333 105.00000 0.0
v 60.00000 105.00000 0.0
v 60.00000 110.00000 0.0
v 66.66667 110.00000 0.0
v 66.66667 105.00000 0.0
v 73.33333 110.00000 0.0
v 73.33333 105.00000 0.0
v 80.00000 105.00000 0.0
v 80.00000 110.00000 0.0
v 86.66667 110.00000 0.0
v 86.66667 105.00000 0.0
v 93.33333 110.00000 0.0
v 93.33333 105.00000 0.0
v 100.00000 105.00000 0.0
v 100.00000 110.00000 0.0
v 106.66667 110.00000 0.0
v 106.66667 105.00000 0.0
v 113.33333 110.00000 0.0
v 113.33333 105.00000 0.0
v 120.00000 105.00000 0.0
v 120.00000 100.00000 0.0
v 0.00000 120.00000 0.0
v 6.66667 120.00000 0.0
v 0.00000 115.00000 0.0
v 6.66667 115.00000 0.0
v 13.33333 120.00000 0.0
v 13.33333 115.00000 0.0
v 20.00000 115.00000 0.0
v 20.00000 120.00000 0.0
v 26.66667 120.00000 0.0
v 26.66667 115.00000 0.0
v 33.33333 120.00000 0.0
v 33.33333 115.00000 0.0
v 40.00000 115.00000 0.0
v 40.00000 120.00000 0.0
v 46.66667 120.00000 0.0
v 46.66667 115.00000 0.0
v 53.33333 120.00000 0.0
v 53.33333 115.00000 0.0
v 60.00000 115.00000 0.0
v 60.00000 120.00000 0.0
v 66.66667 120.00000 0.0
v 66.66667 115.00000 0.0
v 73.33333 120.00000 0.0
v 73.33333 115.00000 0.0
v 80.00000 115.00000 0.0
v 80.00000 120.00000 0.0
v 86.66667 120.00000 0.0
v 86.66667 115.00000 0.0
v 93.33333 120.00000 0.0
v 93.33333 115.00000 0.0
v 100.00000 115.00000 0.0
v 100.00000 120.00000 0.0
v 106.66667 120.00000 0.0
v 106.66667 115.00000 0.0
v 113.33333 120.00000 0.0
v 113.33333 115.00000 0.0
v 120.00000 115.00000 0.0
v 120.00000 110.00000 0.0
v 0.00000 130.00000 0.0
v 6.66667 130.00000 0.0
v 0.00000 125.00000 0.0
v 6.66667 125.00000 0.0
v 13.33333 130.00000 0.0
v 13.33333 125.00000 0.0
v 20.00000 125.00000 0.0
v 20.00000 130.00000 0.0
v 26.66667 130.00000 0.0
v 26.66667 125.00000 0.0
v 33.33333 130.00000 0.0
v 33.33333 125.00000 0.0
v 40.00000 125.00000 0.0
v 40.00000 130.00000 0.0
v 46.66667 130.00000 0.0
v 46.66667 125.00000 0.0
v 53.33333 130.00000 0.0
v 53.33333 125.00000 0.0
v 60.00000 125.00000 0.0
v 60.00000 130.00000 0.0
v 66.66667 130.00000 0.0
v 66.66667 125.00000 0.0
v 73.33333 130.00000 0.0
v 73.33333 125.00000 0.0
v 80.00000 125.00000 0.0
v 80.00000 130.00000 0.0
v 86.66667 130.00000 0.0
v 86.66667 125.00000 0.0
v 93.33333 130.00000 0.0
v 93.33333 125.00000 0.0
v 100.00000 125.00000 0.0
v 100.00000 130.00000 0.0
v 106.66667 130.00000 0.0
v 106.66667 125.00000 0.0
v 113.33333 130.00000 0.0
v 113.33333 125.00000 0.0
v 120.00000 125.00000 0.0
v 120.00000 120.00000 0.0
v 0.00000 140.00000 0.0
v 6.66667 140.00000 0.0
v 0.00000 135.00000 0.0
v 6.66667 135.00000 0.0
v 13.33333 140.00000 0.0
v 13.33333 135.00000 0.0
v 20.00000 135.00000 0.0
v 20.00000 140.00000 0.0
v 26.66667 140.00000 0.0
v 26.66667 135.00000 0.0
v 33.33333 140.00000 0.0
v 33.33333 135.00000 0.0
v 40.00000 135.00000 0.0
v 40.00000 140.00000 0.0
v 46.66667 140.00000 0.0
v 46.66667 135.00000 0.0
v 53.33333 140.00000 0.0
v 53.33333 135.00000 0.0
v 60.00000 135.00000 0.0
v 60.00000 140.00000 0.0
v 66.66667 140.00000 0.0
v 66.66667 135.00000 0.0
v 73.33333 140.00000 0.0
v 73.33333 135.00000 0.0
v 80.00000 135.00000 0.0
v 80.00000 140.00000 0.0
v 86.66667 140.00000 0.0
v 86.66667 135.00000 0.0
v 93.33333 140.00000 0.0
v 93.33333 135.00000 0.0
v 100.00000 135.00000 0.0
v 100.00000 140.00000 0.0
v 106.66667 140.00000 0.0
v 106.66667 135.00000 0.0
v 113.33333 140.00000 0.0
v 113.33333 135.00000 0.0
v 120.00000 135.00000 0.0
v 120.00000 130.00000 0.0
v 0.00000 150.00000 0.0
v 6.66667 150.00000 0.0
v 0.00000 145.00000 0.0
v 6.66667 145.00000 0.0
v 13.33333 150.00000 0.0
v 13.33333 145.00000 0.0
v 20.00000 145.00000 0.0
v 20.00000 150.00000 0.0
v 26.66667 150.00000 0.0
v 26.66667 145.00000 0.0
v 33.33333 150.00000 0.0
v 33.33333 145.00000 0.0
v 40.00000 145.00000 0.0
v 40.00000 150.00000 0.0
v 46.66667 150.00000 0.0
v 46.66667 145.00000 0.0
v 53.33333 150.00000 0.0
v 53.33333 145.00000 0.0
v 60.00000 145.00000 0.0
v 60.00000 150.00000 0.0
v 66.66667 150.00000 0.0
v 66.66667 145.00000 0.0
v 73.33333 150.00000 0.0
v 73.33333 145.00000 0.0
v 80.00000 145.00000 0.0
v 80.00000 150.00000 0.0
v 86.66667 150.00000 0.0
v 86.66667 145.00000 0.0
v 93.33333 150.00000 0.0
v 93.33333 145.00000 0.0
v 100.00000 145.00000 0.0
v 100.00000 150.00000 0.0
v 106.66667 150.00000 0.0
v 106.66667 145.00000 0.0
v 113.33333 150.00000 0.0
v 113.33333 145.00000 0.0
v 120.00000 145.00000 0.0
v 120.00000 140.00000 0.0
v 0.00000 160.00000 0.0
v 6.66667 160.00000 0.0
v 0.00000 155.00000 0.0
v 6.66667 155.00000 0.0
v 13.33333 160.00000 0.0
v 13.33333 155.00000 0.0
v 20.00000 155.00000 0.0
v 20.00000 160.00000 0.0
v 26.66667 160.00000 0.0
v 26.66667 155.00000 0.0
v 33.33333 160.00000 0.0
v 33.33333 155.00000 0.0
v 40.00000 155.00000 0.0
v 40.00000 160.00000 0.0
v 46.66667 160.00000 0.0
v 46.66667 155.00000 0.0
v 53.33333 160.00000 0.0
v 53.33333 155.00000 0.0
v 60.00000 155.00000 0.0
v 60.00000 160.00000 0.0
v 66.66667 160.00000 0.0
v 66.66667 155.00000 0.0
v 73.33333 160.00000 0.0
v 73.33333 155.00000 0.0
v 80.00000 155.00000 0.0
v 80.00000 160.00000 0.0
v 86.66667 160.00000 0.0
v 86.66667 155.00000 0.0
v 93.33333 160.00000 0.0
v 93.33333 155.00000 0.0
v 100.00000 155.00000 0.0
v 100.00000 160.00000 0.0
v 106.66667 160.00000 0.0
v 106.66667 155.00000 0.0
v 113.33333 160.00000 0.0
v 113.33333 155.00000 0.0
v 120.00000 155.00000 0.0
v 120.00000 150.00000 0.0
v 0.00000 170.00000 0.0
v 6.66667 170.00000 0.0
v 0.00000 165.00000 0.0
v 6.66667 165.00000 0.0
v 13.33333 170.00000 0.0
v 13.33333 165.00000 0.0
v 20.00000 165.00000 0.0
v 20.00000 170.00000 0.0
v 26.66667 170.00000 0.0
v 26.66667 165.00000 0.0
v 33.33333 170.00000 0.0
v 33.33333 165.00000 0.0
v 40.00000 165.00000 0.0
v 40.00000 170.00000 0.0
v 46.66667 170.00000 0.0
v 46.66667 165.00000 0.0
v 53.33333 170.00000 0.0
v 53.33333 165.00000 0.0
v 60.00000 165.00000 0.0
v 60.00000 170.00000 0.0
v 66.66667 170.00000 0.0
v 66.66667 165.00000 0.0
v 73.33333 170.00000 0.0
v 73.33333 165.00000 0.0
v 80.00000 165.00000 0.0
v 80.00000 170.00000 0.0
v 86.66667 170.00000 0.0
v 86.66667 165.00000 0.0
v 93.33333 170.00000 0.0
v 93.33333 165.00000 0.0
v 100.00000 165.00000 0.0
v 100.00000 170.00000 0.0
v 106.66667 170.00000 0.0
v 106.66667 165.00000 0.0
v 113.33333 170.00000 0.0
v 113.33333 165.00000 0.0
v 120.00000 165.00000 0.0
v 120.00000 160.00000 0.0
v 120.00000 170.00000 0.0
g mountain
l 1 2
l 1 3
l 3 4
l 2 4
l 2 5
l 5 6
l 4 6
l 3 7
l 7 8
l 4 8
l 8 9
l 6 9
l 6 10
l 10 11
l 9 11
l 12 13
l 12 10
l 10 14
l 13 14
l 13 15
l 15 16
l 14 16
l 10 11
l 11 17
l 14 17
l 17 18
l 16 18
l 16 19
l 19 20
l 18 20
l 21 22
l 21 19
l 19 23
l 22 23
l 22 24
l 24 25
l 23 25
l 19 20
l 20 26
l 23 26
l 26 27
l 25 27
l 25 28
l 28 29
l 27 29
l 30 31
l 30 28
l 28 32
l 31 32
l 31 33
l 33 34
l 32 34
l 28 29
l 29 35
l 32 35
l 35 36
l 34 36
l 34 37
l 37 38
l 36 38
l 39 40
l 39 37
l 37 41
l 40 41
l 40 42
l 42 43
l 41 43
l 37 38
l 38 44
l 41 44
l 44 45
l 43 45
l 43 46
l 46 47
l 45 47
l 48 49
l 48 46
l 46 50
l 49 50
l 49 51
l 51 52
l 50 52
l 46 47
l 47 53
l 50 53
l 53 54
l 52 54
l 52 55
l 55 56
l 54 56
l 57 58
l 57 59
l 59 60
l 58 60
l 58 61
l 61 62
l 60 62
l 59 1
l 1 2
l 60 2
l 2 5
l 62 5
l 62 63
l 63 12
l 5 12
l 64 65
l 64 63
l 63 66
l 65 66
l 65 67
l 67 68
l 66 68
l 63 12
l 12 13
l 66 13
l 13 15
l 68 15
l 68 69
l 69 21
l 15 21
l 70 71
l 70 69
l 69 72
l 71 72
l 71 73
l 73 74
l 72 74
l 69 21
l 21 22
l 72 22
l 22 24
l 74 24
l 74 75
l 75 30
l 24 30
l 76 77
l 76 75
l 75 78
l 77 78
l 77 79
l 79 80
l 78 80
l 75 30
l 30 31
l 78 31
l 31 33
l 80 33
l 80 81
l 81 39
l 33 39
l 82 83
l 82 81
l 81 84
l 83 84
l 83 85
l 85 86
l 84 86
l 81 39
l 39 40
l 84 40
l 40 42
l 86 42
l 86 87
l 87 48
l 42 48
l 88 89
l 88 87
l 87 90
l 89 90
l 89 91
l 91 92
l 90 92
l 87 48
l 48 49
l 90 49
l 49 51
l 92 51
l 92 93
l 93 94
l 51 94
l 95 96
l 95 97
l 97 98
l 96 98
l 96 99
l 99 100
l 98 100
l 97 57
l 57 58
l 98 58
l 58 61
l 100 61
l 100 101
l 101 64
l 61 64
l 102 103
l 102 101
l 101 104
l 103 104
l 103 105
l 105 106
l 104 106
l 101 64
l 64 65
l 104 65
l 65 67
l 106 67
l 106 107
l 107 70
l 67 70
l 108 109
l 108 107
l 107 110
l 109 110
l 109 111
l 111 112
l 110 112
l 107 70
l 70 71
l 110 71
l 71 73
l 112 73
l 112 113
l 113 76
l 73 76
l 114 115
l 114 113
l 113 116
l 115 116
l 115 117
l 117 118
l 116 118
l 113 76
l 76 77
l 116 77
l 77 79
l 118 79
l 118 119
l 119 82
l 79 82
l 120 121
l 120 119
l 119 122
l 121 122
l 121 123
l 123 124
l 122 124
l 119 82
l 82 83
l 122 83
l 83 85
l 124 85
l 124 125
l 125 88
l 85 88
l 126 127
l 126 125
l 125 128
l 127 128
l 127 129
l 129 130
l 128 130
l 125 88
l 88 89
l 128 89
l 89 91
l 130 91
l 130 131
l 131 132
l 91 132
l 133 134
l 133 135
l 135 136
l 134 136
l 134 137
l 137 138
l 136 138
l 135 95
l 95 96
l 136 96
l 96 99
l 138 99
l 138 139
l 139 102
l 99 102
l 140 141
l 140 139
l 139 142
l 141 142
l 141 143
l 143 144
l 142 144
l 139 102
l 102 103
l 142 103
l 103 105
l 144 105
l 144 145
l 145 108
l 105 108
l 146 147
l 146 145
l 145 148
l 147 148
l 147 149
l 149 150
l 148 150
l 145 108
l 108 109
l 148 109
l 109 111
l 150 111
l 150 151
l 151 114
l 111 114
l 152 153
l 152 151
l 151 154
l 153 154
l 153 155
l 155 156
l 154 156
l 151 114
l 114 115
l 154 115
l 115 117
l 156 117
l 156 157
l 157 120
l 117 120
l 158 159
l 158 157
l 157 160
l 159 160
l 159 161
l 161 162
l 160 162
l 157 120
l 120 121
l 160 121
l 121 123
l 162 123
l 162 163
l 163 126
l 123 126
l 164 165
l 164 163
l 163 166
l 165 166
l 165 167
l 167 168
l 166 168
l 163 126
l 126 127
l 166 127
l 127 129
l 168 129
l 168 169
l 169 170
l 129 170
l 171 172
l 171 173
l 173 174
l 172 174
l 172 175
l 175 176
l 174 176
l 173 133
l 133 134
l 174 134
l 134 137
l 176 137
l 176 177
l 177 140
l 137 140
l 178 179
l 178 177
l 177 180
l 179 180
l 179 181
l 181 182
l 180 182
l 177 140
l 140 141
l 180 141
l 141 143
l 182 143
l 182 183
l 183 146
l 143 146
l 184 185
l 184 183
l 183 186
l 185 186
l 185 187
l 187 188
l 186 188
l 183 146
l 146 147
l 186 147
l 147 149
l 188 149
l 188 189
l 189 152
l 149 152
l 190 191
l 190 189
l 189 192
l 191 192
l 191 193
l 193 194
l 192 194
l 189 152
l 152 153
l 192 153
l 153 155
l 194 155
l 194 195
l 195 158
l 155 158
l 196 197
l 196 195
l 195 198
l 197 198
l 197 199
l 199 200
l 198 200
l 195 158
l 158 159
l 198 159
l 159 161
l 200 161
l 200 201
l 201 164
l 161 164
l 202 203
l 202 201
l 201 204
l 203 204
l 203 205
l 205 206
l 204 206
l 201 164
l 164 165
l 204 165
l 165 167
l 206 167
l 206 207
l 207 208
l 167 208
l 209 210
l 209 211
l 211 212
l 210 212
l 210 213
l 213 214
l 212 214
l 211 171
l 171 172
l 212 172
l 172 175
l 214 175
l 214 215
l 215 178
l 175 178
l 216 217
l 216 215
l 215 218
l 217 218
l 217 219
l 219 220
l 218 220
l 215 178
l 178 179
l 218 179
l 179 181
l 220 181
l 220 221
l 221 184
l 181 184
l 222 223
l 222 221
l 221 224
l 223 224
l 223 225
l 225 226
l 224 226
l 221 184
l 184 185
l 224 185
l 185 187
l 226 187
l 226 227
l 227 190
l 187 190
l 228 229
l 228 227
l 227 230
l 229 230
l 229 231
l 231 232
l 230 232
l 227 190
l 190 191
l 230 191
l 191 193
l 232 193
l 232 233
l 233 196
l 193 196
l 234 235
l 234 233
l 233 236
l 235 236
l 235 237
l 237 238
l 236 238
l 233 196
l 196 197
l 236 197
l 197 199
l 238 199
l 238 239
l 239 202
l 199 202
l 240 241
l 240 239
l 239 242
l 241 242
l 241 243
l 243 244
l 242 244
l 239 202
l 202 203
l 242 203
l 203 205
l 244 205
l 244 245
l 245 246
l 205 246
l 247 248
l 247 249
l 249 250
l 248 250
l 248 251
l 251 252
l 250 252
l 249 209
l 209 210
l 250 210
l 210 213
l 252 213
l 252 253
l 253 216
l 213 216
l 254 255
l 254 253
l 253 256
l 255 256
l 255 257
l 257 258
l 256 258
l 253 216
l 216 217
l 256 217
l 217 219
l 258 219
l 258 259
l 259 222
l 219 222
l 260 261
l 260 259
l 259 262
l 261 262
l 261 263
l 263 264
l 262 264
l 259 222
l 222 223
l 262 223
l 223 225
l 264 225
l 264 265
l 265 228
l 225 228
l 266 267
l 266 265
l 265 268
l 267 268
l 267 269
l 269 270
l 268 270
l 265 228
l 228 229
l 268 229
l 229 231
l 270 231
l 270 271
l 271 234
l 231 234
l 272 273
l 272 271
l 271 274
l 273 274
l 273 275
l 275 276
l 274 276
l 271 234
l 234 235
l 274 235
l 235 237
l 276 237
l 276 277
l 277 240
l 237 240
l 278 279
l 278 277
l 277 280
l 279 280
l 279 281
l 281 282
l 280 282
l 277 240
l 240 241
l 280 241
l 241 243
l 282 243
l 282 283
l 283 284
l 243 284
l 285 286
l 285 287
l 287 288
l 286 288
l 286 289
l 289 290
l 288 290
l 287 247
l 247 248
l 288 248
l 248 251
l 290 251
l 290 291
l 291 254
l 251 254
l 292 293
l 292 291
l 291 294
l 293 294
l 293 295
l 295 296
l 294 296
l 291 254
l 254 255
l 294 255
l 255 257
l 296 257
l 296 297
l 297 260
l 257 260
l 298 299
l 298 297
l 297 300
l 299 300
l 299 301
l 301 302
l 300 302
l 297 260
l 260 261
l 300 261
l 261 263
l 302 263
l 302 303
l 303 266
l 263 266
l 304 305
l 304 303
l 303 306
l 305 306
l 305 307
l 307 308
l 306 308
l 303 266
l 266 267
l 306 267
l 267 269
l 308 269
l 308 309
l 309 272
l 269 272
l 310 311
l 310 309
l 309 312
l 311 312
l 311 313
l 313 314
l 312 314
l 309 272
l 272 273
l 312 273
l 273 275
l 314 275
l 314 315
l 315 278
l 275 278
l 316 317
l 316 315
l 315 318
l 317 318
l 317 319
l 319 320
l 318 320
l 315 278
l 278 279
l 318 279
l 279 281
l 320 281
l 320 321
l 321 322
l 281 322
l 323 324
l 323 325
l 325 326
l 324 326
l 324 327
l 327 328
l 326 328
l 325 285
l 285 286
l 326 286
l 286 289
l 328 289
l 328 329
l 329 292
l 289 292
l 330 331
l 330 329
l 329 332
l 331 332
l 331 333
l 333 334
l 332 334
l 329 292
l 292 293
l 332 293
l 293 295
l 334 295
l 334 335
l 335 298
l 295 298
l 336 337
l 336 335
l 335 338
l 337 338
l 337 339
l 339 340
l 338 340
l 335 298
l 298 299
l 338 299
l 299 301
l 340 301
l 340 341
l 341 304
l 301 304
l 342 343
l 342 341
l 341 344
l 343 344
l 343 345
l 345 346
l 344 346
l 341 304
l 304 305
l 344 305
l 305 307
l 346 307
l 346 347
l 347 310
l 307 310
l 348 349
l 348 347
l 347 350
l 349 350
l 349 351
l 351 352
l 350 352
l 347 310
l 310 311
l 350 311
l 311 313
l 352 313
l 352 353
l 353 316
l 313 316
l 354 355
l 354 353
l 353 356
l 355 356
l 355 357
l 357 358
l 356 358
l 353 316
l 316 317
l 356 317
l 317 319
l 358 319
l 358 359
l 359 360
l 319 360
l 361 362
l 361 363
l 363 364
l 362 364
l 362 365
l 365 366
l 364 366
l 363 323
l 323 324
l 364 324
l 324 327
l 366 327
l 366 367
l 367 330
l 327 330
l 368 369
l 368 367
l 367 370
l 369 370
l 369 371
l 371 372
l 370 372
l 367 330
l 330 331
l 370 331
l 331 333
l 372 333
l 372 373
l 373 336
l 333 336
l 374 375
l 374 373
l 373 376
l 375 376
l 375 377
l 377 378
l 376 378
l 373 336
l 336 337
l 376 337
l 337 339
l 378 339
l 378 379
l 379 342
l 339 342
l 380 381
l 380 379
l 379 382
l 381 382
l 381 383
l 383 384
l 382 384
l 379 342
l 342 343
l 382 343
l 343 345
l 384 345
l 384 385
l 385 348
l 345 348
l 386 387
l 386 385
l 385 388
l 387 388
l 387 389
l 389 390
l 388 390
l 385 348
l 348 349
l 388 349
l 349 351
l 390 351
l 390 391
l 391 354
l 351 354
l 392 393
l 392 391
l 391 394
l 393 394
l 393 395
l 395 396
l 394 396
l 391 354
l 354 355
l 394 355
l 355 357
l 396 357
l 396 397
l 397 398
l 357 398
l 399 400
l 399 401
l 401 402
l 400 402
l 400 403
l 403 404
l 402 404
l 401 361
l 361 362
l 402 362
l 362 365
l 404 365
l 404 405
l 405 368
l 365 368
l 406 407
l 406 405
l 405 408
l 407 408
l 407 409
l 409 410
l 408 410
l 405 368
l 368 369
l 408 369
l 369 371
l 410 371
l 410 411
l 411 374
l 371 374
l 412 413
l 412 411
l 411 414
l 413 414
l 413 415
l 415 416
l 414 416
l 411 374
l 374 375
l 414 375
l 375 377
l 416 377
l 416 417
l 417 380
l 377 380
l 418 419
l 418 417
l 417 420
l 419 420
l 419 421
l 421 422
l 420 422
l 417 380
l 380 381
l 420 381
l 381 383
l 422 383
l 422 423
l 423 386
l 383 386
l 424 425
l 424 423
l 423 426
l 425 426
l 425 427
l 427 428
l 426 428
l 423 386
l 386 387
l 426 387
l 387 389
l 428 389
l 428 429
l 429 392
l 389 392
l 430 431
l 430 429
l 429 432
l 431 432
l 431 433
l 433 434
l 432 434
l 429 392
l 392 393
l 432 393
l 393 395
l 434 395
l 434 435
l 435 436
l 395 436
l 437 438
l 437 439
l 439 440
l 438 440
l 438 441
l 441 442
l 440 442
l 439 399
l 399 400
l 440 400
l 400 403
l 442 403
l 442 443
l 443 406
l 403 406
l 444 445
l 444 443
l 443 446
l 445 446
l 445 447
l 447 448
l 446 448
l 443 406
l 406 407
l 446 407
l 407 409
l 448 409
l 448 449
l 449 412
l 409 412
l 450 451
l 450 449
l 449 452
l 451 452
l 451 453
l 453 454
l 452 454
l 449 412
l 412 413
l 452 413
l 413 415
l 454 415
l 454 455
l 455 418
l 415 418
l 456 457
l 456 455
l 455 458
l 457 458
l 457 459
l 459 460
l 458 460
l 455 418
l 418 419
l 458 419
l 419 421
l 460 421
l 460 461
l 461 424
l 421 424
l 462 463
l 462 461
l 461 464
l 463 464
l 463 465
l 465 466
l 464 466
l 461 424
l 424 425
l 464 425
l 425 427
l 466 427
l 466 467
l 467 430
l 427 430
l 468 469
l 468 467
l 467 470
l 469 470
l 469 471
l 471 472
l 470 472
l 467 430
l 430 431
l 470 431
l 431 433
l 472 433
l 472 473
l 473 474
l 433 474
l 475 476
l 475 477
l 477 478
l 476 478
l 476 479
l 479 480
l 478 480
l 477 437
l 437 438
l 478 438
l 438 441
l 480 441
l 480 481
l 481 444
l 441 444
l 482 483
l 482 481
l 481 484
l 483 484
l 483 485
l 485 486
l 484 486
l 481 444
l 444 445
l 484 445
l 445 447
l 486 447
l 486 487
l 487 450
l 447 450
l 488 489
l 488 487
l 487 490
l 489 490
l 489 491
l 491 492
l 490 492
l 487 450
l 450 451
l 490 451
l 451 453
l 492 453
l 492 493
l 493 456
l 453 456
l 494 495
l 494 493
l 493 496
l 495 496
l 495 497
l 497 498
l 496 498
l 493 456
l 456 457
l 496 457
l 457 459
l 498 459
l 498 499
l 499 462
l 459 462
l 500 501
l 500 499
l 499 502
l 501 502
l 501 503
l 503 504
l 502 504
l 499 462
l 462 463
l 502 463
l 463 465
l 504 465
l 504 505
l 505 468
l 465 468
l 506 507
l 506 505
l 505 508
l 507 508
l 507 509
l 509 510
l 508 510
l 505 468
l 468 469
l 508 469
l 469 471
l 510 471
l 510 511
l 511 512
l 471 512
l 513 514
l 513 515
l 515 516
l 514 516
l 514 517
l 517 518
l 516 518
l 515 475
l 475 476
l 516 476
l 476 479
l 518 479
l 518 519
l 519 482
l 479 482
l 520 521
l 520 519
l 519 522
l 521 522
l 521 523
l 523 524
l 522 524
l 519 482
l 482 483
l 522 483
l 483 485
l 524 485
l 524 525
l 525 488
l 485 488
l 526 527
l 526 525
l 525 528
l 527 528
l 527 529
l 529 530
l 528 530
l 525 488
l 488 489
l 528 489
l 489 491
l 530 491
l 530 531
l 531 494
l 491 494
l 532 533
l 532 531
l 531 534
l 533 534
l 533 535
l 535 536
l 534 536
l 531 494
l 494 495
l 534 495
l 495 497
l 536 497
l 536 537
l 537 500
l 497 500
l 538 539
l 538 537
l 537 540
l 539 540
l 539 541
l 541 542
l 540 542
l 537 500
l 500 501
l 540 501
l 501 503
l 542 503
l 542 543
l 543 506
l 503 506
l 544 545
l 544 543
l 543 546
l 545 546
l 545 547
l 547 548
l 546 548
l 543 506
l 506 507
l 546 507
l 507 509
l 548 509
l 548 549
l 549 550
l 509 550
l 551 552
l 551 553
l 553 554
l 552 554
l 552 555
l 555 556
l 554 556
l 553 513
l 513 514
l 554 514
l 514 517
l 556 517
l 556 557
l 557 520
l 517 520
l 558 559
l 558 557
l 557 560
l 559 560
l 559 561
l 561 562
l 560 562
l 557 520
l 520 521
l 560 521
l 521 523
l 562 523
l 562 563
l 563 526
l 523 526
l 564 565
l 564 563
l 563 566
l 565 566
l 565 567
l 567 568
l 566 568
l 563 526
l 526 527
l 566 527
l 527 529
l 568 529
l 568 569
l 569 532
l 529 532
l 570 571
l 570 569
l 569 572
l 571 572
l 571 573
l 573 574
l 572 574
l 569 532
l 532 533
l 572 533
l 533 535
l 574 535
l 574 575
l 575 538
l 535 538
l 576 577
l 576 575
l 575 578
l 577 578
l 577 579
l 579 580
l 578 580
l 575 538
l 538 539
l 578 539
l 539 541
l 580 541
l 580 581
l 581 544
l 541 544
l 582 583
l 582 581
l 581 584
l 583 584
l 583 585
l 585 586
l 584 586
l 581 544
l 544 545
l 584 545
l 545 547
l 586 547
l 586 587
l 587 588
l 547 588
l 589 590
l 589 591
l 591 592
l 590 592
l 590 593
l 593 594
l 592 594
l 591 551
l 551 552
l 592 552
l 552 555
l 594 555
l 594 595
l 595 558
l 555 558
l 596 597
l 596 595
l 595 598
l 597 598
l 597 599
l 599 600
l 598 600
l 595 558
l 558 559
l 598 559
l 559 561
l 600 561
l 600 601
l 601 564
l 561 564
l 602 603
l 602 601
l 601 604
l 603 604
l 603 605
l 605 606
l 604 606
l 601 564
l 564 565
l 604 565
l 565 567
l 606 567
l 606 607
l 607 570
l 567 570
l 608 609
l 608 607
l 607 610
l 609 610
l 609 611
l 611 612
l 610 612
l 607 570
l 570 571
l 610 571
l 571 573
l 612 573
l 612 613
l 613 576
l 573 576
l 614 615
l 614 613
l 613 616
l 615 616
l 615 617
l 617 618
l 616 618
l 613 576
l 576 577
l 616 577
l 577 579
l 618 579
l 618 619
l 619 582
l 579 582
l 620 621
l 620 619
l 619 622
l 621 622
l 621 623
l 623 624
l 622 624
l 619 582
l 582 583
l 622 583
l 583 585
l 624 585
l 624 625
l 625 626
l 585 626
l 627 628
l 627 629
l 629 630
l 628 630
l 628 631
l 631 632
l 630 632
l 629 589
l 589 590
l 630 590
l 590 593
l 632 593
l 632 633
l 633 596
l 593 596
l 634 635
l 634 633
l 633 636
l 635 636
l 635 637
l 637 638
l 636 638
l 633 596
l 596 597
l 636 597
l 597 599
l 638 599
l 638 639
l 639 602
l 599 602
l 640 641
l 640 639
l 639 642
l 641 642
l 641 643
l 643 644
l 642 644
l 639 602
l 602 603
l 642 603
l 603 605
l 644 605
l 644 645
l 645 608
l 605 608
l 646 647
l 646 645
l 645 648
l 647 648
l 647 649
l 649 650
l 648 650
l 645 608
l 608 609
l 648 609
l 609 611
l 650 611
l 650 651
l 651 614
l 611 614
l 652 653
l 652 651
l 651 654
l 653 654
l 653 655
l 655 656
l 654 656
l 651 614
l 614 615
l 654 615
l 615 617
l 656 617
l 656 657
l 657 620
l 617 620
l 658 659
l 658 657
l 657 660
l 659 660
l 659 661
l 661 662
l 660 662
l 657 620
l 620 621
l 660 621
l 621 623
l 662 623
l 662 663
l 663 664
l 623 664
g valley
l 1 9
l 5 7
l 12 18
l 15 11
l 21 27
l 24 20
l 30 36
l 33 29
l 39 45
l 42 38
l 48 54
l 51 47
l 57 5
l 61 1
l 64 15
l 67 12
l 70 24
l 73 21
l 76 33
l 79 30
l 82 42
l 85 39
l 88 51
l 91 48
l 95 61
l 99 57
l 102 67
l 105 64
l 108 73
l 111 70
l 114 79
l 117 76
l 120 85
l 123 82
l 126 91
l 129 88
l 133 99
l 137 95
l 140 105
l 143 102
l 146 111
l 149 108
l 152 117
l 155 114
l 158 123
l 161 120
l 164 129
l 167 126
l 171 137
l 175 133
l 178 143
l 181 140
l 184 149
l 187 146
l 190 155
l 193 152
l 196 161
l 199 158
l 202 167
l 205 164
l 209 175
l 213 171
l 216 181
l 219 178
l 222 187
l 225 184
l 228 193
l 231 190
l 234 199
l 237 196
l 240 205
l 243 202
l 247 213
l 251 209
l 254 219
l 257 216
l 260 225
l 263 222
l 266 231
l 269 228
l 272 237
l 275 234
l 278 243
l 281 240
l 285 251
l 289 247
l 292 257
l 295 254
l 298 263
l 301 260
l 304 269
l 307 266
l 310 275
l 313 272
l 316 281
l 319 278
l 323 289
l 327 285
l 330 295
l 333 292
l 336 301
l 339 298
l 342 307
l 345 304
l 348 313
l 351 310
l 354 319
l 357 316
l 361 327
l 365 323
l 368 333
l 371 330
l 374 339
l 377 336
l 380 345
l 383 342
l 386 351
l 389 348
l 392 357
l 395 354
l 399 365
l 403 361
l 406 371
l 409 368
l 412 377
l 415 374
l 418 383
l 421 380
l 424 389
l 427 386
l 430 395
l 433 392
l 437 403
l 441 399
l 444 409
l 447 406
l 450 415
l 453 412
l 456 421
l 459 418
l 462 427
l 465 424
l 468 433
l 471 430
l 475 441
l 479 437
l 482 447
l 485 444
l 488 453
l 491 450
l 494 459
l 497 456
l 500 465
l 503 462
l 506 471
l 509 468
l 513 479
l 517 475
l 520 485
l 523 482
l 526 491
l 529 488
l 532 497
l 535 494
l 538 503
l 541 500
l 544 509
l 547 506
l 551 517
l 555 513
l 558 523
l 561 520
l 564 529
l 567 526
l 570 535
l 573 532
l 576 541
l 579 538
l 582 547
l 585 544
l 589 555
l 593 551
l 596 561
l 599 558
l 602 567
l 605 564
l 608 573
l 611 570
l 614 579
l 617 576
l 620 585
l 623 582
l 627 593
l 631 589
l 634 599
l 637 596
l 640 605
l 643 602
l 646 611
l 649 608
l 652 617
l 655 614
l 658 623
l 661 620
g boundary
l 7 56
l 56 665
l 665 627
l 627 7
