# Bellows Diecut flat pattern: waterbomb_tile
# width=128.000 height=165.000 (mm)
v 0.00000 15.00000 0.0
v 16.00000 0.00000 0.0
v 16.00000 15.00000 0.0
v 0.00000 0.00000 0.0
v 8.00000 10.00000 0.0
v 8.00000 5.00000 0.0
v 32.00000 0.00000 0.0
v 32.00000 15.00000 0.0
v 24.00000 10.00000 0.0
v 24.00000 5.00000 0.0
v 48.00000 0.00000 0.0
v 48.00000 15.00000 0.0
v 40.00000 10.00000 0.0
v 40.00000 5.00000 0.0
v 64.00000 0.00000 0.0
v 64.00000 15.00000 0.0
v 56.00000 10.00000 0.0
v 56.00000 5.00000 0.0
v 80.00000 0.00000 0.0
v 80.00000 15.00000 0.0
v 72.00000 10.00000 0.0
v 72.00000 5.00000 0.0
v 96.00000 0.00000 0.0
v 96.00000 15.00000 0.0
v 88.00000 10.00000 0.0
v 88.00000 5.00000 0.0
v 112.00000 0.00000 0.0
v 112.00000 15.00000 0.0
v 104.00000 10.00000 0.0
v 104.00000 5.00000 0.0
v 128.00000 0.00000 0.0
v 128.00000 15.00000 0.0
v 120.00000 10.00000 0.0
v 120.00000 5.00000 0.0
v 0.00000 30.00000 0.0
v 16.00000 30.00000 0.0
v 8.00000 25.00000 0.0
v 8.00000 20.00000 0.0
v 32.00000 30.00000 0.0
v 24.00000 25.00000 0.0
v 24.00000 20.00000 0.0
v 48.00000 30.00000 0.0
v 40.00000 25.00000 0.0
v 40.00000 20.00000 0.0
v 64.00000 30.00000 0.0
v 56.00000 25.00000 0.0
v 56.00000 20.00000 0.0
v 80.00000 30.00000 0.0
v 72.00000 25.00000 0.0
v 72.00000 20.00000 0.0
v 96.00000 30.00000 0.0
v 88.00000 25.00000 0.0
v 88.00000 20.00000 0.0
v 112.00000 30.00000 0.0
v 104.00000 25.00000 0.0
v 104.00000 20.00000 0.0
v 128.00000 30.00000 0.0
v 120.00000 25.00000 0.0
v 120.00000 20.00000 0.0
v 0.00000 45.00000 0.0
v 16.00000 45.00000 0.0
v 8.00000 40.00000 0.0
v 8.00000 35.00000 0.0
v 32.00000 45.00000 0.0
v 24.00000 40.00000 0.0
v 24.00000 35.00000 0.0
v 48.00000 45.00000 0.0
v 40.00000 40.00000 0.0
v 40.00000 35.00000 0.0
v 64.00000 45.00000 0.0
v 56.00000 40.00000 0.0
v 56.00000 35.00000 0.0
v 80.00000 45.00000 0.0
v 72.00000 40.00000 0.0
v 72.00000 35.00000 0.0
v 96.00000 45.00000 0.0
v 88.00000 40.00000 0.0
v 88.00000 35.00000 0.0
v 112.00000 45.00000 0.0
v 104.00000 40.00000 0.0
v 104.00000 35.00000 0.0
v 128.00000 45.00000 0.0
v 120.00000 40.00000 0.0
v 120.00000 35.00000 0.0
v 0.00000 60.00000 0.0
v 16.00000 60.00000 0.0
v 8.00000 55.00000 0.0
v 8.00000 50.00000 0.0
v 32.00000 60.00000 0.0
v 24.00000 55.00000 0.0
v 24.00000 50.00000 0.0
v 48.00000 60.00000 0.0
v 40.00000 55.00000 0.0
v 40.00000 50.00000 0.0
v 64.00000 60.00000 0.0
v 56.00000 55.00000 0.0
v 56.00000 50.00000 0.0
v 80.00000 60.00000 0.0
v 72.00000 55.00000 0.0
v 72.00000 50.00000 0.0
v 96.00000 60.00000 0.0
v 88.00000 55.00000 0.0
v 88.00000 50.00000 0.0
v 112.00000 60.00000 0.0
v 104.00000 55.00000 0.0
v 104.00000 50.00000 0.0
v 128.00000 60.00000 0.0
v 120.00000 55.00000 0.0
v 120.00000 50.00000 0.0
v 0.00000 75.00000 0.0
v 16.00000 75.00000 0.0
v 8.00000 70.00000 0.0
v 8.00000 65.00000 0.0
v 32.00000 75.00000 0.0
v 24.00000 70.00000 0.0
v 24.00000 65.00000 0.0
v 48.00000 75.00000 0.0
v 40.00000 70.00000 0.0
v 40.00000 65.00000 0.0
v 64.00000 75.00000 0.0
v 56.00000 70.00000 0.0
v 56.00000 65.00000 0.0
v 80.00000 75.00000 0.0
v 72.00000 70.00000 0.0
v 72.00000 65.00000 0.0
v 96.00000 75.00000 0.0
v 88.00000 70.00000 0.0
v 88.00000 65.00000 0.0
v 112.00000 75.00000 0.0
v 104.00000 70.00000 0.0
v 104.00000 65.00000 0.0
v 128.00000 75.00000 0.0
v 120.00000 70.00000 0.0
v 120.00000 65.00000 0.0
v 0.00000 90.00000 0.0
v 16.00000 90.00000 0.0
v 8.00000 85.00000 0.0
v 8.00000 80.00000 0.0
v 32.00000 90.00000 0.0
v 24.00000 85.00000 0.0
v 24.00000 80.00000 0.0
v 48.00000 90.00000 0.0
v 40.00000 85.00000 0.0
v 40.00000 80.00000 0.0
v 64.00000 90.00000 0.0
v 56.00000 85.00000 0.0
v 56.00000 80.00000 0.0
v 80.00000 90.00000 0.0
v 72.00000 85.00000 0.0
v 72.00000 80.00000 0.0
v 96.00000 90.00000 0.0
v 88.00000 85.00000 0.0
v 88.00000 80.00000 0.0
v 112.00000 90.00000 0.0
v 104.00000 85.00000 0.0
v 104.00000 80.00000 0.0
v 128.00000 90.00000 0.0
v 120.00000 85.00000 0.0
v 120.00000 80.00000 0.0
v 0.00000 105.00000 0.0
v 16.00000 105.00000 0.0
v 8.00000 100.00000 0.0
v 8.00000 95.00000 0.0
v 32.00000 105.00000 0.0
v 24.00000 100.00000 0.0
v 24.00000 95.00000 0.0
v 48.00000 105.00000 0.0
v 40.00000 100.00000 0.0
v 40.00000 95.00000 0.0
v 64.00000 105.00000 0.0
v 56.00000 100.00000 0.0
v 56.00000 95.00000 0.0
v 80.00000 105.00000 0.0
v 72.00000 100.00000 0.0
v 72.00000 95.00000 0.0
v 96.00000 105.00000 0.0
v 88.00000 100.00000 0.0
v 88.00000 95.00000 0.0
v 112.00000 105.00000 0.0
v 104.00000 100.00000 0.0
v 104.00000 95.00000 0.0
v 128.00000 105.00000 0.0
v 120.00000 100.00000 0.0
v 120.00000 95.00000 0.0
v 0.00000 120.00000 0.0
v 16.00000 120.00000 0.0
v 8.00000 115.00000 0.0
v 8.00000 110.00000 0.0
v 32.00000 120.00000 0.0
v 24.00000 115.00000 0.0
v 24.00000 110.00000 0.0
v 48.00000 120.00000 0.0
v 40.00000 115.00000 0.0
v 40.00000 110.00000 0.0
v 64.00000 120.00000 0.0
v 56.00000 115.00000 0.0
v 56.00000 110.00000 0.0
v 80.00000 120.00000 0.0
v 72.00000 115.00000 0.0
v 72.00000 110.00000 0.0
v 96.00000 120.00000 0.0
v 88.00000 115.00000 0.0
v 88.00000 110.00000 0.0
v 112.00000 120.00000 0.0
v 104.00000 115.00000 0.0
v 104.00000 110.00000 0.0
v 128.00000 120.00000 0.0
v 120.00000 115.00000 0.0
v 120.00000 110.00000 0.0
v 0.00000 135.00000 0.0
v 16.00000 135.00000 0.0
v 8.00000 130.00000 0.0
v 8.00000 125.00000 0.0
v 32.00000 135.00000 0.0
v 24.00000 130.00000 0.0
v 24.00000 125.00000 0.0
v 48.00000 135.00000 0.0
v 40.00000 130.00000 0.0
v 40.00000 125.00000 0.0
v 64.00000 135.00000 0.0
v 56.00000 130.00000 0.0
v 56.00000 125.00000 0.0
v 80.00000 135.00000 0.0
v 72.00000 130.00000 0.0
v 72.00000 125.00000 0.0
v 96.00000 135.00000 0.0
v 88.00000 130.00000 0.0
v 88.00000 125.00000 0.0
v 112.00000 135.00000 0.0
v 104.00000 130.00000 0.0
v 104.00000 125.00000 0.0
v 128.00000 135.00000 0.0
v 120.00000 130.00000 0.0
v 120.00000 125.00000 0.0
v 0.00000 150.00000 0.0
v 16.00000 150.00000 0.0
v 8.00000 145.00000 0.0
v 8.00000 140.00000 0.0
v 32.00000 150.00000 0.0
v 24.00000 145.00000 0.0
v 24.00000 140.00000 0.0
v 48.00000 150.00000 0.0
v 40.00000 145.00000 0.0
v 40.00000 140.00000 0.0
v 64.00000 150.00000 0.0
v 56.00000 145.00000 0.0
v 56.00000 140.00000 0.0
v 80.00000 150.00000 0.0
v 72.00000 145.00000 0.0
v 72.00000 140.00000 0.0
v 96.00000 150.00000 0.0
v 88.00000 145.00000 0.0
v 88.00000 140.00000 0.0
v 112.00000 150.00000 0.0
v 104.00000 145.00000 0.0
v 104.00000 140.00000 0.0
v 128.00000 150.00000 0.0
v 120.00000 145.00000 0.0
v 120.00000 140.00000 0.0
v 0.00000 165.00000 0.0
v 16.00000 165.00000 0.0
v 8.00000 160.00000 0.0
v 8.00000 155.00000 0.0
v 32.00000 165.00000 0.0
v 24.00000 160.00000 0.0
v 24.00000 155.00000 0.0
v 48.00000 165.00000 0.0
v 40.00000 160.00000 0.0
v 40.00000 155.00000 0.0
v 64.00000 165.00000 0.0
v 56.00000 160.00000 0.0
v 56.00000 155.00000 0.0
v 80.00000 165.00000 0.0
v 72.00000 160.00000 0.0
v 72.00000 155.00000 0.0
v 96.00000 165.00000 0.0
v 88.00000 160.00000 0.0
v 88.00000 155.00000 0.0
v 112.00000 165.00000 0.0
v 104.00000 160.00000 0.0
v 104.00000 155.00000 0.0
v 128.00000 165.00000 0.0
v 120.00000 160.00000 0.0
v 120.00000 155.00000 0.0
g mountain
l 1 2
l 3 4
l 3 7
l 8 2
l 8 11
l 12 7
l 12 15
l 16 11
l 16 19
l 20 15
l 20 23
l 24 19
l 24 27
l 28 23
l 28 31
l 32 27
l 35 3
l 36 1
l 36 8
l 39 3
l 39 12
l 42 8
l 42 16
l 45 12
l 45 20
l 48 16
l 48 24
l 51 20
l 51 28
l 54 24
l 54 32
l 57 28
l 60 36
l 61 35
l 61 39
l 64 36
l 64 42
l 67 39
l 67 45
l 70 42
l 70 48
l 73 45
l 73 51
l 76 48
l 76 54
l 79 51
l 79 57
l 82 54
l 85 61
l 86 60
l 86 64
l 89 61
l 89 67
l 92 64
l 92 70
l 95 67
l 95 73
l 98 70
l 98 76
l 101 73
l 101 79
l 104 76
l 104 82
l 107 79
l 110 86
l 111 85
l 111 89
l 114 86
l 114 92
l 117 89
l 117 95
l 120 92
l 120 98
l 123 95
l 123 101
l 126 98
l 126 104
l 129 101
l 129 107
l 132 104
l 135 111
l 136 110
l 136 114
l 139 111
l 139 117
l 142 114
l 142 120
l 145 117
l 145 123
l 148 120
l 148 126
l 151 123
l 151 129
l 154 126
l 154 132
l 157 129
l 160 136
l 161 135
l 161 139
l 164 136
l 164 142
l 167 139
l 167 145
l 170 142
l 170 148
l 173 145
l 173 151
l 176 148
l 176 154
l 179 151
l 179 157
l 182 154
l 185 161
l 186 160
l 186 164
l 189 161
l 189 167
l 192 164
l 192 170
l 195 167
l 195 173
l 198 170
l 198 176
l 201 173
l 201 179
l 204 176
l 204 182
l 207 179
l 210 186
l 211 185
l 211 189
l 214 186
l 214 192
l 217 189
l 217 195
l 220 192
l 220 198
l 223 195
l 223 201
l 226 198
l 226 204
l 229 201
l 229 207
l 232 204
l 235 211
l 236 210
l 236 214
l 239 211
l 239 217
l 242 214
l 242 220
l 245 217
l 245 223
l 248 220
l 248 226
l 251 223
l 251 229
l 254 226
l 254 232
l 257 229
l 260 236
l 261 235
l 261 239
l 264 236
l 264 242
l 267 239
l 267 245
l 270 242
l 270 248
l 273 245
l 273 251
l 276 248
l 276 254
l 279 251
l 279 257
l 282 254
g valley
l 1 5
l 1 4
l 4 6
l 5 6
l 3 5
l 3 2
l 2 6
l 3 9
l 3 2
l 2 10
l 9 10
l 8 9
l 8 7
l 7 10
l 8 13
l 8 7
l 7 14
l 13 14
l 12 13
l 12 11
l 11 14
l 12 17
l 12 11
l 11 18
l 17 18
l 16 17
l 16 15
l 15 18
l 16 21
l 16 15
l 15 22
l 21 22
l 20 21
l 20 19
l 19 22
l 20 25
l 20 19
l 19 26
l 25 26
l 24 25
l 24 23
l 23 26
l 24 29
l 24 23
l 23 30
l 29 30
l 28 29
l 28 27
l 27 30
l 28 33
l 28 27
l 27 34
l 33 34
l 32 33
l 32 31
l 31 34
l 35 37
l 35 1
l 1 38
l 37 38
l 36 37
l 36 3
l 3 38
l 36 40
l 36 3
l 3 41
l 40 41
l 39 40
l 39 8
l 8 41
l 39 43
l 39 8
l 8 44
l 43 44
l 42 43
l 42 12
l 12 44
l 42 46
l 42 12
l 12 47
l 46 47
l 45 46
l 45 16
l 16 47
l 45 49
l 45 16
l 16 50
l 49 50
l 48 49
l 48 20
l 20 50
l 48 52
l 48 20
l 20 53
l 52 53
l 51 52
l 51 24
l 24 53
l 51 55
l 51 24
l 24 56
l 55 56
l 54 55
l 54 28
l 28 56
l 54 58
l 54 28
l 28 59
l 58 59
l 57 58
l 57 32
l 32 59
l 60 62
l 60 35
l 35 63
l 62 63
l 61 62
l 61 36
l 36 63
l 61 65
l 61 36
l 36 66
l 65 66
l 64 65
l 64 39
l 39 66
l 64 68
l 64 39
l 39 69
l 68 69
l 67 68
l 67 42
l 42 69
l 67 71
l 67 42
l 42 72
l 71 72
l 70 71
l 70 45
l 45 72
l 70 74
l 70 45
l 45 75
l 74 75
l 73 74
l 73 48
l 48 75
l 73 77
l 73 48
l 48 78
l 77 78
l 76 77
l 76 51
l 51 78
l 76 80
l 76 51
l 51 81
l 80 81
l 79 80
l 79 54
l 54 81
l 79 83
l 79 54
l 54 84
l 83 84
l 82 83
l 82 57
l 57 84
l 85 87
l 85 60
l 60 88
l 87 88
l 86 87
l 86 61
l 61 88
l 86 90
l 86 61
l 61 91
l 90 91
l 89 90
l 89 64
l 64 91
l 89 93
l 89 64
l 64 94
l 93 94
l 92 93
l 92 67
l 67 94
l 92 96
l 92 67
l 67 97
l 96 97
l 95 96
l 95 70
l 70 97
l 95 99
l 95 70
l 70 100
l 99 100
l 98 99
l 98 73
l 73 100
l 98 102
l 98 73
l 73 103
l 102 103
l 101 102
l 101 76
l 76 103
l 101 105
l 101 76
l 76 106
l 105 106
l 104 105
l 104 79
l 79 106
l 104 108
l 104 79
l 79 109
l 108 109
l 107 108
l 107 82
l 82 109
l 110 112
l 110 85
l 85 113
l 112 113
l 111 112
l 111 86
l 86 113
l 111 115
l 111 86
l 86 116
l 115 116
l 114 115
l 114 89
l 89 116
l 114 118
l 114 89
l 89 119
l 118 119
l 117 118
l 117 92
l 92 119
l 117 121
l 117 92
l 92 122
l 121 122
l 120 121
l 120 95
l 95 122
l 120 124
l 120 95
l 95 125
l 124 125
l 123 124
l 123 98
l 98 125
l 123 127
l 123 98
l 98 128
l 127 128
l 126 127
l 126 101
l 101 128
l 126 130
l 126 101
l 101 131
l 130 131
l 129 130
l 129 104
l 104 131
l 129 133
l 129 104
l 104 134
l 133 134
l 132 133
l 132 107
l 107 134
l 135 137
l 135 110
l 110 138
l 137 138
l 136 137
l 136 111
l 111 138
l 136 140
l 136 111
l 111 141
l 140 141
l 139 140
l 139 114
l 114 141
l 139 143
l 139 114
l 114 144
l 143 144
l 142 143
l 142 117
l 117 144
l 142 146
l 142 117
l 117 147
l 146 147
l 145 146
l 145 120
l 120 147
l 145 149
l 145 120
l 120 150
l 149 150
l 148 149
l 148 123
l 123 150
l 148 152
l 148 123
l 123 153
l 152 153
l 151 152
l 151 126
l 126 153
l 151 155
l 151 126
l 126 156
l 155 156
l 154 155
l 154 129
l 129 156
l 154 158
l 154 129
l 129 159
l 158 159
l 157 158
l 157 132
l 132 159
l 160 162
l 160 135
l 135 163
l 162 163
l 161 162
l 161 136
l 136 163
l 161 165
l 161 136
l 136 166
l 165 166
l 164 165
l 164 139
l 139 166
l 164 168
l 164 139
l 139 169
l 168 169
l 167 168
l 167 142
l 142 169
l 167 171
l 167 142
l 142 172
l 171 172
l 170 171
l 170 145
l 145 172
l 170 174
l 170 145
l 145 175
l 174 175
l 173 174
l 173 148
l 148 175
l 173 177
l 173 148
l 148 178
l 177 178
l 176 177
l 176 151
l 151 178
l 176 180
l 176 151
l 151 181
l 180 181
l 179 180
l 179 154
l 154 181
l 179 183
l 179 154
l 154 184
l 183 184
l 182 183
l 182 157
l 157 184
l 185 187
l 185 160
l 160 188
l 187 188
l 186 187
l 186 161
l 161 188
l 186 190
l 186 161
l 161 191
l 190 191
l 189 190
l 189 164
l 164 191
l 189 193
l 189 164
l 164 194
l 193 194
l 192 193
l 192 167
l 167 194
l 192 196
l 192 167
l 167 197
l 196 197
l 195 196
l 195 170
l 170 197
l 195 199
l 195 170
l 170 200
l 199 200
l 198 199
l 198 173
l 173 200
l 198 202
l 198 173
l 173 203
l 202 203
l 201 202
l 201 176
l 176 203
l 201 205
l 201 176
l 176 206
l 205 206
l 204 205
l 204 179
l 179 206
l 204 208
l 204 179
l 179 209
l 208 209
l 207 208
l 207 182
l 182 209
l 210 212
l 210 185
l 185 213
l 212 213
l 211 212
l 211 186
l 186 213
l 211 215
l 211 186
l 186 216
l 215 216
l 214 215
l 214 189
l 189 216
l 214 218
l 214 189
l 189 219
l 218 219
l 217 218
l 217 192
l 192 219
l 217 221
l 217 192
l 192 222
l 221 222
l 220 221
l 220 195
l 195 222
l 220 224
l 220 195
l 195 225
l 224 225
l 223 224
l 223 198
l 198 225
l 223 227
l 223 198
l 198 228
l 227 228
l 226 227
l 226 201
l 201 228
l 226 230
l 226 201
l 201 231
l 230 231
l 229 230
l 229 204
l 204 231
l 229 233
l 229 204
l 204 234
l 233 234
l 232 233
l 232 207
l 207 234
l 235 237
l 235 210
l 210 238
l 237 238
l 236 237
l 236 211
l 211 238
l 236 240
l 236 211
l 211 241
l 240 241
l 239 240
l 239 214
l 214 241
l 239 243
l 239 214
l 214 244
l 243 244
l 242 243
l 242 217
l 217 244
l 242 246
l 242 217
l 217 247
l 246 247
l 245 246
l 245 220
l 220 247
l 245 249
l 245 220
l 220 250
l 249 250
l 248 249
l 248 223
l 223 250
l 248 252
l 248 223
l 223 253
l 252 253
l 251 252
l 251 226
l 226 253
l 251 255
l 251 226
l 226 256
l 255 256
l 254 255
l 254 229
l 229 256
l 254 258
l 254 229
l 229 259
l 258 259
l 257 258
l 257 232
l 232 259
l 260 262
l 260 235
l 235 263
l 262 263
l 261 262
l 261 236
l 236 263
l 261 265
l 261 236
l 236 266
l 265 266
l 264 265
l 264 239
l 239 266
l 264 268
l 264 239
l 239 269
l 268 269
l 267 268
l 267 242
l 242 269
l 267 271
l 267 242
l 242 272
l 271 272
l 270 271
l 270 245
l 245 272
l 270 274
l 270 245
l 245 275
l 274 275
l 273 274
l 273 248
l 248 275
l 273 277
l 273 248
l 248 278
l 277 278
l 276 277
l 276 251
l 251 278
l 276 280
l 276 251
l 251 281
l 280 281
l 279 280
l 279 254
l 254 281
l 279 283
l 279 254
l 254 284
l 283 284
l 282 283
l 282 257
l 257 284
g boundary
l 4 31
l 31 282
l 282 260
l 260 4
