# Bellows Diecut foldcore die
v -25.00000 -25.00000 0.00000
v -15.00000 -25.00000 0.00000
v -5.00000 -25.00000 0.00000
v 5.00000 -25.00000 0.00000
v 15.00000 -25.00000 0.00000
v 25.00000 -25.00000 0.00000
v -25.00000 -24.16667 3.40000
v -15.00000 -24.16667 3.40000
v -5.00000 -24.16667 3.40000
v 5.00000 -24.16667 3.40000
v 15.00000 -24.16667 3.40000
v 25.00000 -24.16667 3.40000
v -25.00000 -23.33333 4.00000
v -15.00000 -23.33333 4.00000
v -5.00000 -23.33333 4.00000
v 5.00000 -23.33333 4.00000
v 15.00000 -23.33333 4.00000
v 25.00000 -23.33333 4.00000
v -25.00000 -22.50000 4.00000
v -15.00000 -22.50000 4.00000
v -5.00000 -22.50000 4.00000
v 5.00000 -22.50000 4.00000
v 15.00000 -22.50000 4.00000
v 25.00000 -22.50000 4.00000
v -25.00000 -21.66667 4.00000
v -15.00000 -21.66667 4.00000
v -5.00000 -21.66667 4.00000
v 5.00000 -21.66667 4.00000
v 15.00000 -21.66667 4.00000
v 25.00000 -21.66667 4.00000
v -25.00000 -20.83333 3.40000
v -15.00000 -20.83333 3.40000
v -5.00000 -20.83333 3.40000
v 5.00000 -20.83333 3.40000
v 15.00000 -20.83333 3.40000
v 25.00000 -20.83333 3.40000
v -25.00000 -20.00000 0.00000
v -15.00000 -20.00000 0.00000
v -5.00000 -20.00000 0.00000
v 5.00000 -20.00000 0.00000
v 15.00000 -20.00000 0.00000
v 25.00000 -20.00000 0.00000
v -25.00000 -19.16667 -3.40000
v -15.00000 -19.16667 -3.40000
v -5.00000 -19.16667 -3.40000
v 5.00000 -19.16667 -3.40000
v 15.00000 -19.16667 -3.40000
v 25.00000 -19.16667 -3.40000
v -25.00000 -18.33333 -4.00000
v -15.00000 -18.33333 -4.00000
v -5.00000 -18.33333 -4.00000
v 5.00000 -18.33333 -4.00000
v 15.00000 -18.33333 -4.00000
v 25.00000 -18.33333 -4.00000
v -25.00000 -17.50000 -4.00000
v -15.00000 -17.50000 -4.00000
v -5.00000 -17.50000 -4.00000
v 5.00000 -17.50000 -4.00000
v 15.00000 -17.50000 -4.00000
v 25.00000 -17.50000 -4.00000
v -25.00000 -16.66667 -4.00000
v -15.00000 -16.66667 -4.00000
v -5.00000 -16.66667 -4.00000
v 5.00000 -16.66667 -4.00000
v 15.00000 -16.66667 -4.00000
v 25.00000 -16.66667 -4.00000
v -25.00000 -15.83333 -3.40000
v -15.00000 -15.83333 -3.40000
v -5.00000 -15.83333 -3.40000
v 5.00000 -15.83333 -3.40000
v 15.00000 -15.83333 -3.40000
v 25.00000 -15.83333 -3.40000
v -25.00000 -15.00000 -0.00000
v -15.00000 -15.00000 -0.00000
v -5.00000 -15.00000 -0.00000
v 5.00000 -15.00000 -0.00000
v 15.00000 -15.00000 -0.00000
v 25.00000 -15.00000 -0.00000
v -25.00000 -14.16667 3.40000
v -15.00000 -14.16667 3.40000
v -5.00000 -14.16667 3.40000
v 5.00000 -14.16667 3.40000
v 15.00000 -14.16667 3.40000
v 25.00000 -14.16667 3.40000
v -25.00000 -13.33333 4.00000
v -15.00000 -13.33333 4.00000
v -5.00000 -13.33333 4.00000
v 5.00000 -13.33333 4.00000
v 15.00000 -13.33333 4.00000
v 25.00000 -13.33333 4.00000
v -25.00000 -12.50000 4.00000
v -15.00000 -12.50000 4.00000
v -5.00000 -12.50000 4.00000
v 5.00000 -12.50000 4.00000
v 15.00000 -12.50000 4.00000
v 25.00000 -12.50000 4.00000
v -25.00000 -11.66667 4.00000
v -15.00000 -11.66667 4.00000
v -5.00000 -11.66667 4.00000
v 5.00000 -11.66667 4.00000
v 15.00000 -11.66667 4.00000
v 25.00000 -11.66667 4.00000
v -25.00000 -10.83333 3.40000
v -15.00000 -10.83333 3.40000
v -5.00000 -10.83333 3.40000
v 5.00000 -10.83333 3.40000
v 15.00000 -10.83333 3.40000
v 25.00000 -10.83333 3.40000
v -25.00000 -10.00000 0.00000
v -15.00000 -10.00000 0.00000
v -5.00000 -10.00000 0.00000
v 5.00000 -10.00000 0.00000
v 15.00000 -10.00000 0.00000
v 25.00000 -10.00000 0.00000
v -25.00000 -9.16667 -3.40000
v -15.00000 -9.16667 -3.40000
v -5.00000 -9.16667 -3.40000
v 5.00000 -9.16667 -3.40000
v 15.00000 -9.16667 -3.40000
v 25.00000 -9.16667 -3.40000
v -25.00000 -8.33333 -4.00000
v -15.00000 -8.33333 -4.00000
v -5.00000 -8.33333 -4.00000
v 5.00000 -8.33333 -4.00000
v 15.00000 -8.33333 -4.00000
v 25.00000 -8.33333 -4.00000
v -25.00000 -7.50000 -4.00000
v -15.00000 -7.50000 -4.00000
v -5.00000 -7.50000 -4.00000
v 5.00000 -7.50000 -4.00000
v 15.00000 -7.50000 -4.00000
v 25.00000 -7.50000 -4.00000
v -25.00000 -6.66667 -4.00000
v -15.00000 -6.66667 -4.00000
v -5.00000 -6.66667 -4.00000
v 5.00000 -6.66667 -4.00000
v 15.00000 -6.66667 -4.00000
v 25.00000 -6.66667 -4.00000
v -25.00000 -5.83333 -3.40000
v -15.00000 -5.83333 -3.40000
v -5.00000 -5.83333 -3.40000
v 5.00000 -5.83333 -3.40000
v 15.00000 -5.83333 -3.40000
v 25.00000 -5.83333 -3.40000
v -25.00000 -5.00000 -0.00000
v -15.00000 -5.00000 -0.00000
v -5.00000 -5.00000 -0.00000
v 5.00000 -5.00000 -0.00000
v 15.00000 -5.00000 -0.00000
v 25.00000 -5.00000 -0.00000
v -25.00000 -4.16667 3.40000
v -15.00000 -4.16667 3.40000
v -5.00000 -4.16667 3.40000
v 5.00000 -4.16667 3.40000
v 15.00000 -4.16667 3.40000
v 25.00000 -4.16667 3.40000
v -25.00000 -3.33333 4.00000
v -15.00000 -3.33333 4.00000
v -5.00000 -3.33333 4.00000
v 5.00000 -3.33333 4.00000
v 15.00000 -3.33333 4.00000
v 25.00000 -3.33333 4.00000
v -25.00000 -2.50000 4.00000
v -15.00000 -2.50000 4.00000
v -5.00000 -2.50000 4.00000
v 5.00000 -2.50000 4.00000
v 15.00000 -2.50000 4.00000
v 25.00000 -2.50000 4.00000
v -25.00000 -1.66667 4.00000
v -15.00000 -1.66667 4.00000
v -5.00000 -1.66667 4.00000
v 5.00000 -1.66667 4.00000
v 15.00000 -1.66667 4.00000
v 25.00000 -1.66667 4.00000
v -25.00000 -0.83333 3.40000
v -15.00000 -0.83333 3.40000
v -5.00000 -0.83333 3.40000
v 5.00000 -0.83333 3.40000
v 15.00000 -0.83333 3.40000
v 25.00000 -0.83333 3.40000
v -25.00000 0.00000 0.00000
v -15.00000 0.00000 0.00000
v -5.00000 0.00000 0.00000
v 5.00000 0.00000 0.00000
v 15.00000 0.00000 0.00000
v 25.00000 0.00000 0.00000
v -25.00000 0.83333 -3.40000
v -15.00000 0.83333 -3.40000
v -5.00000 0.83333 -3.40000
v 5.00000 0.83333 -3.40000
v 15.00000 0.83333 -3.40000
v 25.00000 0.83333 -3.40000
v -25.00000 1.66667 -4.00000
v -15.00000 1.66667 -4.00000
v -5.00000 1.66667 -4.00000
v 5.00000 1.66667 -4.00000
v 15.00000 1.66667 -4.00000
v 25.00000 1.66667 -4.00000
v -25.00000 2.50000 -4.00000
v -15.00000 2.50000 -4.00000
v -5.00000 2.50000 -4.00000
v 5.00000 2.50000 -4.00000
v 15.00000 2.50000 -4.00000
v 25.00000 2.50000 -4.00000
v -25.00000 3.33333 -4.00000
v -15.00000 3.33333 -4.00000
v -5.00000 3.33333 -4.00000
v 5.00000 3.33333 -4.00000
v 15.00000 3.33333 -4.00000
v 25.00000 3.33333 -4.00000
v -25.00000 4.16667 -3.40000
v -15.00000 4.16667 -3.40000
v -5.00000 4.16667 -3.40000
v 5.00000 4.16667 -3.40000
v 15.00000 4.16667 -3.40000
v 25.00000 4.16667 -3.40000
v -25.00000 5.00000 -0.00000
v -15.00000 5.00000 -0.00000
v -5.00000 5.00000 -0.00000
v 5.00000 5.00000 -0.00000
v 15.00000 5.00000 -0.00000
v 25.00000 5.00000 -0.00000
v -25.00000 5.83333 3.40000
v -15.00000 5.83333 3.40000
v -5.00000 5.83333 3.40000
v 5.00000 5.83333 3.40000
v 15.00000 5.83333 3.40000
v 25.00000 5.83333 3.40000
v -25.00000 6.66667 4.00000
v -15.00000 6.66667 4.00000
v -5.00000 6.66667 4.00000
v 5.00000 6.66667 4.00000
v 15.00000 6.66667 4.00000
v 25.00000 6.66667 4.00000
v -25.00000 7.50000 4.00000
v -15.00000 7.50000 4.00000
v -5.00000 7.50000 4.00000
v 5.00000 7.50000 4.00000
v 15.00000 7.50000 4.00000
v 25.00000 7.50000 4.00000
v -25.00000 8.33333 4.00000
v -15.00000 8.33333 4.00000
v -5.00000 8.33333 4.00000
v 5.00000 8.33333 4.00000
v 15.00000 8.33333 4.00000
v 25.00000 8.33333 4.00000
v -25.00000 9.16667 3.40000
v -15.00000 9.16667 3.40000
v -5.00000 9.16667 3.40000
v 5.00000 9.16667 3.40000
v 15.00000 9.16667 3.40000
v 25.00000 9.16667 3.40000
v -25.00000 10.00000 0.00000
v -15.00000 10.00000 0.00000
v -5.00000 10.00000 0.00000
v 5.00000 10.00000 0.00000
v 15.00000 10.00000 0.00000
v 25.00000 10.00000 0.00000
v -25.00000 10.83333 -3.40000
v -15.00000 10.83333 -3.40000
v -5.00000 10.83333 -3.40000
v 5.00000 10.83333 -3.40000
v 15.00000 10.83333 -3.40000
v 25.00000 10.83333 -3.40000
v -25.00000 11.66667 -4.00000
v -15.00000 11.66667 -4.00000
v -5.00000 11.66667 -4.00000
v 5.00000 11.66667 -4.00000
v 15.00000 11.66667 -4.00000
v 25.00000 11.66667 -4.00000
v -25.00000 12.50000 -4.00000
v -15.00000 12.50000 -4.00000
v -5.00000 12.50000 -4.00000
v 5.00000 12.50000 -4.00000
v 15.00000 12.50000 -4.00000
v 25.00000 12.50000 -4.00000
v -25.00000 13.33333 -4.00000
v -15.00000 13.33333 -4.00000
v -5.00000 13.33333 -4.00000
v 5.00000 13.33333 -4.00000
v 15.00000 13.33333 -4.00000
v 25.00000 13.33333 -4.00000
v -25.00000 14.16667 -3.40000
v -15.00000 14.16667 -3.40000
v -5.00000 14.16667 -3.40000
v 5.00000 14.16667 -3.40000
v 15.00000 14.16667 -3.40000
v 25.00000 14.16667 -3.40000
v -25.00000 15.00000 -0.00000
v -15.00000 15.00000 -0.00000
v -5.00000 15.00000 -0.00000
v 5.00000 15.00000 -0.00000
v 15.00000 15.00000 -0.00000
v 25.00000 15.00000 -0.00000
v -25.00000 15.83333 3.40000
v -15.00000 15.83333 3.40000
v -5.00000 15.83333 3.40000
v 5.00000 15.83333 3.40000
v 15.00000 15.83333 3.40000
v 25.00000 15.83333 3.40000
v -25.00000 16.66667 4.00000
v -15.00000 16.66667 4.00000
v -5.00000 16.66667 4.00000
v 5.00000 16.66667 4.00000
v 15.00000 16.66667 4.00000
v 25.00000 16.66667 4.00000
v -25.00000 17.50000 4.00000
v -15.00000 17.50000 4.00000
v -5.00000 17.50000 4.00000
v 5.00000 17.50000 4.00000
v 15.00000 17.50000 4.00000
v 25.00000 17.50000 4.00000
v -25.00000 18.33333 4.00000
v -15.00000 18.33333 4.00000
v -5.00000 18.33333 4.00000
v 5.00000 18.33333 4.00000
v 15.00000 18.33333 4.00000
v 25.00000 18.33333 4.00000
v -25.00000 19.16667 3.40000
v -15.00000 19.16667 3.40000
v -5.00000 19.16667 3.40000
v 5.00000 19.16667 3.40000
v 15.00000 19.16667 3.40000
v 25.00000 19.16667 3.40000
v -25.00000 20.00000 0.00000
v -15.00000 20.00000 0.00000
v -5.00000 20.00000 0.00000
v 5.00000 20.00000 0.00000
v 15.00000 20.00000 0.00000
v 25.00000 20.00000 0.00000
v -25.00000 20.83333 -3.40000
v -15.00000 20.83333 -3.40000
v -5.00000 20.83333 -3.40000
v 5.00000 20.83333 -3.40000
v 15.00000 20.83333 -3.40000
v 25.00000 20.83333 -3.40000
v -25.00000 21.66667 -4.00000
v -15.00000 21.66667 -4.00000
v -5.00000 21.66667 -4.00000
v 5.00000 21.66667 -4.00000
v 15.00000 21.66667 -4.00000
v 25.00000 21.66667 -4.00000
v -25.00000 22.50000 -4.00000
v -15.00000 22.50000 -4.00000
v -5.00000 22.50000 -4.00000
v 5.00000 22.50000 -4.00000
v 15.00000 22.50000 -4.00000
v 25.00000 22.50000 -4.00000
v -25.00000 23.33333 -4.00000
v -15.00000 23.33333 -4.00000
v -5.00000 23.33333 -4.00000
v 5.00000 23.33333 -4.00000
v 15.00000 23.33333 -4.00000
v 25.00000 23.33333 -4.00000
v -25.00000 24.16667 -3.40000
v -15.00000 24.16667 -3.40000
v -5.00000 24.16667 -3.40000
v 5.00000 24.16667 -3.40000
v 15.00000 24.16667 -3.40000
v 25.00000 24.16667 -3.40000
v -25.00000 25.00000 -0.00000
v -15.00000 25.00000 -0.00000
v -5.00000 25.00000 -0.00000
v 5.00000 25.00000 -0.00000
v 15.00000 25.00000 -0.00000
v 25.00000 25.00000 -0.00000
v -25.00000 -25.00000 -6.00000
v -15.00000 -25.00000 -6.00000
v -5.00000 -25.00000 -6.00000
v 5.00000 -25.00000 -6.00000
v 15.00000 -25.00000 -6.00000
v 25.00000 -25.00000 -6.00000
v -25.00000 -24.16667 -6.00000
v -15.00000 -24.16667 -6.00000
v -5.00000 -24.16667 -6.00000
v 5.00000 -24.16667 -6.00000
v 15.00000 -24.16667 -6.00000
v 25.00000 -24.16667 -6.00000
v -25.00000 -23.33333 -6.00000
v -15.00000 -23.33333 -6.00000
v -5.00000 -23.33333 -6.00000
v 5.00000 -23.33333 -6.00000
v 15.00000 -23.33333 -6.00000
v 25.00000 -23.33333 -6.00000
v -25.00000 -22.50000 -6.00000
v -15.00000 -22.50000 -6.00000
v -5.00000 -22.50000 -6.00000
v 5.00000 -22.50000 -6.00000
v 15.00000 -22.50000 -6.00000
v 25.00000 -22.50000 -6.00000
v -25.00000 -21.66667 -6.00000
v -15.00000 -21.66667 -6.00000
v -5.00000 -21.66667 -6.00000
v 5.00000 -21.66667 -6.00000
v 15.00000 -21.66667 -6.00000
v 25.00000 -21.66667 -6.00000
v -25.00000 -20.83333 -6.00000
v -15.00000 -20.83333 -6.00000
v -5.00000 -20.83333 -6.00000
v 5.00000 -20.83333 -6.00000
v 15.00000 -20.83333 -6.00000
v 25.00000 -20.83333 -6.00000
v -25.00000 -20.00000 -6.00000
v -15.00000 -20.00000 -6.00000
v -5.00000 -20.00000 -6.00000
v 5.00000 -20.00000 -6.00000
v 15.00000 -20.00000 -6.00000
v 25.00000 -20.00000 -6.00000
v -25.00000 -19.16667 -6.00000
v -15.00000 -19.16667 -6.00000
v -5.00000 -19.16667 -6.00000
v 5.00000 -19.16667 -6.00000
v 15.00000 -19.16667 -6.00000
v 25.00000 -19.16667 -6.00000
v -25.00000 -18.33333 -6.00000
v -15.00000 -18.33333 -6.00000
v -5.00000 -18.33333 -6.00000
v 5.00000 -18.33333 -6.00000
v 15.00000 -18.33333 -6.00000
v 25.00000 -18.33333 -6.00000
v -25.00000 -17.50000 -6.00000
v -15.00000 -17.50000 -6.00000
v -5.00000 -17.50000 -6.00000
v 5.00000 -17.50000 -6.00000
v 15.00000 -17.50000 -6.00000
v 25.00000 -17.50000 -6.00000
v -25.00000 -16.66667 -6.00000
v -15.00000 -16.66667 -6.00000
v -5.00000 -16.66667 -6.00000
v 5.00000 -16.66667 -6.00000
v 15.00000 -16.66667 -6.00000
v 25.00000 -16.66667 -6.00000
v -25.00000 -15.83333 -6.00000
v -15.00000 -15.83333 -6.00000
v -5.00000 -15.83333 -6.00000
v 5.00000 -15.83333 -6.00000
v 15.00000 -15.83333 -6.00000
v 25.00000 -15.83333 -6.00000
v -25.00000 -15.00000 -6.00000
v -15.00000 -15.00000 -6.00000
v -5.00000 -15.00000 -6.00000
v 5.00000 -15.00000 -6.00000
v 15.00000 -15.00000 -6.00000
v 25.00000 -15.00000 -6.00000
v -25.00000 -14.16667 -6.00000
v -15.00000 -14.16667 -6.00000
v -5.00000 -14.16667 -6.00000
v 5.00000 -14.16667 -6.00000
v 15.00000 -14.16667 -6.00000
v 25.00000 -14.16667 -6.00000
v -25.00000 -13.33333 -6.00000
v -15.00000 -13.33333 -6.00000
v -5.00000 -13.33333 -6.00000
v 5.00000 -13.33333 -6.00000
v 15.00000 -13.33333 -6.00000
v 25.00000 -13.33333 -6.00000
v -25.00000 -12.50000 -6.00000
v -15.00000 -12.50000 -6.00000
v -5.00000 -12.50000 -6.00000
v 5.00000 -12.50000 -6.00000
v 15.00000 -12.50000 -6.00000
v 25.00000 -12.50000 -6.00000
v -25.00000 -11.66667 -6.00000
v -15.00000 -11.66667 -6.00000
v -5.00000 -11.66667 -6.00000
v 5.00000 -11.66667 -6.00000
v 15.00000 -11.66667 -6.00000
v 25.00000 -11.66667 -6.00000
v -25.00000 -10.83333 -6.00000
v -15.00000 -10.83333 -6.00000
v -5.00000 -10.83333 -6.00000
v 5.00000 -10.83333 -6.00000
v 15.00000 -10.83333 -6.00000
v 25.00000 -10.83333 -6.00000
v -25.00000 -10.00000 -6.00000
v -15.00000 -10.00000 -6.00000
v -5.00000 -10.00000 -6.00000
v 5.00000 -10.00000 -6.00000
v 15.00000 -10.00000 -6.00000
v 25.00000 -10.00000 -6.00000
v -25.00000 -9.16667 -6.00000
v -15.00000 -9.16667 -6.00000
v -5.00000 -9.16667 -6.00000
v 5.00000 -9.16667 -6.00000
v 15.00000 -9.16667 -6.00000
v 25.00000 -9.16667 -6.00000
v -25.00000 -8.33333 -6.00000
v -15.00000 -8.33333 -6.00000
v -5.00000 -8.33333 -6.00000
v 5.00000 -8.33333 -6.00000
v 15.00000 -8.33333 -6.00000
v 25.00000 -8.33333 -6.00000
v -25.00000 -7.50000 -6.00000
v -15.00000 -7.50000 -6.00000
v -5.00000 -7.50000 -6.00000
v 5.00000 -7.50000 -6.00000
v 15.00000 -7.50000 -6.00000
v 25.00000 -7.50000 -6.00000
v -25.00000 -6.66667 -6.00000
v -15.00000 -6.66667 -6.00000
v -5.00000 -6.66667 -6.00000
v 5.00000 -6.66667 -6.00000
v 15.00000 -6.66667 -6.00000
v 25.00000 -6.66667 -6.00000
v -25.00000 -5.83333 -6.00000
v -15.00000 -5.83333 -6.00000
v -5.00000 -5.83333 -6.00000
v 5.00000 -5.83333 -6.00000
v 15.00000 -5.83333 -6.00000
v 25.00000 -5.83333 -6.00000
v -25.00000 -5.00000 -6.00000
v -15.00000 -5.00000 -6.00000
v -5.00000 -5.00000 -6.00000
v 5.00000 -5.00000 -6.00000
v 15.00000 -5.00000 -6.00000
v 25.00000 -5.00000 -6.00000
v -25.00000 -4.16667 -6.00000
v -15.00000 -4.16667 -6.00000
v -5.00000 -4.16667 -6.00000
v 5.00000 -4.16667 -6.00000
v 15.00000 -4.16667 -6.00000
v 25.00000 -4.16667 -6.00000
v -25.00000 -3.33333 -6.00000
v -15.00000 -3.33333 -6.00000
v -5.00000 -3.33333 -6.00000
v 5.00000 -3.33333 -6.00000
v 15.00000 -3.33333 -6.00000
v 25.00000 -3.33333 -6.00000
v -25.00000 -2.50000 -6.00000
v -15.00000 -2.50000 -6.00000
v -5.00000 -2.50000 -6.00000
v 5.00000 -2.50000 -6.00000
v 15.00000 -2.50000 -6.00000
v 25.00000 -2.50000 -6.00000
v -25.00000 -1.66667 -6.00000
v -15.00000 -1.66667 -6.00000
v -5.00000 -1.66667 -6.00000
v 5.00000 -1.66667 -6.00000
v 15.00000 -1.66667 -6.00000
v 25.00000 -1.66667 -6.00000
v -25.00000 -0.83333 -6.00000
v -15.00000 -0.83333 -6.00000
v -5.00000 -0.83333 -6.00000
v 5.00000 -0.83333 -6.00000
v 15.00000 -0.83333 -6.00000
v 25.00000 -0.83333 -6.00000
v -25.00000 0.00000 -6.00000
v -15.00000 0.00000 -6.00000
v -5.00000 0.00000 -6.00000
v 5.00000 0.00000 -6.00000
v 15.00000 0.00000 -6.00000
v 25.00000 0.00000 -6.00000
v -25.00000 0.83333 -6.00000
v -15.00000 0.83333 -6.00000
v -5.00000 0.83333 -6.00000
v 5.00000 0.83333 -6.00000
v 15.00000 0.83333 -6.00000
v 25.00000 0.83333 -6.00000
v -25.00000 1.66667 -6.00000
v -15.00000 1.66667 -6.00000
v -5.00000 1.66667 -6.00000
v 5.00000 1.66667 -6.00000
v 15.00000 1.66667 -6.00000
v 25.00000 1.66667 -6.00000
v -25.00000 2.50000 -6.00000
v -15.00000 2.50000 -6.00000
v -5.00000 2.50000 -6.00000
v 5.00000 2.50000 -6.00000
v 15.00000 2.50000 -6.00000
v 25.00000 2.50000 -6.00000
v -25.00000 3.33333 -6.00000
v -15.00000 3.33333 -6.00000
v -5.00000 3.33333 -6.00000
v 5.00000 3.33333 -6.00000
v 15.00000 3.33333 -6.00000
v 25.00000 3.33333 -6.00000
v -25.00000 4.16667 -6.00000
v -15.00000 4.16667 -6.00000
v -5.00000 4.16667 -6.00000
v 5.00000 4.16667 -6.00000
v 15.00000 4.16667 -6.00000
v 25.00000 4.16667 -6.00000
v -25.00000 5.00000 -6.00000
v -15.00000 5.00000 -6.00000
v -5.00000 5.00000 -6.00000
v 5.00000 5.00000 -6.00000
v 15.00000 5.00000 -6.00000
v 25.00000 5.00000 -6.00000
v -25.00000 5.83333 -6.00000
v -15.00000 5.83333 -6.00000
v -5.00000 5.83333 -6.00000
v 5.00000 5.83333 -6.00000
v 15.00000 5.83333 -6.00000
v 25.00000 5.83333 -6.00000
v -25.00000 6.66667 -6.00000
v -15.00000 6.66667 -6.00000
v -5.00000 6.66667 -6.00000
v 5.00000 6.66667 -6.00000
v 15.00000 6.66667 -6.00000
v 25.00000 6.66667 -6.00000
v -25.00000 7.50000 -6.00000
v -15.00000 7.50000 -6.00000
v -5.00000 7.50000 -6.00000
v 5.00000 7.50000 -6.00000
v 15.00000 7.50000 -6.00000
v 25.00000 7.50000 -6.00000
v -25.00000 8.33333 -6.00000
v -15.00000 8.33333 -6.00000
v -5.00000 8.33333 -6.00000
v 5.00000 8.33333 -6.00000
v 15.00000 8.33333 -6.00000
v 25.00000 8.33333 -6.00000
v -25.00000 9.16667 -6.00000
v -15.00000 9.16667 -6.00000
v -5.00000 9.16667 -6.00000
v 5.00000 9.16667 -6.00000
v 15.00000 9.16667 -6.00000
v 25.00000 9.16667 -6.00000
v -25.00000 10.00000 -6.00000
v -15.00000 10.00000 -6.00000
v -5.00000 10.00000 -6.00000
v 5.00000 10.00000 -6.00000
v 15.00000 10.00000 -6.00000
v 25.00000 10.00000 -6.00000
v -25.00000 10.83333 -6.00000
v -15.00000 10.83333 -6.00000
v -5.00000 10.83333 -6.00000
v 5.00000 10.83333 -6.00000
v 15.00000 10.83333 -6.00000
v 25.00000 10.83333 -6.00000
v -25.00000 11.66667 -6.00000
v -15.00000 11.66667 -6.00000
v -5.00000 11.66667 -6.00000
v 5.00000 11.66667 -6.00000
v 15.00000 11.66667 -6.00000
v 25.00000 11.66667 -6.00000
v -25.00000 12.50000 -6.00000
v -15.00000 12.50000 -6.00000
v -5.00000 12.50000 -6.00000
v 5.00000 12.50000 -6.00000
v 15.00000 12.50000 -6.00000
v 25.00000 12.50000 -6.00000
v -25.00000 13.33333 -6.00000
v -15.00000 13.33333 -6.00000
v -5.00000 13.33333 -6.00000
v 5.00000 13.33333 -6.00000
v 15.00000 13.33333 -6.00000
v 25.00000 13.33333 -6.00000
v -25.00000 14.16667 -6.00000
v -15.00000 14.16667 -6.00000
v -5.00000 14.16667 -6.00000
v 5.00000 14.16667 -6.00000
v 15.00000 14.16667 -6.00000
v 25.00000 14.16667 -6.00000
v -25.00000 15.00000 -6.00000
v -15.00000 15.00000 -6.00000
v -5.00000 15.00000 -6.00000
v 5.00000 15.00000 -6.00000
v 15.00000 15.00000 -6.00000
v 25.00000 15.00000 -6.00000
v -25.00000 15.83333 -6.00000
v -15.00000 15.83333 -6.00000
v -5.00000 15.83333 -6.00000
v 5.00000 15.83333 -6.00000
v 15.00000 15.83333 -6.00000
v 25.00000 15.83333 -6.00000
v -25.00000 16.66667 -6.00000
v -15.00000 16.66667 -6.00000
v -5.00000 16.66667 -6.00000
v 5.00000 16.66667 -6.00000
v 15.00000 16.66667 -6.00000
v 25.00000 16.66667 -6.00000
v -25.00000 17.50000 -6.00000
v -15.00000 17.50000 -6.00000
v -5.00000 17.50000 -6.00000
v 5.00000 17.50000 -6.00000
v 15.00000 17.50000 -6.00000
v 25.00000 17.50000 -6.00000
v -25.00000 18.33333 -6.00000
v -15.00000 18.33333 -6.00000
v -5.00000 18.33333 -6.00000
v 5.00000 18.33333 -6.00000
v 15.00000 18.33333 -6.00000
v 25.00000 18.33333 -6.00000
v -25.00000 19.16667 -6.00000
v -15.00000 19.16667 -6.00000
v -5.00000 19.16667 -6.00000
v 5.00000 19.16667 -6.00000
v 15.00000 19.16667 -6.00000
v 25.00000 19.16667 -6.00000
v -25.00000 20.00000 -6.00000
v -15.00000 20.00000 -6.00000
v -5.00000 20.00000 -6.00000
v 5.00000 20.00000 -6.00000
v 15.00000 20.00000 -6.00000
v 25.00000 20.00000 -6.00000
v -25.00000 20.83333 -6.00000
v -15.00000 20.83333 -6.00000
v -5.00000 20.83333 -6.00000
v 5.00000 20.83333 -6.00000
v 15.00000 20.83333 -6.00000
v 25.00000 20.83333 -6.00000
v -25.00000 21.66667 -6.00000
v -15.00000 21.66667 -6.00000
v -5.00000 21.66667 -6.00000
v 5.00000 21.66667 -6.00000
v 15.00000 21.66667 -6.00000
v 25.00000 21.66667 -6.00000
v -25.00000 22.50000 -6.00000
v -15.00000 22.50000 -6.00000
v -5.00000 22.50000 -6.00000
v 5.00000 22.50000 -6.00000
v 15.00000 22.50000 -6.00000
v 25.00000 22.50000 -6.00000
v -25.00000 23.33333 -6.00000
v -15.00000 23.33333 -6.00000
v -5.00000 23.33333 -6.00000
v 5.00000 23.33333 -6.00000
v 15.00000 23.33333 -6.00000
v 25.00000 23.33333 -6.00000
v -25.00000 24.16667 -6.00000
v -15.00000 24.16667 -6.00000
v -5.00000 24.16667 -6.00000
v 5.00000 24.16667 -6.00000
v 15.00000 24.16667 -6.00000
v 25.00000 24.16667 -6.00000
v -25.00000 25.00000 -6.00000
v -15.00000 25.00000 -6.00000
v -5.00000 25.00000 -6.00000
v 5.00000 25.00000 -6.00000
v 15.00000 25.00000 -6.00000
v 25.00000 25.00000 -6.00000
f 1 2 8
f 367 374 368
f 1 2 368
f 1 368 367
f 1 8 7
f 367 373 374
f 7 1 367
f 7 367 373
f 2 3 9
f 368 375 369
f 2 3 369
f 2 369 368
f 2 9 8
f 368 374 375
f 3 4 10
f 369 376 370
f 3 4 370
f 3 370 369
f 3 10 9
f 369 375 376
f 4 5 11
f 370 377 371
f 4 5 371
f 4 371 370
f 4 11 10
f 370 376 377
f 5 6 12
f 371 378 372
f 5 6 372
f 5 372 371
f 6 12 378
f 6 378 372
f 5 12 11
f 371 377 378
f 7 8 14
f 373 380 374
f 7 14 13
f 373 379 380
f 13 7 373
f 13 373 379
f 8 9 15
f 374 381 375
f 8 15 14
f 374 380 381
f 9 10 16
f 375 382 376
f 9 16 15
f 375 381 382
f 10 11 17
f 376 383 377
f 10 17 16
f 376 382 383
f 11 12 18
f 377 384 378
f 12 18 384
f 12 384 378
f 11 18 17
f 377 383 384
f 13 14 20
f 379 386 380
f 13 20 19
f 379 385 386
f 19 13 379
f 19 379 385
f 14 15 21
f 380 387 381
f 14 21 20
f 380 386 387
f 15 16 22
f 381 388 382
f 15 22 21
f 381 387 388
f 16 17 23
f 382 389 383
f 16 23 22
f 382 388 389
f 17 18 24
f 383 390 384
f 18 24 390
f 18 390 384
f 17 24 23
f 383 389 390
f 19 20 26
f 385 392 386
f 19 26 25
f 385 391 392
f 25 19 385
f 25 385 391
f 20 21 27
f 386 393 387
f 20 27 26
f 386 392 393
f 21 22 28
f 387 394 388
f 21 28 27
f 387 393 394
f 22 23 29
f 388 395 389
f 22 29 28
f 388 394 395
f 23 24 30
f 389 396 390
f 24 30 396
f 24 396 390
f 23 30 29
f 389 395 396
f 25 26 32
f 391 398 392
f 25 32 31
f 391 397 398
f 31 25 391
f 31 391 397
f 26 27 33
f 392 399 393
f 26 33 32
f 392 398 399
f 27 28 34
f 393 400 394
f 27 34 33
f 393 399 400
f 28 29 35
f 394 401 395
f 28 35 34
f 394 400 401
f 29 30 36
f 395 402 396
f 30 36 402
f 30 402 396
f 29 36 35
f 395 401 402
f 31 32 38
f 397 404 398
f 31 38 37
f 397 403 404
f 37 31 397
f 37 397 403
f 32 33 39
f 398 405 399
f 32 39 38
f 398 404 405
f 33 34 40
f 399 406 400
f 33 40 39
f 399 405 406
f 34 35 41
f 400 407 401
f 34 41 40
f 400 406 407
f 35 36 42
f 401 408 402
f 36 42 408
f 36 408 402
f 35 42 41
f 401 407 408
f 37 38 44
f 403 410 404
f 37 44 43
f 403 409 410
f 43 37 403
f 43 403 409
f 38 39 45
f 404 411 405
f 38 45 44
f 404 410 411
f 39 40 46
f 405 412 406
f 39 46 45
f 405 411 412
f 40 41 47
f 406 413 407
f 40 47 46
f 406 412 413
f 41 42 48
f 407 414 408
f 42 48 414
f 42 414 408
f 41 48 47
f 407 413 414
f 43 44 50
f 409 416 410
f 43 50 49
f 409 415 416
f 49 43 409
f 49 409 415
f 44 45 51
f 410 417 411
f 44 51 50
f 410 416 417
f 45 46 52
f 411 418 412
f 45 52 51
f 411 417 418
f 46 47 53
f 412 419 413
f 46 53 52
f 412 418 419
f 47 48 54
f 413 420 414
f 48 54 420
f 48 420 414
f 47 54 53
f 413 419 420
f 49 50 56
f 415 422 416
f 49 56 55
f 415 421 422
f 55 49 415
f 55 415 421
f 50 51 57
f 416 423 417
f 50 57 56
f 416 422 423
f 51 52 58
f 417 424 418
f 51 58 57
f 417 423 424
f 52 53 59
f 418 425 419
f 52 59 58
f 418 424 425
f 53 54 60
f 419 426 420
f 54 60 426
f 54 426 420
f 53 60 59
f 419 425 426
f 55 56 62
f 421 428 422
f 55 62 61
f 421 427 428
f 61 55 421
f 61 421 427
f 56 57 63
f 422 429 423
f 56 63 62
f 422 428 429
f 57 58 64
f 423 430 424
f 57 64 63
f 423 429 430
f 58 59 65
f 424 431 425
f 58 65 64
f 424 430 431
f 59 60 66
f 425 432 426
f 60 66 432
f 60 432 426
f 59 66 65
f 425 431 432
f 61 62 68
f 427 434 428
f 61 68 67
f 427 433 434
f 67 61 427
f 67 427 433
f 62 63 69
f 428 435 429
f 62 69 68
f 428 434 435
f 63 64 70
f 429 436 430
f 63 70 69
f 429 435 436
f 64 65 71
f 430 437 431
f 64 71 70
f 430 436 437
f 65 66 72
f 431 438 432
f 66 72 438
f 66 438 432
f 65 72 71
f 431 437 438
f 67 68 74
f 433 440 434
f 67 74 73
f 433 439 440
f 73 67 433
f 73 433 439
f 68 69 75
f 434 441 435
f 68 75 74
f 434 440 441
f 69 70 76
f 435 442 436
f 69 76 75
f 435 441 442
f 70 71 77
f 436 443 437
f 70 77 76
f 436 442 443
f 71 72 78
f 437 444 438
f 72 78 444
f 72 444 438
f 71 78 77
f 437 443 444
f 73 74 80
f 439 446 440
f 73 80 79
f 439 445 446
f 79 73 439
f 79 439 445
f 74 75 81
f 440 447 441
f 74 81 80
f 440 446 447
f 75 76 82
f 441 448 442
f 75 82 81
f 441 447 448
f 76 77 83
f 442 449 443
f 76 83 82
f 442 448 449
f 77 78 84
f 443 450 444
f 78 84 450
f 78 450 444
f 77 84 83
f 443 449 450
f 79 80 86
f 445 452 446
f 79 86 85
f 445 451 452
f 85 79 445
f 85 445 451
f 80 81 87
f 446 453 447
f 80 87 86
f 446 452 453
f 81 82 88
f 447 454 448
f 81 88 87
f 447 453 454
f 82 83 89
f 448 455 449
f 82 89 88
f 448 454 455
f 83 84 90
f 449 456 450
f 84 90 456
f 84 456 450
f 83 90 89
f 449 455 456
f 85 86 92
f 451 458 452
f 85 92 91
f 451 457 458
f 91 85 451
f 91 451 457
f 86 87 93
f 452 459 453
f 86 93 92
f 452 458 459
f 87 88 94
f 453 460 454
f 87 94 93
f 453 459 460
f 88 89 95
f 454 461 455
f 88 95 94
f 454 460 461
f 89 90 96
f 455 462 456
f 90 96 462
f 90 462 456
f 89 96 95
f 455 461 462
f 91 92 98
f 457 464 458
f 91 98 97
f 457 463 464
f 97 91 457
f 97 457 463
f 92 93 99
f 458 465 459
f 92 99 98
f 458 464 465
f 93 94 100
f 459 466 460
f 93 100 99
f 459 465 466
f 94 95 101
f 460 467 461
f 94 101 100
f 460 466 467
f 95 96 102
f 461 468 462
f 96 102 468
f 96 468 462
f 95 102 101
f 461 467 468
f 97 98 104
f 463 470 464
f 97 104 103
f 463 469 470
f 103 97 463
f 103 463 469
f 98 99 105
f 464 471 465
f 98 105 104
f 464 470 471
f 99 100 106
f 465 472 466
f 99 106 105
f 465 471 472
f 100 101 107
f 466 473 467
f 100 107 106
f 466 472 473
f 101 102 108
f 467 474 468
f 102 108 474
f 102 474 468
f 101 108 107
f 467 473 474
f 103 104 110
f 469 476 470
f 103 110 109
f 469 475 476
f 109 103 469
f 109 469 475
f 104 105 111
f 470 477 471
f 104 111 110
f 470 476 477
f 105 106 112
f 471 478 472
f 105 112 111
f 471 477 478
f 106 107 113
f 472 479 473
f 106 113 112
f 472 478 479
f 107 108 114
f 473 480 474
f 108 114 480
f 108 480 474
f 107 114 113
f 473 479 480
f 109 110 116
f 475 482 476
f 109 116 115
f 475 481 482
f 115 109 475
f 115 475 481
f 110 111 117
f 476 483 477
f 110 117 116
f 476 482 483
f 111 112 118
f 477 484 478
f 111 118 117
f 477 483 484
f 112 113 119
f 478 485 479
f 112 119 118
f 478 484 485
f 113 114 120
f 479 486 480
f 114 120 486
f 114 486 480
f 113 120 119
f 479 485 486
f 115 116 122
f 481 488 482
f 115 122 121
f 481 487 488
f 121 115 481
f 121 481 487
f 116 117 123
f 482 489 483
f 116 123 122
f 482 488 489
f 117 118 124
f 483 490 484
f 117 124 123
f 483 489 490
f 118 119 125
f 484 491 485
f 118 125 124
f 484 490 491
f 119 120 126
f 485 492 486
f 120 126 492
f 120 492 486
f 119 126 125
f 485 491 492
f 121 122 128
f 487 494 488
f 121 128 127
f 487 493 494
f 127 121 487
f 127 487 493
f 122 123 129
f 488 495 489
f 122 129 128
f 488 494 495
f 123 124 130
f 489 496 490
f 123 130 129
f 489 495 496
f 124 125 131
f 490 497 491
f 124 131 130
f 490 496 497
f 125 126 132
f 491 498 492
f 126 132 498
f 126 498 492
f 125 132 131
f 491 497 498
f 127 128 134
f 493 500 494
f 127 134 133
f 493 499 500
f 133 127 493
f 133 493 499
f 128 129 135
f 494 501 495
f 128 135 134
f 494 500 501
f 129 130 136
f 495 502 496
f 129 136 135
f 495 501 502
f 130 131 137
f 496 503 497
f 130 137 136
f 496 502 503
f 131 132 138
f 497 504 498
f 132 138 504
f 132 504 498
f 131 138 137
f 497 503 504
f 133 134 140
f 499 506 500
f 133 140 139
f 499 505 506
f 139 133 499
f 139 499 505
f 134 135 141
f 500 507 501
f 134 141 140
f 500 506 507
f 135 136 142
f 501 508 502
f 135 142 141
f 501 507 508
f 136 137 143
f 502 509 503
f 136 143 142
f 502 508 509
f 137 138 144
f 503 510 504
f 138 144 510
f 138 510 504
f 137 144 143
f 503 509 510
f 139 140 146
f 505 512 506
f 139 146 145
f 505 511 512
f 145 139 505
f 145 505 511
f 140 141 147
f 506 513 507
f 140 147 146
f 506 512 513
f 141 142 148
f 507 514 508
f 141 148 147
f 507 513 514
f 142 143 149
f 508 515 509
f 142 149 148
f 508 514 515
f 143 144 150
f 509 516 510
f 144 150 516
f 144 516 510
f 143 150 149
f 509 515 516
f 145 146 152
f 511 518 512
f 145 152 151
f 511 517 518
f 151 145 511
f 151 511 517
f 146 147 153
f 512 519 513
f 146 153 152
f 512 518 519
f 147 148 154
f 513 520 514
f 147 154 153
f 513 519 520
f 148 149 155
f 514 521 515
f 148 155 154
f 514 520 521
f 149 150 156
f 515 522 516
f 150 156 522
f 150 522 516
f 149 156 155
f 515 521 522
f 151 152 158
f 517 524 518
f 151 158 157
f 517 523 524
f 157 151 517
f 157 517 523
f 152 153 159
f 518 525 519
f 152 159 158
f 518 524 525
f 153 154 160
f 519 526 520
f 153 160 159
f 519 525 526
f 154 155 161
f 520 527 521
f 154 161 160
f 520 526 527
f 155 156 162
f 521 528 522
f 156 162 528
f 156 528 522
f 155 162 161
f 521 527 528
f 157 158 164
f 523 530 524
f 157 164 163
f 523 529 530
f 163 157 523
f 163 523 529
f 158 159 165
f 524 531 525
f 158 165 164
f 524 530 531
f 159 160 166
f 525 532 526
f 159 166 165
f 525 531 532
f 160 161 167
f 526 533 527
f 160 167 166
f 526 532 533
f 161 162 168
f 527 534 528
f 162 168 534
f 162 534 528
f 161 168 167
f 527 533 534
f 163 164 170
f 529 536 530
f 163 170 169
f 529 535 536
f 169 163 529
f 169 529 535
f 164 165 171
f 530 537 531
f 164 171 170
f 530 536 537
f 165 166 172
f 531 538 532
f 165 172 171
f 531 537 538
f 166 167 173
f 532 539 533
f 166 173 172
f 532 538 539
f 167 168 174
f 533 540 534
f 168 174 540
f 168 540 534
f 167 174 173
f 533 539 540
f 169 170 176
f 535 542 536
f 169 176 175
f 535 541 542
f 175 169 535
f 175 535 541
f 170 171 177
f 536 543 537
f 170 177 176
f 536 542 543
f 171 172 178
f 537 544 538
f 171 178 177
f 537 543 544
f 172 173 179
f 538 545 539
f 172 179 178
f 538 544 545
f 173 174 180
f 539 546 540
f 174 180 546
f 174 546 540
f 173 180 179
f 539 545 546
f 175 176 182
f 541 548 542
f 175 182 181
f 541 547 548
f 181 175 541
f 181 541 547
f 176 177 183
f 542 549 543
f 176 183 182
f 542 548 549
f 177 178 184
f 543 550 544
f 177 184 183
f 543 549 550
f 178 179 185
f 544 551 545
f 178 185 184
f 544 550 551
f 179 180 186
f 545 552 546
f 180 186 552
f 180 552 546
f 179 186 185
f 545 551 552
f 181 182 188
f 547 554 548
f 181 188 187
f 547 553 554
f 187 181 547
f 187 547 553
f 182 183 189
f 548 555 549
f 182 189 188
f 548 554 555
f 183 184 190
f 549 556 550
f 183 190 189
f 549 555 556
f 184 185 191
f 550 557 551
f 184 191 190
f 550 556 557
f 185 186 192
f 551 558 552
f 186 192 558
f 186 558 552
f 185 192 191
f 551 557 558
f 187 188 194
f 553 560 554
f 187 194 193
f 553 559 560
f 193 187 553
f 193 553 559
f 188 189 195
f 554 561 555
f 188 195 194
f 554 560 561
f 189 190 196
f 555 562 556
f 189 196 195
f 555 561 562
f 190 191 197
f 556 563 557
f 190 197 196
f 556 562 563
f 191 192 198
f 557 564 558
f 192 198 564
f 192 564 558
f 191 198 197
f 557 563 564
f 193 194 200
f 559 566 560
f 193 200 199
f 559 565 566
f 199 193 559
f 199 559 565
f 194 195 201
f 560 567 561
f 194 201 200
f 560 566 567
f 195 196 202
f 561 568 562
f 195 202 201
f 561 567 568
f 196 197 203
f 562 569 563
f 196 203 202
f 562 568 569
f 197 198 204
f 563 570 564
f 198 204 570
f 198 570 564
f 197 204 203
f 563 569 570
f 199 200 206
f 565 572 566
f 199 206 205
f 565 571 572
f 205 199 565
f 205 565 571
f 200 201 207
f 566 573 567
f 200 207 206
f 566 572 573
f 201 202 208
f 567 574 568
f 201 208 207
f 567 573 574
f 202 203 209
f 568 575 569
f 202 209 208
f 568 574 575
f 203 204 210
f 569 576 570
f 204 210 576
f 204 576 570
f 203 210 209
f 569 575 576
f 205 206 212
f 571 578 572
f 205 212 211
f 571 577 578
f 211 205 571
f 211 571 577
f 206 207 213
f 572 579 573
f 206 213 212
f 572 578 579
f 207 208 214
f 573 580 574
f 207 214 213
f 573 579 580
f 208 209 215
f 574 581 575
f 208 215 214
f 574 580 581
f 209 210 216
f 575 582 576
f 210 216 582
f 210 582 576
f 209 216 215
f 575 581 582
f 211 212 218
f 577 584 578
f 211 218 217
f 577 583 584
f 217 211 577
f 217 577 583
f 212 213 219
f 578 585 579
f 212 219 218
f 578 584 585
f 213 214 220
f 579 586 580
f 213 220 219
f 579 585 586
f 214 215 221
f 580 587 581
f 214 221 220
f 580 586 587
f 215 216 222
f 581 588 582
f 216 222 588
f 216 588 582
f 215 222 221
f 581 587 588
f 217 218 224
f 583 590 584
f 217 224 223
f 583 589 590
f 223 217 583
f 223 583 589
f 218 219 225
f 584 591 585
f 218 225 224
f 584 590 591
f 219 220 226
f 585 592 586
f 219 226 225
f 585 591 592
f 220 221 227
f 586 593 587
f 220 227 226
f 586 592 593
f 221 222 228
f 587 594 588
f 222 228 594
f 222 594 588
f 221 228 227
f 587 593 594
f 223 224 230
f 589 596 590
f 223 230 229
f 589 595 596
f 229 223 589
f 229 589 595
f 224 225 231
f 590 597 591
f 224 231 230
f 590 596 597
f 225 226 232
f 591 598 592
f 225 232 231
f 591 597 598
f 226 227 233
f 592 599 593
f 226 233 232
f 592 598 599
f 227 228 234
f 593 600 594
f 228 234 600
f 228 600 594
f 227 234 233
f 593 599 600
f 229 230 236
f 595 602 596
f 229 236 235
f 595 601 602
f 235 229 595
f 235 595 601
f 230 231 237
f 596 603 597
f 230 237 236
f 596 602 603
f 231 232 238
f 597 604 598
f 231 238 237
f 597 603 604
f 232 233 239
f 598 605 599
f 232 239 238
f 598 604 605
f 233 234 240
f 599 606 600
f 234 240 606
f 234 606 600
f 233 240 239
f 599 605 606
f 235 236 242
f 601 608 602
f 235 242 241
f 601 607 608
f 241 235 601
f 241 601 607
f 236 237 243
f 602 609 603
f 236 243 242
f 602 608 609
f 237 238 244
f 603 610 604
f 237 244 243
f 603 609 610
f 238 239 245
f 604 611 605
f 238 245 244
f 604 610 611
f 239 240 246
f 605 612 606
f 240 246 612
f 240 612 606
f 239 246 245
f 605 611 612
f 241 242 248
f 607 614 608
f 241 248 247
f 607 613 614
f 247 241 607
f 247 607 613
f 242 243 249
f 608 615 609
f 242 249 248
f 608 614 615
f 243 244 250
f 609 616 610
f 243 250 249
f 609 615 616
f 244 245 251
f 610 617 611
f 244 251 250
f 610 616 617
f 245 246 252
f 611 618 612
f 246 252 618
f 246 618 612
f 245 252 251
f 611 617 618
f 247 248 254
f 613 620 614
f 247 254 253
f 613 619 620
f 253 247 613
f 253 613 619
f 248 249 255
f 614 621 615
f 248 255 254
f 614 620 621
f 249 250 256
f 615 622 616
f 249 256 255
f 615 621 622
f 250 251 257
f 616 623 617
f 250 257 256
f 616 622 623
f 251 252 258
f 617 624 618
f 252 258 624
f 252 624 618
f 251 258 257
f 617 623 624
f 253 254 260
f 619 626 620
f 253 260 259
f 619 625 626
f 259 253 619
f 259 619 625
f 254 255 261
f 620 627 621
f 254 261 260
f 620 626 627
f 255 256 262
f 621 628 622
f 255 262 261
f 621 627 628
f 256 257 263
f 622 629 623
f 256 263 262
f 622 628 629
f 257 258 264
f 623 630 624
f 258 264 630
f 258 630 624
f 257 264 263
f 623 629 630
f 259 260 266
f 625 632 626
f 259 266 265
f 625 631 632
f 265 259 625
f 265 625 631
f 260 261 267
f 626 633 627
f 260 267 266
f 626 632 633
f 261 262 268
f 627 634 628
f 261 268 267
f 627 633 634
f 262 263 269
f 628 635 629
f 262 269 268
f 628 634 635
f 263 264 270
f 629 636 630
f 264 270 636
f 264 636 630
f 263 270 269
f 629 635 636
f 265 266 272
f 631 638 632
f 265 272 271
f 631 637 638
f 271 265 631
f 271 631 637
f 266 267 273
f 632 639 633
f 266 273 272
f 632 638 639
f 267 268 274
f 633 640 634
f 267 274 273
f 633 639 640
f 268 269 275
f 634 641 635
f 268 275 274
f 634 640 641
f 269 270 276
f 635 642 636
f 270 276 642
f 270 642 636
f 269 276 275
f 635 641 642
f 271 272 278
f 637 644 638
f 271 278 277
f 637 643 644
f 277 271 637
f 277 637 643
f 272 273 279
f 638 645 639
f 272 279 278
f 638 644 645
f 273 274 280
f 639 646 640
f 273 280 279
f 639 645 646
f 274 275 281
f 640 647 641
f 274 281 280
f 640 646 647
f 275 276 282
f 641 648 642
f 276 282 648
f 276 648 642
f 275 282 281
f 641 647 648
f 277 278 284
f 643 650 644
f 277 284 283
f 643 649 650
f 283 277 643
f 283 643 649
f 278 279 285
f 644 651 645
f 278 285 284
f 644 650 651
f 279 280 286
f 645 652 646
f 279 286 285
f 645 651 652
f 280 281 287
f 646 653 647
f 280 287 286
f 646 652 653
f 281 282 288
f 647 654 648
f 282 288 654
f 282 654 648
f 281 288 287
f 647 653 654
f 283 284 290
f 649 656 650
f 283 290 289
f 649 655 656
f 289 283 649
f 289 649 655
f 284 285 291
f 650 657 651
f 284 291 290
f 650 656 657
f 285 286 292
f 651 658 652
f 285 292 291
f 651 657 658
f 286 287 293
f 652 659 653
f 286 293 292
f 652 658 659
f 287 288 294
f 653 660 654
f 288 294 660
f 288 660 654
f 287 294 293
f 653 659 660
f 289 290 296
f 655 662 656
f 289 296 295
f 655 661 662
f 295 289 655
f 295 655 661
f 290 291 297
f 656 663 657
f 290 297 296
f 656 662 663
f 291 292 298
f 657 664 658
f 291 298 297
f 657 663 664
f 292 293 299
f 658 665 659
f 292 299 298
f 658 664 665
f 293 294 300
f 659 666 660
f 294 300 666
f 294 666 660
f 293 300 299
f 659 665 666
f 295 296 302
f 661 668 662
f 295 302 301
f 661 667 668
f 301 295 661
f 301 661 667
f 296 297 303
f 662 669 663
f 296 303 302
f 662 668 669
f 297 298 304
f 663 670 664
f 297 304 303
f 663 669 670
f 298 299 305
f 664 671 665
f 298 305 304
f 664 670 671
f 299 300 306
f 665 672 666
f 300 306 672
f 300 672 666
f 299 306 305
f 665 671 672
f 301 302 308
f 667 674 668
f 301 308 307
f 667 673 674
f 307 301 667
f 307 667 673
f 302 303 309
f 668 675 669
f 302 309 308
f 668 674 675
f 303 304 310
f 669 676 670
f 303 310 309
f 669 675 676
f 304 305 311
f 670 677 671
f 304 311 310
f 670 676 677
f 305 306 312
f 671 678 672
f 306 312 678
f 306 678 672
f 305 312 311
f 671 677 678
f 307 308 314
f 673 680 674
f 307 314 313
f 673 679 680
f 313 307 673
f 313 673 679
f 308 309 315
f 674 681 675
f 308 315 314
f 674 680 681
f 309 310 316
f 675 682 676
f 309 316 315
f 675 681 682
f 310 311 317
f 676 683 677
f 310 317 316
f 676 682 683
f 311 312 318
f 677 684 678
f 312 318 684
f 312 684 678
f 311 318 317
f 677 683 684
f 313 314 320
f 679 686 680
f 313 320 319
f 679 685 686
f 319 313 679
f 319 679 685
f 314 315 321
f 680 687 681
f 314 321 320
f 680 686 687
f 315 316 322
f 681 688 682
f 315 322 321
f 681 687 688
f 316 317 323
f 682 689 683
f 316 323 322
f 682 688 689
f 317 318 324
f 683 690 684
f 318 324 690
f 318 690 684
f 317 324 323
f 683 689 690
f 319 320 326
f 685 692 686
f 319 326 325
f 685 691 692
f 325 319 685
f 325 685 691
f 320 321 327
f 686 693 687
f 320 327 326
f 686 692 693
f 321 322 328
f 687 694 688
f 321 328 327
f 687 693 694
f 322 323 329
f 688 695 689
f 322 329 328
f 688 694 695
f 323 324 330
f 689 696 690
f 324 330 696
f 324 696 690
f 323 330 329
f 689 695 696
f 325 326 332
f 691 698 692
f 325 332 331
f 691 697 698
f 331 325 691
f 331 691 697
f 326 327 333
f 692 699 693
f 326 333 332
f 692 698 699
f 327 328 334
f 693 700 694
f 327 334 333
f 693 699 700
f 328 329 335
f 694 701 695
f 328 335 334
f 694 700 701
f 329 330 336
f 695 702 696
f 330 336 702
f 330 702 696
f 329 336 335
f 695 701 702
f 331 332 338
f 697 704 698
f 331 338 337
f 697 703 704
f 337 331 697
f 337 697 703
f 332 333 339
f 698 705 699
f 332 339 338
f 698 704 705
f 333 334 340
f 699 706 700
f 333 340 339
f 699 705 706
f 334 335 341
f 700 707 701
f 334 341 340
f 700 706 707
f 335 336 342
f 701 708 702
f 336 342 708
f 336 708 702
f 335 342 341
f 701 707 708
f 337 338 344
f 703 710 704
f 337 344 343
f 703 709 710
f 343 337 703
f 343 703 709
f 338 339 345
f 704 711 705
f 338 345 344
f 704 710 711
f 339 340 346
f 705 712 706
f 339 346 345
f 705 711 712
f 340 341 347
f 706 713 707
f 340 347 346
f 706 712 713
f 341 342 348
f 707 714 708
f 342 348 714
f 342 714 708
f 341 348 347
f 707 713 714
f 343 344 350
f 709 716 710
f 343 350 349
f 709 715 716
f 349 343 709
f 349 709 715
f 344 345 351
f 710 717 711
f 344 351 350
f 710 716 717
f 345 346 352
f 711 718 712
f 345 352 351
f 711 717 718
f 346 347 353
f 712 719 713
f 346 353 352
f 712 718 719
f 347 348 354
f 713 720 714
f 348 354 720
f 348 720 714
f 347 354 353
f 713 719 720
f 349 350 356
f 715 722 716
f 349 356 355
f 715 721 722
f 355 349 715
f 355 715 721
f 350 351 357
f 716 723 717
f 350 357 356
f 716 722 723
f 351 352 358
f 717 724 718
f 351 358 357
f 717 723 724
f 352 353 359
f 718 725 719
f 352 359 358
f 718 724 725
f 353 354 360
f 719 726 720
f 354 360 726
f 354 726 720
f 353 360 359
f 719 725 726
f 355 356 362
f 721 728 722
f 355 362 361
f 721 727 728
f 362 361 727
f 362 727 728
f 361 355 721
f 361 721 727
f 356 357 363
f 722 729 723
f 356 363 362
f 722 728 729
f 363 362 728
f 363 728 729
f 357 358 364
f 723 730 724
f 357 364 363
f 723 729 730
f 364 363 729
f 364 729 730
f 358 359 365
f 724 731 725
f 358 365 364
f 724 730 731
f 365 364 730
f 365 730 731
f 359 360 366
f 725 732 726
f 360 366 732
f 360 732 726
f 359 366 365
f 725 731 732
f 366 365 731
f 366 731 732
