# Bellows Diecut foldcore die
v -37.91667 -25.00000 0.00000
v 0.00000 -25.00000 0.00000
v 37.91667 -25.00000 0.00000
v -37.91667 -24.16667 2.55000
v 0.00000 -24.16667 2.55000
v 37.91667 -24.16667 2.55000
v -37.91667 -23.33333 3.00000
v 0.00000 -23.33333 3.00000
v 37.91667 -23.33333 3.00000
v -37.91667 -22.50000 3.00000
v 0.00000 -22.50000 3.00000
v 37.91667 -22.50000 3.00000
v -37.91667 -21.66667 3.00000
v 0.00000 -21.66667 3.00000
v 37.91667 -21.66667 3.00000
v -37.91667 -20.83333 2.55000
v 0.00000 -20.83333 2.55000
v 37.91667 -20.83333 2.55000
v -37.91667 -20.00000 0.00000
v 0.00000 -20.00000 0.00000
v 37.91667 -20.00000 0.00000
v -37.91667 -19.16667 -2.55000
v 0.00000 -19.16667 -2.55000
v 37.91667 -19.16667 -2.55000
v -37.91667 -18.33333 -3.00000
v 0.00000 -18.33333 -3.00000
v 37.91667 -18.33333 -3.00000
v -37.91667 -17.50000 -3.00000
v 0.00000 -17.50000 -3.00000
v 37.91667 -17.50000 -3.00000
v -37.91667 -16.66667 -3.00000
v 0.00000 -16.66667 -3.00000
v 37.91667 -16.66667 -3.00000
v -37.91667 -15.83333 -2.55000
v 0.00000 -15.83333 -2.55000
v 37.91667 -15.83333 -2.55000
v -37.91667 -15.00000 -0.00000
v 0.00000 -15.00000 -0.00000
v 37.91667 -15.00000 -0.00000
v -37.91667 -14.16667 2.55000
v 0.00000 -14.16667 2.55000
v 37.91667 -14.16667 2.55000
v -37.91667 -13.33333 3.00000
v 0.00000 -13.33333 3.00000
v 37.91667 -13.33333 3.00000
v -37.91667 -12.50000 3.00000
v 0.00000 -12.50000 3.00000
v 37.91667 -12.50000 3.00000
v -37.91667 -11.66667 3.00000
v 0.00000 -11.66667 3.00000
v 37.91667 -11.66667 3.00000
v -37.91667 -10.83333 2.55000
v 0.00000 -10.83333 2.55000
v 37.91667 -10.83333 2.55000
v -37.91667 -10.00000 0.00000
v 0.00000 -10.00000 0.00000
v 37.91667 -10.00000 0.00000
v -37.91667 -9.16667 -2.55000
v 0.00000 -9.16667 -2.55000
v 37.91667 -9.16667 -2.55000
v -37.91667 -8.33333 -3.00000
v 0.00000 -8.33333 -3.00000
v 37.91667 -8.33333 -3.00000
v -37.91667 -7.50000 -3.00000
v 0.00000 -7.50000 -3.00000
v 37.91667 -7.50000 -3.00000
v -37.91667 -6.66667 -3.00000
v 0.00000 -6.66667 -3.00000
v 37.91667 -6.66667 -3.00000
v -37.91667 -5.83333 -2.55000
v 0.00000 -5.83333 -2.55000
v 37.91667 -5.83333 -2.55000
v -37.91667 -5.00000 -0.00000
v 0.00000 -5.00000 -0.00000
v 37.91667 -5.00000 -0.00000
v -37.91667 -4.16667 2.55000
v 0.00000 -4.16667 2.55000
v 37.91667 -4.16667 2.55000
v -37.91667 -3.33333 3.00000
v 0.00000 -3.33333 3.00000
v 37.91667 -3.33333 3.00000
v -37.91667 -2.50000 3.00000
v 0.00000 -2.50000 3.00000
v 37.91667 -2.50000 3.00000
v -37.91667 -1.66667 3.00000
v 0.00000 -1.66667 3.00000
v 37.91667 -1.66667 3.00000
v -37.91667 -0.83333 2.55000
v 0.00000 -0.83333 2.55000
v 37.91667 -0.83333 2.55000
v -37.91667 0.00000 0.00000
v 0.00000 0.00000 0.00000
v 37.91667 0.00000 0.00000
v -37.91667 0.83333 -2.55000
v 0.00000 0.83333 -2.55000
v 37.91667 0.83333 -2.55000
v -37.91667 1.66667 -3.00000
v 0.00000 1.66667 -3.00000
v 37.91667 1.66667 -3.00000
v -37.91667 2.50000 -3.00000
v 0.00000 2.50000 -3.00000
v 37.91667 2.50000 -3.00000
v -37.91667 3.33333 -3.00000
v 0.00000 3.33333 -3.00000
v 37.91667 3.33333 -3.00000
v -37.91667 4.16667 -2.55000
v 0.00000 4.16667 -2.55000
v 37.91667 4.16667 -2.55000
v -37.91667 5.00000 -0.00000
v 0.00000 5.00000 -0.00000
v 37.91667 5.00000 -0.00000
v -37.91667 5.83333 2.55000
v 0.00000 5.83333 2.55000
v 37.91667 5.83333 2.55000
v -37.91667 6.66667 3.00000
v 0.00000 6.66667 3.00000
v 37.91667 6.66667 3.00000
v -37.91667 7.50000 3.00000
v 0.00000 7.50000 3.00000
v 37.91667 7.50000 3.00000
v -37.91667 8.33333 3.00000
v 0.00000 8.33333 3.00000
v 37.91667 8.33333 3.00000
v -37.91667 9.16667 2.55000
v 0.00000 9.16667 2.55000
v 37.91667 9.16667 2.55000
v -37.91667 10.00000 0.00000
v 0.00000 10.00000 0.00000
v 37.91667 10.00000 0.00000
v -37.91667 10.83333 -2.55000
v 0.00000 10.83333 -2.55000
v 37.91667 10.83333 -2.55000
v -37.91667 11.66667 -3.00000
v 0.00000 11.66667 -3.00000
v 37.91667 11.66667 -3.00000
v -37.91667 12.50000 -3.00000
v 0.00000 12.50000 -3.00000
v 37.91667 12.50000 -3.00000
v -37.91667 13.33333 -3.00000
v 0.00000 13.33333 -3.00000
v 37.91667 13.33333 -3.00000
v -37.91667 14.16667 -2.55000
v 0.00000 14.16667 -2.55000
v 37.91667 14.16667 -2.55000
v -37.91667 15.00000 -0.00000
v 0.00000 15.00000 -0.00000
v 37.91667 15.00000 -0.00000
v -37.91667 15.83333 2.55000
v 0.00000 15.83333 2.55000
v 37.91667 15.83333 2.55000
v -37.91667 16.66667 3.00000
v 0.00000 16.66667 3.00000
v 37.91667 16.66667 3.00000
v -37.91667 17.50000 3.00000
v 0.00000 17.50000 3.00000
v 37.91667 17.50000 3.00000
v -37.91667 18.33333 3.00000
v 0.00000 18.33333 3.00000
v 37.91667 18.33333 3.00000
v -37.91667 19.16667 2.55000
v 0.00000 19.16667 2.55000
v 37.91667 19.16667 2.55000
v -37.91667 20.00000 0.00000
v 0.00000 20.00000 0.00000
v 37.91667 20.00000 0.00000
v -37.91667 20.83333 -2.55000
v 0.00000 20.83333 -2.55000
v 37.91667 20.83333 -2.55000
v -37.91667 21.66667 -3.00000
v 0.00000 21.66667 -3.00000
v 37.91667 21.66667 -3.00000
v -37.91667 22.50000 -3.00000
v 0.00000 22.50000 -3.00000
v 37.91667 22.50000 -3.00000
v -37.91667 23.33333 -3.00000
v 0.00000 23.33333 -3.00000
v 37.91667 23.33333 -3.00000
v -37.91667 24.16667 -2.55000
v 0.00000 24.16667 -2.55000
v 37.91667 24.16667 -2.55000
v -37.91667 25.00000 -0.00000
v 0.00000 25.00000 -0.00000
v 37.91667 25.00000 -0.00000
v -37.91667 -25.00000 -6.00000
v 0.00000 -25.00000 -6.00000
v 37.91667 -25.00000 -6.00000
v -37.91667 -24.16667 -6.00000
v 0.00000 -24.16667 -6.00000
v 37.91667 -24.16667 -6.00000
v -37.91667 -23.33333 -6.00000
v 0.00000 -23.33333 -6.00000
v 37.91667 -23.33333 -6.00000
v -37.91667 -22.50000 -6.00000
v 0.00000 -22.50000 -6.00000
v 37.91667 -22.50000 -6.00000
v -37.91667 -21.66667 -6.00000
v 0.00000 -21.66667 -6.00000
v 37.91667 -21.66667 -6.00000
v -37.91667 -20.83333 -6.00000
v 0.00000 -20.83333 -6.00000
v 37.91667 -20.83333 -6.00000
v -37.91667 -20.00000 -6.00000
v 0.00000 -20.00000 -6.00000
v 37.91667 -20.00000 -6.00000
v -37.91667 -19.16667 -6.00000
v 0.00000 -19.16667 -6.00000
v 37.91667 -19.16667 -6.00000
v -37.91667 -18.33333 -6.00000
v 0.00000 -18.33333 -6.00000
v 37.91667 -18.33333 -6.00000
v -37.91667 -17.50000 -6.00000
v 0.00000 -17.50000 -6.00000
v 37.91667 -17.50000 -6.00000
v -37.91667 -16.66667 -6.00000
v 0.00000 -16.66667 -6.00000
v 37.91667 -16.66667 -6.00000
v -37.91667 -15.83333 -6.00000
v 0.00000 -15.83333 -6.00000
v 37.91667 -15.83333 -6.00000
v -37.91667 -15.00000 -6.00000
v 0.00000 -15.00000 -6.00000
v 37.91667 -15.00000 -6.00000
v -37.91667 -14.16667 -6.00000
v 0.00000 -14.16667 -6.00000
v 37.91667 -14.16667 -6.00000
v -37.91667 -13.33333 -6.00000
v 0.00000 -13.33333 -6.00000
v 37.91667 -13.33333 -6.00000
v -37.91667 -12.50000 -6.00000
v 0.00000 -12.50000 -6.00000
v 37.91667 -12.50000 -6.00000
v -37.91667 -11.66667 -6.00000
v 0.00000 -11.66667 -6.00000
v 37.91667 -11.66667 -6.00000
v -37.91667 -10.83333 -6.00000
v 0.00000 -10.83333 -6.00000
v 37.91667 -10.83333 -6.00000
v -37.91667 -10.00000 -6.00000
v 0.00000 -10.00000 -6.00000
v 37.91667 -10.00000 -6.00000
v -37.91667 -9.16667 -6.00000
v 0.00000 -9.16667 -6.00000
v 37.91667 -9.16667 -6.00000
v -37.91667 -8.33333 -6.00000
v 0.00000 -8.33333 -6.00000
v 37.91667 -8.33333 -6.00000
v -37.91667 -7.50000 -6.00000
v 0.00000 -7.50000 -6.00000
v 37.91667 -7.50000 -6.00000
v -37.91667 -6.66667 -6.00000
v 0.00000 -6.66667 -6.00000
v 37.91667 -6.66667 -6.00000
v -37.91667 -5.83333 -6.00000
v 0.00000 -5.83333 -6.00000
v 37.91667 -5.83333 -6.00000
v -37.91667 -5.00000 -6.00000
v 0.00000 -5.00000 -6.00000
v 37.91667 -5.00000 -6.00000
v -37.91667 -4.16667 -6.00000
v 0.00000 -4.16667 -6.00000
v 37.91667 -4.16667 -6.00000
v -37.91667 -3.33333 -6.00000
v 0.00000 -3.33333 -6.00000
v 37.91667 -3.33333 -6.00000
v -37.91667 -2.50000 -6.00000
v 0.00000 -2.50000 -6.00000
v 37.91667 -2.50000 -6.00000
v -37.91667 -1.66667 -6.00000
v 0.00000 -1.66667 -6.00000
v 37.91667 -1.66667 -6.00000
v -37.91667 -0.83333 -6.00000
v 0.00000 -0.83333 -6.00000
v 37.91667 -0.83333 -6.00000
v -37.91667 0.00000 -6.00000
v 0.00000 0.00000 -6.00000
v 37.91667 0.00000 -6.00000
v -37.91667 0.83333 -6.00000
v 0.00000 0.83333 -6.00000
v 37.91667 0.83333 -6.00000
v -37.91667 1.66667 -6.00000
v 0.00000 1.66667 -6.00000
v 37.91667 1.66667 -6.00000
v -37.91667 2.50000 -6.00000
v 0.00000 2.50000 -6.00000
v 37.91667 2.50000 -6.00000
v -37.91667 3.33333 -6.00000
v 0.00000 3.33333 -6.00000
v 37.91667 3.33333 -6.00000
v -37.91667 4.16667 -6.00000
v 0.00000 4.16667 -6.00000
v 37.91667 4.16667 -6.00000
v -37.91667 5.00000 -6.00000
v 0.00000 5.00000 -6.00000
v 37.91667 5.00000 -6.00000
v -37.91667 5.83333 -6.00000
v 0.00000 5.83333 -6.00000
v 37.91667 5.83333 -6.00000
v -37.91667 6.66667 -6.00000
v 0.00000 6.66667 -6.00000
v 37.91667 6.66667 -6.00000
v -37.91667 7.50000 -6.00000
v 0.00000 7.50000 -6.00000
v 37.91667 7.50000 -6.00000
v -37.91667 8.33333 -6.00000
v 0.00000 8.33333 -6.00000
v 37.91667 8.33333 -6.00000
v -37.91667 9.16667 -6.00000
v 0.00000 9.16667 -6.00000
v 37.91667 9.16667 -6.00000
v -37.91667 10.00000 -6.00000
v 0.00000 10.00000 -6.00000
v 37.91667 10.00000 -6.00000
v -37.91667 10.83333 -6.00000
v 0.00000 10.83333 -6.00000
v 37.91667 10.83333 -6.00000
v -37.91667 11.66667 -6.00000
v 0.00000 11.66667 -6.00000
v 37.91667 11.66667 -6.00000
v -37.91667 12.50000 -6.00000
v 0.00000 12.50000 -6.00000
v 37.91667 12.50000 -6.00000
v -37.91667 13.33333 -6.00000
v 0.00000 13.33333 -6.00000
v 37.91667 13.33333 -6.00000
v -37.91667 14.16667 -6.00000
v 0.00000 14.16667 -6.00000
v 37.91667 14.16667 -6.00000
v -37.91667 15.00000 -6.00000
v 0.00000 15.00000 -6.00000
v 37.91667 15.00000 -6.00000
v -37.91667 15.83333 -6.00000
v 0.00000 15.83333 -6.00000
v 37.91667 15.83333 -6.00000
v -37.91667 16.66667 -6.00000
v 0.00000 16.66667 -6.00000
v 37.91667 16.66667 -6.00000
v -37.91667 17.50000 -6.00000
v 0.00000 17.50000 -6.00000
v 37.91667 17.50000 -6.00000
v -37.91667 18.33333 -6.00000
v 0.00000 18.33333 -6.00000
v 37.91667 18.33333 -6.00000
v -37.91667 19.16667 -6.00000
v 0.00000 19.16667 -6.00000
v 37.91667 19.16667 -6.00000
v -37.91667 20.00000 -6.00000
v 0.00000 20.00000 -6.00000
v 37.91667 20.00000 -6.00000
v -37.91667 20.83333 -6.00000
v 0.00000 20.83333 -6.00000
v 37.91667 20.83333 -6.00000
v -37.91667 21.66667 -6.00000
v 0.00000 21.66667 -6.00000
v 37.91667 21.66667 -6.00000
v -37.91667 22.50000 -6.00000
v 0.00000 22.50000 -6.00000
v 37.91667 22.50000 -6.00000
v -37.91667 23.33333 -6.00000
v 0.00000 23.33333 -6.00000
v 37.91667 23.33333 -6.00000
v -37.91667 24.16667 -6.00000
v 0.00000 24.16667 -6.00000
v 37.91667 24.16667 -6.00000
v -37.91667 25.00000 -6.00000
v 0.00000 25.00000 -6.00000
v 37.91667 25.00000 -6.00000
f 1 2 5
f 184 188 185
f 1 2 185
f 1 185 184
f 1 5 4
f 184 187 188
f 4 1 184
f 4 184 187
f 2 3 6
f 185 189 186
f 2 3 186
f 2 186 185
f 3 6 189
f 3 189 186
f 2 6 5
f 185 188 189
f 4 5 8
f 187 191 188
f 4 8 7
f 187 190 191
f 7 4 187
f 7 187 190
f 5 6 9
f 188 192 189
f 6 9 192
f 6 192 189
f 5 9 8
f 188 191 192
f 7 8 11
f 190 194 191
f 7 11 10
f 190 193 194
f 10 7 190
f 10 190 193
f 8 9 12
f 191 195 192
f 9 12 195
f 9 195 192
f 8 12 11
f 191 194 195
f 10 11 14
f 193 197 194
f 10 14 13
f 193 196 197
f 13 10 193
f 13 193 196
f 11 12 15
f 194 198 195
f 12 15 198
f 12 198 195
f 11 15 14
f 194 197 198
f 13 14 17
f 196 200 197
f 13 17 16
f 196 199 200
f 16 13 196
f 16 196 199
f 14 15 18
f 197 201 198
f 15 18 201
f 15 201 198
f 14 18 17
f 197 200 201
f 16 17 20
f 199 203 200
f 16 20 19
f 199 202 203
f 19 16 199
f 19 199 202
f 17 18 21
f 200 204 201
f 18 21 204
f 18 204 201
f 17 21 20
f 200 203 204
f 19 20 23
f 202 206 203
f 19 23 22
f 202 205 206
f 22 19 202
f 22 202 205
f 20 21 24
f 203 207 204
f 21 24 207
f 21 207 204
f 20 24 23
f 203 206 207
f 22 23 26
f 205 209 206
f 22 26 25
f 205 208 209
f 25 22 205
f 25 205 208
f 23 24 27
f 206 210 207
f 24 27 210
f 24 210 207
f 23 27 26
f 206 209 210
f 25 26 29
f 208 212 209
f 25 29 28
f 208 211 212
f 28 25 208
f 28 208 211
f 26 27 30
f 209 213 210
f 27 30 213
f 27 213 210
f 26 30 29
f 209 212 213
f 28 29 32
f 211 215 212
f 28 32 31
f 211 214 215
f 31 28 211
f 31 211 214
f 29 30 33
f 212 216 213
f 30 33 216
f 30 216 213
f 29 33 32
f 212 215 216
f 31 32 35
f 214 218 215
f 31 35 34
f 214 217 218
f 34 31 214
f 34 214 217
f 32 33 36
f 215 219 216
f 33 36 219
f 33 219 216
f 32 36 35
f 215 218 219
f 34 35 38
f 217 221 218
f 34 38 37
f 217 220 221
f 37 34 217
f 37 217 220
f 35 36 39
f 218 222 219
f 36 39 222
f 36 222 219
f 35 39 38
f 218 221 222
f 37 38 41
f 220 224 221
f 37 41 40
f 220 223 224
f 40 37 220
f 40 220 223
f 38 39 42
f 221 225 222
f 39 42 225
f 39 225 222
f 38 42 41
f 221 224 225
f 40 41 44
f 223 227 224
f 40 44 43
f 223 226 227
f 43 40 223
f 43 223 226
f 41 42 45
f 224 228 225
f 42 45 228
f 42 228 225
f 41 45 44
f 224 227 228
f 43 44 47
f 226 230 227
f 43 47 46
f 226 229 230
f 46 43 226
f 46 226 229
f 44 45 48
f 227 231 228
f 45 48 231
f 45 231 228
f 44 48 47
f 227 230 231
f 46 47 50
f 229 233 230
f 46 50 49
f 229 232 233
f 49 46 229
f 49 229 232
f 47 48 51
f 230 234 231
f 48 51 234
f 48 234 231
f 47 51 50
f 230 233 234
f 49 50 53
f 232 236 233
f 49 53 52
f 232 235 236
f 52 49 232
f 52 232 235
f 50 51 54
f 233 237 234
f 51 54 237
f 51 237 234
f 50 54 53
f 233 236 237
f 52 53 56
f 235 239 236
f 52 56 55
f 235 238 239
f 55 52 235
f 55 235 238
f 53 54 57
f 236 240 237
f 54 57 240
f 54 240 237
f 53 57 56
f 236 239 240
f 55 56 59
f 238 242 239
f 55 59 58
f 238 241 242
f 58 55 238
f 58 238 241
f 56 57 60
f 239 243 240
f 57 60 243
f 57 243 240
f 56 60 59
f 239 242 243
f 58 59 62
f 241 245 242
f 58 62 61
f 241 244 245
f 61 58 241
f 61 241 244
f 59 60 63
f 242 246 243
f 60 63 246
f 60 246 243
f 59 63 62
f 242 245 246
f 61 62 65
f 244 248 245
f 61 65 64
f 244 247 248
f 64 61 244
f 64 244 247
f 62 63 66
f 245 249 246
f 63 66 249
f 63 249 246
f 62 66 65
f 245 248 249
f 64 65 68
f 247 251 248
f 64 68 67
f 247 250 251
f 67 64 247
f 67 247 250
f 65 66 69
f 248 252 249
f 66 69 252
f 66 252 249
f 65 69 68
f 248 251 252
f 67 68 71
f 250 254 251
f 67 71 70
f 250 253 254
f 70 67 250
f 70 250 253
f 68 69 72
f 251 255 252
f 69 72 255
f 69 255 252
f 68 72 71
f 251 254 255
f 70 71 74
f 253 257 254
f 70 74 73
f 253 256 257
f 73 70 253
f 73 253 256
f 71 72 75
f 254 258 255
f 72 75 258
f 72 258 255
f 71 75 74
f 254 257 258
f 73 74 77
f 256 260 257
f 73 77 76
f 256 259 260
f 76 73 256
f 76 256 259
f 74 75 78
f 257 261 258
f 75 78 261
f 75 261 258
f 74 78 77
f 257 260 261
f 76 77 80
f 259 263 260
f 76 80 79
f 259 262 263
f 79 76 259
f 79 259 262
f 77 78 81
f 260 264 261
f 78 81 264
f 78 264 261
f 77 81 80
f 260 263 264
f 79 80 83
f 262 266 263
f 79 83 82
f 262 265 266
f 82 79 262
f 82 262 265
f 80 81 84
f 263 267 264
f 81 84 267
f 81 267 264
f 80 84 83
f 263 266 267
f 82 83 86
f 265 269 266
f 82 86 85
f 265 268 269
f 85 82 265
f 85 265 268
f 83 84 87
f 266 270 267
f 84 87 270
f 84 270 267
f 83 87 86
f 266 269 270
f 85 86 89
f 268 272 269
f 85 89 88
f 268 271 272
f 88 85 268
f 88 268 271
f 86 87 90
f 269 273 270
f 87 90 273
f 87 273 270
f 86 90 89
f 269 272 273
f 88 89 92
f 271 275 272
f 88 92 91
f 271 274 275
f 91 88 271
f 91 271 274
f 89 90 93
f 272 276 273
f 90 93 276
f 90 276 273
f 89 93 92
f 272 275 276
f 91 92 95
f 274 278 275
f 91 95 94
f 274 277 278
f 94 91 274
f 94 274 277
f 92 93 96
f 275 279 276
f 93 96 279
f 93 279 276
f 92 96 95
f 275 278 279
f 94 95 98
f 277 281 278
f 94 98 97
f 277 280 281
f 97 94 277
f 97 277 280
f 95 96 99
f 278 282 279
f 96 99 282
f 96 282 279
f 95 99 98
f 278 281 282
f 97 98 101
f 280 284 281
f 97 101 100
f 280 283 284
f 100 97 280
f 100 280 283
f 98 99 102
f 281 285 282
f 99 102 285
f 99 285 282
f 98 102 101
f 281 284 285
f 100 101 104
f 283 287 284
f 100 104 103
f 283 286 287
f 103 100 283
f 103 283 286
f 101 102 105
f 284 288 285
f 102 105 288
f 102 288 285
f 101 105 104
f 284 287 288
f 103 104 107
f 286 290 287
f 103 107 106
f 286 289 290
f 106 103 286
f 106 286 289
f 104 105 108
f 287 291 288
f 105 108 291
f 105 291 288
f 104 108 107
f 287 290 291
f 106 107 110
f 289 293 290
f 106 110 109
f 289 292 293
f 109 106 289
f 109 289 292
f 107 108 111
f 290 294 291
f 108 111 294
f 108 294 291
f 107 111 110
f 290 293 294
f 109 110 113
f 292 296 293
f 109 113 112
f 292 295 296
f 112 109 292
f 112 292 295
f 110 111 114
f 293 297 294
f 111 114 297
f 111 297 294
f 110 114 113
f 293 296 297
f 112 113 116
f 295 299 296
f 112 116 115
f 295 298 299
f 115 112 295
f 115 295 298
f 113 114 117
f 296 300 297
f 114 117 300
f 114 300 297
f 113 117 116
f 296 299 300
f 115 116 119
f 298 302 299
f 115 119 118
f 298 301 302
f 118 115 298
f 118 298 301
f 116 117 120
f 299 303 300
f 117 120 303
f 117 303 300
f 116 120 119
f 299 302 303
f 118 119 122
f 301 305 302
f 118 122 121
f 301 304 305
f 121 118 301
f 121 301 304
f 119 120 123
f 302 306 303
f 120 123 306
f 120 306 303
f 119 123 122
f 302 305 306
f 121 122 125
f 304 308 305
f 121 125 124
f 304 307 308
f 124 121 304
f 124 304 307
f 122 123 126
f 305 309 306
f 123 126 309
f 123 309 306
f 122 126 125
f 305 308 309
f 124 125 128
f 307 311 308
f 124 128 127
f 307 310 311
f 127 124 307
f 127 307 310
f 125 126 129
f 308 312 309
f 126 129 312
f 126 312 309
f 125 129 128
f 308 311 312
f 127 128 131
f 310 314 311
f 127 131 130
f 310 313 314
f 130 127 310
f 130 310 313
f 128 129 132
f 311 315 312
f 129 132 315
f 129 315 312
f 128 132 131
f 311 314 315
f 130 131 134
f 313 317 314
f 130 134 133
f 313 316 317
f 133 130 313
f 133 313 316
f 131 132 135
f 314 318 315
f 132 135 318
f 132 318 315
f 131 135 134
f 314 317 318
f 133 134 137
f 316 320 317
f 133 137 136
f 316 319 320
f 136 133 316
f 136 316 319
f 134 135 138
f 317 321 318
f 135 138 321
f 135 321 318
f 134 138 137
f 317 320 321
f 136 137 140
f 319 323 320
f 136 140 139
f 319 322 323
f 139 136 319
f 139 319 322
f 137 138 141
f 320 324 321
f 138 141 324
f 138 324 321
f 137 141 140
f 320 323 324
f 139 140 143
f 322 326 323
f 139 143 142
f 322 325 326
f 142 139 322
f 142 322 325
f 140 141 144
f 323 327 324
f 141 144 327
f 141 327 324
f 140 144 143
f 323 326 327
f 142 143 146
f 325 329 326
f 142 146 145
f 325 328 329
f 145 142 325
f 145 325 328
f 143 144 147
f 326 330 327
f 144 147 330
f 144 330 327
f 143 147 146
f 326 329 330
f 145 146 149
f 328 332 329
f 145 149 148
f 328 331 332
f 148 145 328
f 148 328 331
f 146 147 150
f 329 333 330
f 147 150 333
f 147 333 330
f 146 150 149
f 329 332 333
f 148 149 152
f 331 335 332
f 148 152 151
f 331 334 335
f 151 148 331
f 151 331 334
f 149 150 153
f 332 336 333
f 150 153 336
f 150 336 333
f 149 153 152
f 332 335 336
f 151 152 155
f 334 338 335
f 151 155 154
f 334 337 338
f 154 151 334
f 154 334 337
f 152 153 156
f 335 339 336
f 153 156 339
f 153 339 336
f 152 156 155
f 335 338 339
f 154 155 158
f 337 341 338
f 154 158 157
f 337 340 341
f 157 154 337
f 157 337 340
f 155 156 159
f 338 342 339
f 156 159 342
f 156 342 339
f 155 159 158
f 338 341 342
f 157 158 161
f 340 344 341
f 157 161 160
f 340 343 344
f 160 157 340
f 160 340 343
f 158 159 162
f 341 345 342
f 159 162 345
f 159 345 342
f 158 162 161
f 341 344 345
f 160 161 164
f 343 347 344
f 160 164 163
f 343 346 347
f 163 160 343
f 163 343 346
f 161 162 165
f 344 348 345
f 162 165 348
f 162 348 345
f 161 165 164
f 344 347 348
f 163 164 167
f 346 350 347
f 163 167 166
f 346 349 350
f 166 163 346
f 166 346 349
f 164 165 168
f 347 351 348
f 165 168 351
f 165 351 348
f 164 168 167
f 347 350 351
f 166 167 170
f 349 353 350
f 166 170 169
f 349 352 353
f 169 166 349
f 169 349 352
f 167 168 171
f 350 354 351
f 168 171 354
f 168 354 351
f 167 171 170
f 350 353 354
f 169 170 173
f 352 356 353
f 169 173 172
f 352 355 356
f 172 169 352
f 172 352 355
f 170 171 174
f 353 357 354
f 171 174 357
f 171 357 354
f 170 174 173
f 353 356 357
f 172 173 176
f 355 359 356
f 172 176 175
f 355 358 359
f 175 172 355
f 175 355 358
f 173 174 177
f 356 360 357
f 174 177 360
f 174 360 357
f 173 177 176
f 356 359 360
f 175 176 179
f 358 362 359
f 175 179 178
f 358 361 362
f 178 175 358
f 178 358 361
f 176 177 180
f 359 363 360
f 177 180 363
f 177 363 360
f 176 180 179
f 359 362 363
f 178 179 182
f 361 365 362
f 178 182 181
f 361 364 365
f 182 181 364
f 182 364 365
f 181 178 361
f 181 361 364
f 179 180 183
f 362 366 363
f 180 183 366
f 180 366 363
f 179 183 182
f 362 365 366
f 183 182 365
f 183 365 366
