<?xml version="1.0" encoding="UTF-8"?>
<svg xmlns="http://www.w3.org/2000/svg" width="60.00mm" height="60.00mm" viewBox="0 0 60.000 60.000">
  <title>accordion_corners_roller bellows pattern</title>
  <rect x="0" y="0" width="60.000" height="60.000" fill="white" />
  <line x1="5.000" y1="50.000" x2="15.000" y2="50.000" stroke="#1f77b4" stroke-width="0.6" stroke-dasharray="2,1.5" />
  <line x1="5.000" y1="55.000" x2="6.429" y2="50.000" stroke="#1f77b4" stroke-width="0.6" stroke-dasharray="2,1.5" />
  <line x1="10.714" y1="55.000" x2="9.286" y2="50.000" stroke="#1f77b4" stroke-width="0.6" stroke-dasharray="2,1.5" />
  <line x1="5.000" y1="45.000" x2="6.429" y2="50.000" stroke="#1f77b4" stroke-width="0.6" stroke-dasharray="2,1.5" />
  <line x1="10.714" y1="45.000" x2="9.286" y2="50.000" stroke="#1f77b4" stroke-width="0.6" stroke-dasharray="2,1.5" />
  <line x1="7.857" y1="55.000" x2="7.857" y2="45.000" stroke="#1f77b4" stroke-width="0.6" stroke-dasharray="2,1.5" />
  <line x1="15.000" y1="50.000" x2="25.000" y2="50.000" stroke="#1f77b4" stroke-width="0.6" stroke-dasharray="2,1.5" />
  <line x1="15.000" y1="55.000" x2="16.429" y2="50.000" stroke="#1f77b4" stroke-width="0.6" stroke-dasharray="2,1.5" />
  <line x1="20.714" y1="55.000" x2="19.286" y2="50.000" stroke="#1f77b4" stroke-width="0.6" stroke-dasharray="2,1.5" />
  <line x1="15.000" y1="45.000" x2="16.429" y2="50.000" stroke="#1f77b4" stroke-width="0.6" stroke-dasharray="2,1.5" />
  <line x1="20.714" y1="45.000" x2="19.286" y2="50.000" stroke="#1f77b4" stroke-width="0.6" stroke-dasharray="2,1.5" />
  <line x1="17.857" y1="55.000" x2="17.857" y2="45.000" stroke="#1f77b4" stroke-width="0.6" stroke-dasharray="2,1.5" />
  <line x1="25.000" y1="50.000" x2="35.000" y2="50.000" stroke="#1f77b4" stroke-width="0.6" stroke-dasharray="2,1.5" />
  <line x1="25.000" y1="55.000" x2="26.429" y2="50.000" stroke="#1f77b4" stroke-width="0.6" stroke-dasharray="2,1.5" />
  <line x1="30.714" y1="55.000" x2="29.286" y2="50.000" stroke="#1f77b4" stroke-width="0.6" stroke-dasharray="2,1.5" />
  <line x1="25.000" y1="45.000" x2="26.429" y2="50.000" stroke="#1f77b4" stroke-width="0.6" stroke-dasharray="2,1.5" />
  <line x1="30.714" y1="45.000" x2="29.286" y2="50.000" stroke="#1f77b4" stroke-width="0.6" stroke-dasharray="2,1.5" />
  <line x1="27.857" y1="55.000" x2="27.857" y2="45.000" stroke="#1f77b4" stroke-width="0.6" stroke-dasharray="2,1.5" />
  <line x1="35.000" y1="50.000" x2="45.000" y2="50.000" stroke="#1f77b4" stroke-width="0.6" stroke-dasharray="2,1.5" />
  <line x1="35.000" y1="55.000" x2="36.429" y2="50.000" stroke="#1f77b4" stroke-width="0.6" stroke-dasharray="2,1.5" />
  <line x1="40.714" y1="55.000" x2="39.286" y2="50.000" stroke="#1f77b4" stroke-width="0.6" stroke-dasharray="2,1.5" />
  <line x1="35.000" y1="45.000" x2="36.429" y2="50.000" stroke="#1f77b4" stroke-width="0.6" stroke-dasharray="2,1.5" />
  <line x1="40.714" y1="45.000" x2="39.286" y2="50.000" stroke="#1f77b4" stroke-width="0.6" stroke-dasharray="2,1.5" />
  <line x1="37.857" y1="55.000" x2="37.857" y2="45.000" stroke="#1f77b4" stroke-width="0.6" stroke-dasharray="2,1.5" />
  <line x1="45.000" y1="50.000" x2="55.000" y2="50.000" stroke="#1f77b4" stroke-width="0.6" stroke-dasharray="2,1.5" />
  <line x1="45.000" y1="55.000" x2="46.429" y2="50.000" stroke="#1f77b4" stroke-width="0.6" stroke-dasharray="2,1.5" />
  <line x1="50.714" y1="55.000" x2="49.286" y2="50.000" stroke="#1f77b4" stroke-width="0.6" stroke-dasharray="2,1.5" />
  <line x1="45.000" y1="45.000" x2="46.429" y2="50.000" stroke="#1f77b4" stroke-width="0.6" stroke-dasharray="2,1.5" />
  <line x1="50.714" y1="45.000" x2="49.286" y2="50.000" stroke="#1f77b4" stroke-width="0.6" stroke-dasharray="2,1.5" />
  <line x1="47.857" y1="55.000" x2="47.857" y2="45.000" stroke="#1f77b4" stroke-width="0.6" stroke-dasharray="2,1.5" />
  <line x1="5.000" y1="40.000" x2="15.000" y2="40.000" stroke="#1f77b4" stroke-width="0.6" stroke-dasharray="2,1.5" />
  <line x1="5.000" y1="45.000" x2="6.429" y2="40.000" stroke="#1f77b4" stroke-width="0.6" stroke-dasharray="2,1.5" />
  <line x1="10.714" y1="45.000" x2="9.286" y2="40.000" stroke="#1f77b4" stroke-width="0.6" stroke-dasharray="2,1.5" />
  <line x1="5.000" y1="35.000" x2="6.429" y2="40.000" stroke="#1f77b4" stroke-width="0.6" stroke-dasharray="2,1.5" />
  <line x1="10.714" y1="35.000" x2="9.286" y2="40.000" stroke="#1f77b4" stroke-width="0.6" stroke-dasharray="2,1.5" />
  <line x1="7.857" y1="45.000" x2="7.857" y2="35.000" stroke="#1f77b4" stroke-width="0.6" stroke-dasharray="2,1.5" />
  <line x1="15.000" y1="40.000" x2="25.000" y2="40.000" stroke="#1f77b4" stroke-width="0.6" stroke-dasharray="2,1.5" />
  <line x1="15.000" y1="45.000" x2="16.429" y2="40.000" stroke="#1f77b4" stroke-width="0.6" stroke-dasharray="2,1.5" />
  <line x1="20.714" y1="45.000" x2="19.286" y2="40.000" stroke="#1f77b4" stroke-width="0.6" stroke-dasharray="2,1.5" />
  <line x1="15.000" y1="35.000" x2="16.429" y2="40.000" stroke="#1f77b4" stroke-width="0.6" stroke-dasharray="2,1.5" />
  <line x1="20.714" y1="35.000" x2="19.286" y2="40.000" stroke="#1f77b4" stroke-width="0.6" stroke-dasharray="2,1.5" />
  <line x1="17.857" y1="45.000" x2="17.857" y2="35.000" stroke="#1f77b4" stroke-width="0.6" stroke-dasharray="2,1.5" />
  <line x1="25.000" y1="40.000" x2="35.000" y2="40.000" stroke="#1f77b4" stroke-width="0.6" stroke-dasharray="2,1.5" />
  <line x1="25.000" y1="45.000" x2="26.429" y2="40.000" stroke="#1f77b4" stroke-width="0.6" stroke-dasharray="2,1.5" />
  <line x1="30.714" y1="45.000" x2="29.286" y2="40.000" stroke="#1f77b4" stroke-width="0.6" stroke-dasharray="2,1.5" />
  <line x1="25.000" y1="35.000" x2="26.429" y2="40.000" stroke="#1f77b4" stroke-width="0.6" stroke-dasharray="2,1.5" />
  <line x1="30.714" y1="35.000" x2="29.286" y2="40.000" stroke="#1f77b4" stroke-width="0.6" stroke-dasharray="2,1.5" />
  <line x1="27.857" y1="45.000" x2="27.857" y2="35.000" stroke="#1f77b4" stroke-width="0.6" stroke-dasharray="2,1.5" />
  <line x1="35.000" y1="40.000" x2="45.000" y2="40.000" stroke="#1f77b4" stroke-width="0.6" stroke-dasharray="2,1.5" />
  <line x1="35.000" y1="45.000" x2="36.429" y2="40.000" stroke="#1f77b4" stroke-width="0.6" stroke-dasharray="2,1.5" />
  <line x1="40.714" y1="45.000" x2="39.286" y2="40.000" stroke="#1f77b4" stroke-width="0.6" stroke-dasharray="2,1.5" />
  <line x1="35.000" y1="35.000" x2="36.429" y2="40.000" stroke="#1f77b4" stroke-width="0.6" stroke-dasharray="2,1.5" />
  <line x1="40.714" y1="35.000" x2="39.286" y2="40.000" stroke="#1f77b4" stroke-width="0.6" stroke-dasharray="2,1.5" />
  <line x1="37.857" y1="45.000" x2="37.857" y2="35.000" stroke="#1f77b4" stroke-width="0.6" stroke-dasharray="2,1.5" />
  <line x1="45.000" y1="40.000" x2="55.000" y2="40.000" stroke="#1f77b4" stroke-width="0.6" stroke-dasharray="2,1.5" />
  <line x1="45.000" y1="45.000" x2="46.429" y2="40.000" stroke="#1f77b4" stroke-width="0.6" stroke-dasharray="2,1.5" />
  <line x1="50.714" y1="45.000" x2="49.286" y2="40.000" stroke="#1f77b4" stroke-width="0.6" stroke-dasharray="2,1.5" />
  <line x1="45.000" y1="35.000" x2="46.429" y2="40.000" stroke="#1f77b4" stroke-width="0.6" stroke-dasharray="2,1.5" />
  <line x1="50.714" y1="35.000" x2="49.286" y2="40.000" stroke="#1f77b4" stroke-width="0.6" stroke-dasharray="2,1.5" />
  <line x1="47.857" y1="45.000" x2="47.857" y2="35.000" stroke="#1f77b4" stroke-width="0.6" stroke-dasharray="2,1.5" />
  <line x1="5.000" y1="30.000" x2="15.000" y2="30.000" stroke="#1f77b4" stroke-width="0.6" stroke-dasharray="2,1.5" />
  <line x1="5.000" y1="35.000" x2="6.429" y2="30.000" stroke="#1f77b4" stroke-width="0.6" stroke-dasharray="2,1.5" />
  <line x1="10.714" y1="35.000" x2="9.286" y2="30.000" stroke="#1f77b4" stroke-width="0.6" stroke-dasharray="2,1.5" />
  <line x1="5.000" y1="25.000" x2="6.429" y2="30.000" stroke="#1f77b4" stroke-width="0.6" stroke-dasharray="2,1.5" />
  <line x1="10.714" y1="25.000" x2="9.286" y2="30.000" stroke="#1f77b4" stroke-width="0.6" stroke-dasharray="2,1.5" />
  <line x1="7.857" y1="35.000" x2="7.857" y2="25.000" stroke="#1f77b4" stroke-width="0.6" stroke-dasharray="2,1.5" />
  <line x1="15.000" y1="30.000" x2="25.000" y2="30.000" stroke="#1f77b4" stroke-width="0.6" stroke-dasharray="2,1.5" />
  <line x1="15.000" y1="35.000" x2="16.429" y2="30.000" stroke="#1f77b4" stroke-width="0.6" stroke-dasharray="2,1.5" />
  <line x1="20.714" y1="35.000" x2="19.286" y2="30.000" stroke="#1f77b4" stroke-width="0.6" stroke-dasharray="2,1.5" />
  <line x1="15.000" y1="25.000" x2="16.429" y2="30.000" stroke="#1f77b4" stroke-width="0.6" stroke-dasharray="2,1.5" />
  <line x1="20.714" y1="25.000" x2="19.286" y2="30.000" stroke="#1f77b4" stroke-width="0.6" stroke-dasharray="2,1.5" />
  <line x1="17.857" y1="35.000" x2="17.857" y2="25.000" stroke="#1f77b4" stroke-width="0.6" stroke-dasharray="2,1.5" />
  <line x1="25.000" y1="30.000" x2="35.000" y2="30.000" stroke="#1f77b4" stroke-width="0.6" stroke-dasharray="2,1.5" />
  <line x1="25.000" y1="35.000" x2="26.429" y2="30.000" stroke="#1f77b4" stroke-width="0.6" stroke-dasharray="2,1.5" />
  <line x1="30.714" y1="35.000" x2="29.286" y2="30.000" stroke="#1f77b4" stroke-width="0.6" stroke-dasharray="2,1.5" />
  <line x1="25.000" y1="25.000" x2="26.429" y2="30.000" stroke="#1f77b4" stroke-width="0.6" stroke-dasharray="2,1.5" />
  <line x1="30.714" y1="25.000" x2="29.286" y2="30.000" stroke="#1f77b4" stroke-width="0.6" stroke-dasharray="2,1.5" />
  <line x1="27.857" y1="35.000" x2="27.857" y2="25.000" stroke="#1f77b4" stroke-width="0.6" stroke-dasharray="2,1.5" />
  <line x1="35.000" y1="30.000" x2="45.000" y2="30.000" stroke="#1f77b4" stroke-width="0.6" stroke-dasharray="2,1.5" />
  <line x1="35.000" y1="35.000" x2="36.429" y2="30.000" stroke="#1f77b4" stroke-width="0.6" stroke-dasharray="2,1.5" />
  <line x1="40.714" y1="35.000" x2="39.286" y2="30.000" stroke="#1f77b4" stroke-width="0.6" stroke-dasharray="2,1.5" />
  <line x1="35.000" y1="25.000" x2="36.429" y2="30.000" stroke="#1f77b4" stroke-width="0.6" stroke-dasharray="2,1.5" />
  <line x1="40.714" y1="25.000" x2="39.286" y2="30.000" stroke="#1f77b4" stroke-width="0.6" stroke-dasharray="2,1.5" />
  <line x1="37.857" y1="35.000" x2="37.857" y2="25.000" stroke="#1f77b4" stroke-width="0.6" stroke-dasharray="2,1.5" />
  <line x1="45.000" y1="30.000" x2="55.000" y2="30.000" stroke="#1f77b4" stroke-width="0.6" stroke-dasharray="2,1.5" />
  <line x1="45.000" y1="35.000" x2="46.429" y2="30.000" stroke="#1f77b4" stroke-width="0.6" stroke-dasharray="2,1.5" />
  <line x1="50.714" y1="35.000" x2="49.286" y2="30.000" stroke="#1f77b4" stroke-width="0.6" stroke-dasharray="2,1.5" />
  <line x1="45.000" y1="25.000" x2="46.429" y2="30.000" stroke="#1f77b4" stroke-width="0.6" stroke-dasharray="2,1.5" />
  <line x1="50.714" y1="25.000" x2="49.286" y2="30.000" stroke="#1f77b4" stroke-width="0.6" stroke-dasharray="2,1.5" />
  <line x1="47.857" y1="35.000" x2="47.857" y2="25.000" stroke="#1f77b4" stroke-width="0.6" stroke-dasharray="2,1.5" />
  <line x1="5.000" y1="20.000" x2="15.000" y2="20.000" stroke="#1f77b4" stroke-width="0.6" stroke-dasharray="2,1.5" />
  <line x1="5.000" y1="25.000" x2="6.429" y2="20.000" stroke="#1f77b4" stroke-width="0.6" stroke-dasharray="2,1.5" />
  <line x1="10.714" y1="25.000" x2="9.286" y2="20.000" stroke="#1f77b4" stroke-width="0.6" stroke-dasharray="2,1.5" />
  <line x1="5.000" y1="15.000" x2="6.429" y2="20.000" stroke="#1f77b4" stroke-width="0.6" stroke-dasharray="2,1.5" />
  <line x1="10.714" y1="15.000" x2="9.286" y2="20.000" stroke="#1f77b4" stroke-width="0.6" stroke-dasharray="2,1.5" />
  <line x1="7.857" y1="25.000" x2="7.857" y2="15.000" stroke="#1f77b4" stroke-width="0.6" stroke-dasharray="2,1.5" />
  <line x1="15.000" y1="20.000" x2="25.000" y2="20.000" stroke="#1f77b4" stroke-width="0.6" stroke-dasharray="2,1.5" />
  <line x1="15.000" y1="25.000" x2="16.429" y2="20.000" stroke="#1f77b4" stroke-width="0.6" stroke-dasharray="2,1.5" />
  <line x1="20.714" y1="25.000" x2="19.286" y2="20.000" stroke="#1f77b4" stroke-width="0.6" stroke-dasharray="2,1.5" />
  <line x1="15.000" y1="15.000" x2="16.429" y2="20.000" stroke="#1f77b4" stroke-width="0.6" stroke-dasharray="2,1.5" />
  <line x1="20.714" y1="15.000" x2="19.286" y2="20.000" stroke="#1f77b4" stroke-width="0.6" stroke-dasharray="2,1.5" />
  <line x1="17.857" y1="25.000" x2="17.857" y2="15.000" stroke="#1f77b4" stroke-width="0.6" stroke-dasharray="2,1.5" />
  <line x1="25.000" y1="20.000" x2="35.000" y2="20.000" stroke="#1f77b4" stroke-width="0.6" stroke-dasharray="2,1.5" />
  <line x1="25.000" y1="25.000" x2="26.429" y2="20.000" stroke="#1f77b4" stroke-width="0.6" stroke-dasharray="2,1.5" />
  <line x1="30.714" y1="25.000" x2="29.286" y2="20.000" stroke="#1f77b4" stroke-width="0.6" stroke-dasharray="2,1.5" />
  <line x1="25.000" y1="15.000" x2="26.429" y2="20.000" stroke="#1f77b4" stroke-width="0.6" stroke-dasharray="2,1.5" />
  <line x1="30.714" y1="15.000" x2="29.286" y2="20.000" stroke="#1f77b4" stroke-width="0.6" stroke-dasharray="2,1.5" />
  <line x1="27.857" y1="25.000" x2="27.857" y2="15.000" stroke="#1f77b4" stroke-width="0.6" stroke-dasharray="2,1.5" />
  <line x1="35.000" y1="20.000" x2="45.000" y2="20.000" stroke="#1f77b4" stroke-width="0.6" stroke-dasharray="2,1.5" />
  <line x1="35.000" y1="25.000" x2="36.429" y2="20.000" stroke="#1f77b4" stroke-width="0.6" stroke-dasharray="2,1.5" />
  <line x1="40.714" y1="25.000" x2="39.286" y2="20.000" stroke="#1f77b4" stroke-width="0.6" stroke-dasharray="2,1.5" />
  <line x1="35.000" y1="15.000" x2="36.429" y2="20.000" stroke="#1f77b4" stroke-width="0.6" stroke-dasharray="2,1.5" />
  <line x1="40.714" y1="15.000" x2="39.286" y2="20.000" stroke="#1f77b4" stroke-width="0.6" stroke-dasharray="2,1.5" />
  <line x1="37.857" y1="25.000" x2="37.857" y2="15.000" stroke="#1f77b4" stroke-width="0.6" stroke-dasharray="2,1.5" />
  <line x1="45.000" y1="20.000" x2="55.000" y2="20.000" stroke="#1f77b4" stroke-width="0.6" stroke-dasharray="2,1.5" />
  <line x1="45.000" y1="25.000" x2="46.429" y2="20.000" stroke="#1f77b4" stroke-width="0.6" stroke-dasharray="2,1.5" />
  <line x1="50.714" y1="25.000" x2="49.286" y2="20.000" stroke="#1f77b4" stroke-width="0.6" stroke-dasharray="2,1.5" />
  <line x1="45.000" y1="15.000" x2="46.429" y2="20.000" stroke="#1f77b4" stroke-width="0.6" stroke-dasharray="2,1.5" />
  <line x1="50.714" y1="15.000" x2="49.286" y2="20.000" stroke="#1f77b4" stroke-width="0.6" stroke-dasharray="2,1.5" />
  <line x1="47.857" y1="25.000" x2="47.857" y2="15.000" stroke="#1f77b4" stroke-width="0.6" stroke-dasharray="2,1.5" />
  <line x1="5.000" y1="10.000" x2="15.000" y2="10.000" stroke="#1f77b4" stroke-width="0.6" stroke-dasharray="2,1.5" />
  <line x1="5.000" y1="15.000" x2="6.429" y2="10.000" stroke="#1f77b4" stroke-width="0.6" stroke-dasharray="2,1.5" />
  <line x1="10.714" y1="15.000" x2="9.286" y2="10.000" stroke="#1f77b4" stroke-width="0.6" stroke-dasharray="2,1.5" />
  <line x1="5.000" y1="5.000" x2="6.429" y2="10.000" stroke="#1f77b4" stroke-width="0.6" stroke-dasharray="2,1.5" />
  <line x1="10.714" y1="5.000" x2="9.286" y2="10.000" stroke="#1f77b4" stroke-width="0.6" stroke-dasharray="2,1.5" />
  <line x1="7.857" y1="15.000" x2="7.857" y2="5.000" stroke="#1f77b4" stroke-width="0.6" stroke-dasharray="2,1.5" />
  <line x1="15.000" y1="10.000" x2="25.000" y2="10.000" stroke="#1f77b4" stroke-width="0.6" stroke-dasharray="2,1.5" />
  <line x1="15.000" y1="15.000" x2="16.429" y2="10.000" stroke="#1f77b4" stroke-width="0.6" stroke-dasharray="2,1.5" />
  <line x1="20.714" y1="15.000" x2="19.286" y2="10.000" stroke="#1f77b4" stroke-width="0.6" stroke-dasharray="2,1.5" />
  <line x1="15.000" y1="5.000" x2="16.429" y2="10.000" stroke="#1f77b4" stroke-width="0.6" stroke-dasharray="2,1.5" />
  <line x1="20.714" y1="5.000" x2="19.286" y2="10.000" stroke="#1f77b4" stroke-width="0.6" stroke-dasharray="2,1.5" />
  <line x1="17.857" y1="15.000" x2="17.857" y2="5.000" stroke="#1f77b4" stroke-width="0.6" stroke-dasharray="2,1.5" />
  <line x1="25.000" y1="10.000" x2="35.000" y2="10.000" stroke="#1f77b4" stroke-width="0.6" stroke-dasharray="2,1.5" />
  <line x1="25.000" y1="15.000" x2="26.429" y2="10.000" stroke="#1f77b4" stroke-width="0.6" stroke-dasharray="2,1.5" />
  <line x1="30.714" y1="15.000" x2="29.286" y2="10.000" stroke="#1f77b4" stroke-width="0.6" stroke-dasharray="2,1.5" />
  <line x1="25.000" y1="5.000" x2="26.429" y2="10.000" stroke="#1f77b4" stroke-width="0.6" stroke-dasharray="2,1.5" />
  <line x1="30.714" y1="5.000" x2="29.286" y2="10.000" stroke="#1f77b4" stroke-width="0.6" stroke-dasharray="2,1.5" />
  <line x1="27.857" y1="15.000" x2="27.857" y2="5.000" stroke="#1f77b4" stroke-width="0.6" stroke-dasharray="2,1.5" />
  <line x1="35.000" y1="10.000" x2="45.000" y2="10.000" stroke="#1f77b4" stroke-width="0.6" stroke-dasharray="2,1.5" />
  <line x1="35.000" y1="15.000" x2="36.429" y2="10.000" stroke="#1f77b4" stroke-width="0.6" stroke-dasharray="2,1.5" />
  <line x1="40.714" y1="15.000" x2="39.286" y2="10.000" stroke="#1f77b4" stroke-width="0.6" stroke-dasharray="2,1.5" />
  <line x1="35.000" y1="5.000" x2="36.429" y2="10.000" stroke="#1f77b4" stroke-width="0.6" stroke-dasharray="2,1.5" />
  <line x1="40.714" y1="5.000" x2="39.286" y2="10.000" stroke="#1f77b4" stroke-width="0.6" stroke-dasharray="2,1.5" />
  <line x1="37.857" y1="15.000" x2="37.857" y2="5.000" stroke="#1f77b4" stroke-width="0.6" stroke-dasharray="2,1.5" />
  <line x1="45.000" y1="10.000" x2="55.000" y2="10.000" stroke="#1f77b4" stroke-width="0.6" stroke-dasharray="2,1.5" />
  <line x1="45.000" y1="15.000" x2="46.429" y2="10.000" stroke="#1f77b4" stroke-width="0.6" stroke-dasharray="2,1.5" />
  <line x1="50.714" y1="15.000" x2="49.286" y2="10.000" stroke="#1f77b4" stroke-width="0.6" stroke-dasharray="2,1.5" />
  <line x1="45.000" y1="5.000" x2="46.429" y2="10.000" stroke="#1f77b4" stroke-width="0.6" stroke-dasharray="2,1.5" />
  <line x1="50.714" y1="5.000" x2="49.286" y2="10.000" stroke="#1f77b4" stroke-width="0.6" stroke-dasharray="2,1.5" />
  <line x1="47.857" y1="15.000" x2="47.857" y2="5.000" stroke="#1f77b4" stroke-width="0.6" stroke-dasharray="2,1.5" />
  <line x1="5.000" y1="55.000" x2="15.000" y2="55.000" stroke="#d62728" stroke-width="0.6" />
  <line x1="5.000" y1="45.000" x2="15.000" y2="45.000" stroke="#d62728" stroke-width="0.6" />
  <line x1="15.000" y1="55.000" x2="25.000" y2="55.000" stroke="#d62728" stroke-width="0.6" />
  <line x1="15.000" y1="45.000" x2="25.000" y2="45.000" stroke="#d62728" stroke-width="0.6" />
  <line x1="25.000" y1="55.000" x2="35.000" y2="55.000" stroke="#d62728" stroke-width="0.6" />
  <line x1="25.000" y1="45.000" x2="35.000" y2="45.000" stroke="#d62728" stroke-width="0.6" />
  <line x1="35.000" y1="55.000" x2="45.000" y2="55.000" stroke="#d62728" stroke-width="0.6" />
  <line x1="35.000" y1="45.000" x2="45.000" y2="45.000" stroke="#d62728" stroke-width="0.6" />
  <line x1="45.000" y1="55.000" x2="55.000" y2="55.000" stroke="#d62728" stroke-width="0.6" />
  <line x1="45.000" y1="45.000" x2="55.000" y2="45.000" stroke="#d62728" stroke-width="0.6" />
  <line x1="5.000" y1="45.000" x2="15.000" y2="45.000" stroke="#d62728" stroke-width="0.6" />
  <line x1="5.000" y1="35.000" x2="15.000" y2="35.000" stroke="#d62728" stroke-width="0.6" />
  <line x1="15.000" y1="45.000" x2="25.000" y2="45.000" stroke="#d62728" stroke-width="0.6" />
  <line x1="15.000" y1="35.000" x2="25.000" y2="35.000" stroke="#d62728" stroke-width="0.6" />
  <line x1="25.000" y1="45.000" x2="35.000" y2="45.000" stroke="#d62728" stroke-width="0.6" />
  <line x1="25.000" y1="35.000" x2="35.000" y2="35.000" stroke="#d62728" stroke-width="0.6" />
  <line x1="35.000" y1="45.000" x2="45.000" y2="45.000" stroke="#d62728" stroke-width="0.6" />
  <line x1="35.000" y1="35.000" x2="45.000" y2="35.000" stroke="#d62728" stroke-width="0.6" />
  <line x1="45.000" y1="45.000" x2="55.000" y2="45.000" stroke="#d62728" stroke-width="0.6" />
  <line x1="45.000" y1="35.000" x2="55.000" y2="35.000" stroke="#d62728" stroke-width="0.6" />
  <line x1="5.000" y1="35.000" x2="15.000" y2="35.000" stroke="#d62728" stroke-width="0.6" />
  <line x1="5.000" y1="25.000" x2="15.000" y2="25.000" stroke="#d62728" stroke-width="0.6" />
  <line x1="15.000" y1="35.000" x2="25.000" y2="35.000" stroke="#d62728" stroke-width="0.6" />
  <line x1="15.000" y1="25.000" x2="25.000" y2="25.000" stroke="#d62728" stroke-width="0.6" />
  <line x1="25.000" y1="35.000" x2="35.000" y2="35.000" stroke="#d62728" stroke-width="0.6" />
  <line x1="25.000" y1="25.000" x2="35.000" y2="25.000" stroke="#d62728" stroke-width="0.6" />
  <line x1="35.000" y1="35.000" x2="45.000" y2="35.000" stroke="#d62728" stroke-width="0.6" />
  <line x1="35.000" y1="25.000" x2="45.000" y2="25.000" stroke="#d62728" stroke-width="0.6" />
  <line x1="45.000" y1="35.000" x2="55.000" y2="35.000" stroke="#d62728" stroke-width="0.6" />
  <line x1="45.000" y1="25.000" x2="55.000" y2="25.000" stroke="#d62728" stroke-width="0.6" />
  <line x1="5.000" y1="25.000" x2="15.000" y2="25.000" stroke="#d62728" stroke-width="0.6" />
  <line x1="5.000" y1="15.000" x2="15.000" y2="15.000" stroke="#d62728" stroke-width="0.6" />
  <line x1="15.000" y1="25.000" x2="25.000" y2="25.000" stroke="#d62728" stroke-width="0.6" />
  <line x1="15.000" y1="15.000" x2="25.000" y2="15.000" stroke="#d62728" stroke-width="0.6" />
  <line x1="25.000" y1="25.000" x2="35.000" y2="25.000" stroke="#d62728" stroke-width="0.6" />
  <line x1="25.000" y1="15.000" x2="35.000" y2="15.000" stroke="#d62728" stroke-width="0.6" />
  <line x1="35.000" y1="25.000" x2="45.000" y2="25.000" stroke="#d62728" stroke-width="0.6" />
  <line x1="35.000" y1="15.000" x2="45.000" y2="15.000" stroke="#d62728" stroke-width="0.6" />
  <line x1="45.000" y1="25.000" x2="55.000" y2="25.000" stroke="#d62728" stroke-width="0.6" />
  <line x1="45.000" y1="15.000" x2="55.000" y2="15.000" stroke="#d62728" stroke-width="0.6" />
  <line x1="5.000" y1="15.000" x2="15.000" y2="15.000" stroke="#d62728" stroke-width="0.6" />
  <line x1="5.000" y1="5.000" x2="15.000" y2="5.000" stroke="#d62728" stroke-width="0.6" />
  <line x1="15.000" y1="15.000" x2="25.000" y2="15.000" stroke="#d62728" stroke-width="0.6" />
  <line x1="15.000" y1="5.000" x2="25.000" y2="5.000" stroke="#d62728" stroke-width="0.6" />
  <line x1="25.000" y1="15.000" x2="35.000" y2="15.000" stroke="#d62728" stroke-width="0.6" />
  <line x1="25.000" y1="5.000" x2="35.000" y2="5.000" stroke="#d62728" stroke-width="0.6" />
  <line x1="35.000" y1="15.000" x2="45.000" y2="15.000" stroke="#d62728" stroke-width="0.6" />
  <line x1="35.000" y1="5.000" x2="45.000" y2="5.000" stroke="#d62728" stroke-width="0.6" />
  <line x1="45.000" y1="15.000" x2="55.000" y2="15.000" stroke="#d62728" stroke-width="0.6" />
  <line x1="45.000" y1="5.000" x2="55.000" y2="5.000" stroke="#d62728" stroke-width="0.6" />
  <line x1="5.000" y1="55.000" x2="55.000" y2="55.000" stroke="#000000" stroke-width="0.8" />
  <line x1="55.000" y1="55.000" x2="55.000" y2="5.000" stroke="#000000" stroke-width="0.8" />
  <line x1="55.000" y1="5.000" x2="5.000" y2="5.000" stroke="#000000" stroke-width="0.8" />
  <line x1="5.000" y1="5.000" x2="5.000" y2="55.000" stroke="#000000" stroke-width="0.8" />
</svg>
